<svg width="20" height="20" viewBox="0 0 20 20" fill="none" xmlns="http://www.w3.org/2000/svg">
<path fill-rule="evenodd" clip-rule="evenodd" d="M10.0012 2.75C5.99716 2.75 2.75122 5.99594 2.75122 10C2.75122 14.0041 5.99716 17.25 10.0012 17.25C14.0053 17.25 17.2512 14.0041 17.2512 10C17.2512 5.99594 14.0053 2.75 10.0012 2.75ZM1.25122 10C1.25122 5.16751 5.16873 1.25 10.0012 1.25C14.8337 1.25 18.7512 5.16751 18.7512 10C18.7512 14.8325 14.8337 18.75 10.0012 18.75C5.16873 18.75 1.25122 14.8325 1.25122 10Z" fill="#FBFBFB"/>
<path fill-rule="evenodd" clip-rule="evenodd" d="M14.466 6.41137C14.7911 6.66803 14.8466 7.13965 14.5899 7.46476L9.9745 13.3109C9.84564 13.4741 9.65479 13.5765 9.44753 13.5936C9.24027 13.6107 9.03522 13.541 8.88134 13.4011L5.49672 10.3242C5.19023 10.0456 5.16764 9.57125 5.44627 9.26476C5.7249 8.95826 6.19924 8.93568 6.50573 9.21431L9.2954 11.7504L13.4126 6.5353C13.6692 6.21019 14.1409 6.1547 14.466 6.41137Z" fill="#FBFBFB"/>
</svg>
