<svg width="63" height="88" viewBox="0 0 63 88" fill="none" xmlns="http://www.w3.org/2000/svg">
<path d="M32.3366 87.9925C9.2199 87.9925 4 75.6437 4 64.9355V23.1167C4 12.401 9.17515 0 32.3366 0H32.8064C42.0083 0 48.5183 1.73748 53.0969 5.68969C57.6754 9.6419 59.9275 15.4658 59.9275 23.1167V64.943C59.9275 75.6512 55.5278 88 32.784 88L32.3366 87.9925ZM32.3366 13.0646C29.8087 13.0646 28.8094 14.049 28.198 15.0184C27.3851 16.2935 26.3934 18.978 26.3934 24.5335V63.5112C26.3934 74.9801 30.2262 74.9801 31.9861 74.9801C33.746 74.9801 37.5788 74.9801 37.5788 63.5112V24.5335C37.5788 18.9557 36.9525 16.2637 36.1546 14.9811C35.5505 14.0341 34.9167 13.0646 32.3366 13.0646Z" fill="white"/>
<path d="M56.4379 64.9355C56.4379 78.0101 48.5534 84.5474 32.7843 84.5474H32.3369C16.2497 84.5474 8.20605 78.0101 8.20605 64.9355V23.1167C8.20605 10.0371 16.2497 3.49985 32.3369 3.50482H32.8067C40.9696 3.50482 46.9526 5.14784 50.7557 8.43389C54.5587 11.7199 56.4528 16.6142 56.4379 23.1167V64.9355ZM42.031 24.5335C42.031 19.3087 41.2604 15.4459 39.7193 12.9454C38.1757 10.4473 35.6925 9.21686 32.2623 9.21686C28.8321 9.21686 26.4757 10.4622 24.8948 12.9454C23.3139 15.4285 22.516 19.3062 22.516 24.5335V63.5113C22.516 73.7373 25.7648 78.8478 32.2623 78.8428C38.7598 78.8379 42.0161 73.7273 42.031 63.5113V24.5335Z" fill="#6362D1"/>
<mask id="mask0_728_20957" style="mask-type:luminance" maskUnits="userSpaceOnUse" x="8" y="3" width="49" height="82">
<mask id="mask1_728_20957" style="mask-type:luminance" maskUnits="userSpaceOnUse" x="8" y="3" width="49" height="82">
<path d="M56.4379 64.9355C56.4379 78.0101 48.5534 84.5474 32.7843 84.5474H32.3369C16.2497 84.5474 8.20605 78.0101 8.20605 64.9355V23.1167C8.20605 10.0371 16.2497 3.49985 32.3369 3.50482H32.8067C40.9696 3.50482 46.9526 5.14784 50.7557 8.43389C54.5587 11.7199 56.4528 16.6142 56.4379 23.1167V64.9355ZM42.031 24.5335C42.031 19.3087 41.2604 15.4459 39.7193 12.9454C38.1757 10.4473 35.6925 9.21686 32.2623 9.21686C28.8321 9.21686 26.4757 10.4622 24.8948 12.9454C23.3139 15.4285 22.516 19.3062 22.516 24.5335V63.5113C22.516 73.7373 25.7648 78.8478 32.2623 78.8428C38.7598 78.8379 42.0161 73.7273 42.031 63.5113V24.5335Z" fill="white"/>
</mask>
<g mask="url(#mask1_728_20957)">
<path d="M56.4379 64.9355C56.4379 78.0101 48.5534 84.5474 32.7843 84.5474H32.3369C16.2497 84.5474 8.20605 78.0101 8.20605 64.9355V23.1167C8.20605 10.0371 16.2497 3.49985 32.3369 3.50482H32.8067C40.9696 3.50482 46.9526 5.14784 50.7557 8.43389C54.5587 11.7199 56.4528 16.6142 56.4379 23.1167V64.9355ZM42.031 24.5335C42.031 19.3087 41.2604 15.4459 39.7193 12.9454C38.1757 10.4473 35.6925 9.21686 32.2623 9.21686C28.8321 9.21686 26.4757 10.4622 24.8948 12.9454C23.3139 15.4285 22.516 19.3062 22.516 24.5335V63.5113C22.516 73.7373 25.7648 78.8478 32.2623 78.8428C38.7598 78.8379 42.0161 73.7273 42.031 63.5113V24.5335Z" fill="white"/>
</g>
</mask>
<g mask="url(#mask0_728_20957)">
<path d="M4.6709 5.39877C6.99002 5.30929 9.3166 5.27202 11.6357 5.2049L18.608 5.09303C23.2537 5.03337 27.8994 5.04084 32.5451 5.00355C37.1909 4.96627 41.8291 5.00355 46.4748 5.09303L53.4471 5.2049C55.7662 5.27202 58.0928 5.30929 60.4119 5.39877C58.0928 5.48825 55.7662 5.52555 53.4471 5.59266L46.4748 5.70451C41.8291 5.76417 37.1834 5.76416 32.5451 5.79399C27.9069 5.82382 23.2537 5.79399 18.608 5.70451L11.6357 5.59266C9.3166 5.52555 6.98257 5.48825 4.6709 5.39877Z" fill="#9686D9"/>
<path d="M4.6709 7.97146C6.99002 7.88198 9.3166 7.84469 11.6357 7.77757L18.608 7.66572C23.2537 7.60607 27.8994 7.61353 32.5451 7.57624C37.1909 7.53896 41.8291 7.57624 46.4748 7.66572L53.4471 7.77757C55.7662 7.84469 58.0928 7.88198 60.4119 7.97146C58.0928 8.06095 55.7662 8.09824 53.4471 8.16535L46.4748 8.2772C41.8291 8.33686 37.1834 8.33685 32.5451 8.36668C27.9069 8.39651 23.2537 8.36669 18.608 8.2772L11.6357 8.16535C9.3166 8.09824 6.98257 8.06095 4.6709 7.97146Z" fill="#9686D9"/>
<path d="M4.6709 10.5442C6.99002 10.4547 9.3166 10.4174 11.6357 10.3503L18.608 10.2384C23.2537 10.1788 27.8994 10.1788 32.5451 10.1489C37.1909 10.1191 41.8291 10.149 46.4748 10.2384L53.4471 10.3503C55.7662 10.4174 58.0928 10.4547 60.4119 10.5442C58.0928 10.6337 55.7662 10.6709 53.4471 10.738L46.4748 10.8499C41.8291 10.9096 37.1834 10.9096 32.5451 10.9394C27.9069 10.9692 23.2537 10.9394 18.608 10.8499L11.6357 10.738C9.3166 10.6709 6.98257 10.6337 4.6709 10.5442Z" fill="#9686D9"/>
<path d="M4.6709 13.1168C6.99002 13.0273 9.3166 12.99 11.6357 12.9229L18.608 12.811C23.2537 12.7514 27.8994 12.7589 32.5451 12.7216C37.1909 12.6843 41.8291 12.7216 46.4748 12.811L53.4471 12.9229C55.7662 12.99 58.0928 13.0273 60.4119 13.1168C58.0928 13.2063 55.7662 13.2436 53.4471 13.3107L46.5046 13.4225C41.8589 13.4822 37.2132 13.4822 32.575 13.512C27.9367 13.5418 23.2836 13.512 18.6379 13.4225L11.6656 13.3107C9.31661 13.2436 6.98257 13.2063 4.6709 13.1168Z" fill="#9686D9"/>
<path d="M4.6709 15.6597C6.99002 15.5702 9.3166 15.5329 11.6357 15.4658L18.608 15.354C23.2537 15.2943 27.8994 15.3018 32.5451 15.2645C37.1909 15.2272 41.8291 15.2645 46.4748 15.354L53.4471 15.4658C55.7662 15.5329 58.0928 15.5702 60.4119 15.6597C58.0928 15.7492 55.7662 15.7865 53.4471 15.8536L46.4748 15.9654C41.8291 16.0251 37.1834 16.0251 32.5451 16.0549C27.9069 16.0847 23.2537 16.0549 18.608 15.9654L11.6357 15.8536C9.3166 15.8163 6.98257 15.779 4.6709 15.6597Z" fill="#9686D9"/>
<path d="M4.6709 18.2622C6.99002 18.1727 9.3166 18.1354 11.6357 18.0683L18.608 17.9564C23.2537 17.8968 27.8994 17.9042 32.5451 17.867C37.1909 17.8297 41.8291 17.8669 46.4748 17.9564L53.4471 18.0683C55.7662 18.1354 58.0928 18.1727 60.4119 18.2622C58.0928 18.3517 55.7662 18.3889 53.4471 18.4561L46.4748 18.5679C41.8291 18.6276 37.1834 18.6276 32.5451 18.6574C27.9069 18.6872 23.2537 18.6574 18.608 18.5679L11.6357 18.4561C9.3166 18.3889 6.98257 18.3517 4.6709 18.2622Z" fill="#9686D9"/>
<path d="M4.6709 20.8348C6.99002 20.7453 9.3166 20.708 11.6357 20.6409L18.608 20.5291C23.2537 20.4694 27.8994 20.4769 32.5451 20.4396C37.1909 20.4023 41.8291 20.4396 46.4748 20.5291L53.4471 20.6409C55.7662 20.708 58.0928 20.7453 60.4119 20.8348C58.0928 20.9243 55.7662 20.9616 53.4471 21.0287L46.4748 21.1405C41.8291 21.2002 37.1834 21.2002 32.5451 21.23C27.9069 21.2599 23.2537 21.23 18.608 21.1405L11.6357 21.0287C9.3166 20.9616 6.98257 20.9243 4.6709 20.8348Z" fill="#9686D9"/>
<path d="M4.6709 23.4075C6.99002 23.318 9.3166 23.2807 11.6357 23.2136L18.608 23.1018C23.2537 23.0421 27.8994 23.0421 32.5451 23.0123C37.1909 22.9825 41.8291 23.0123 46.4748 23.1018L53.4471 23.2136C55.7662 23.2807 58.0928 23.318 60.4119 23.4075C58.0928 23.497 55.7662 23.5343 53.4471 23.6014L46.4748 23.7132C41.8291 23.7729 37.1834 23.7729 32.5451 23.8027C27.9069 23.8326 23.2537 23.8027 18.608 23.7132L11.6357 23.6014C9.3166 23.5343 6.98257 23.497 4.6709 23.4075Z" fill="#9686D9"/>
<path d="M4.6709 25.9801C6.99002 25.8906 9.3166 25.8534 11.6357 25.7862L18.608 25.6744C23.2537 25.6147 27.8994 25.6222 32.5451 25.5849C37.1909 25.5476 41.8291 25.5849 46.4748 25.6744L53.4471 25.7862C55.7662 25.8534 58.0928 25.8906 60.4119 25.9801C58.0928 26.0696 55.7662 26.1069 53.4471 26.174L46.4748 26.2859C41.8291 26.3455 37.1834 26.3455 32.5451 26.3753C27.9069 26.4052 23.2537 26.3754 18.608 26.2859L11.6357 26.174C9.3166 26.0994 6.98257 26.0994 4.6709 25.9801Z" fill="#9686D9"/>
<path d="M4.6709 28.5528C6.99002 28.4633 9.3166 28.426 11.6357 28.3589L18.608 28.247C23.2537 28.1874 27.8994 28.1948 32.5451 28.1575C37.1909 28.1203 41.8291 28.1575 46.4748 28.247L53.4471 28.3589C55.7662 28.426 58.0928 28.4633 60.4119 28.5528C58.0928 28.6422 55.7662 28.6795 53.4471 28.7466L46.4748 28.8585C41.8291 28.9182 37.1834 28.9182 32.5451 28.948C27.9069 28.9778 23.2537 28.948 18.608 28.8585L11.6357 28.7466C9.3166 28.6795 6.98257 28.6422 4.6709 28.5528Z" fill="#9686D9"/>
<path d="M4.6709 31.1255C6.99002 31.036 9.3166 30.9987 11.6357 30.9316L18.608 30.8197C23.2537 30.7601 27.8994 30.7675 32.5451 30.7302C37.1909 30.6929 41.8291 30.7302 46.4748 30.8197L53.4471 30.9316C55.7662 30.9987 58.0928 31.036 60.4119 31.1255C58.0928 31.2149 55.7662 31.2522 53.4471 31.3193L46.4748 31.4312C41.8291 31.4908 37.1834 31.4908 32.5451 31.5207C27.9069 31.5505 23.2537 31.5207 18.608 31.4312L11.6357 31.3193C9.3166 31.2522 6.98257 31.2149 4.6709 31.1255Z" fill="#9686D9"/>
<path d="M4.6709 33.6981C6.99002 33.6086 9.3166 33.5713 11.6357 33.5042L18.608 33.3923C23.2537 33.3327 27.8994 33.3402 32.5451 33.3029C37.1909 33.2656 41.8291 33.3029 46.4748 33.3923L53.4471 33.5042C55.7662 33.5713 58.0928 33.6086 60.4119 33.6981C58.0928 33.7876 55.7662 33.8249 53.4471 33.892L46.4748 34.0038C41.8291 34.0635 37.1834 34.0635 32.5451 34.0933C27.9069 34.1231 23.2537 34.0933 18.608 34.0038L11.6357 33.892C9.3166 33.8249 6.98257 33.7876 4.6709 33.6981Z" fill="#9686D9"/>
<path d="M4.6709 36.2708C6.99002 36.1813 9.3166 36.144 11.6357 36.0769L18.608 35.9651C23.2537 35.9054 27.8994 35.9128 32.5451 35.8756C37.1909 35.8383 41.8291 35.8756 46.4748 35.9651L53.4471 36.0769C55.7662 36.144 58.0928 36.1813 60.4119 36.2708C58.0928 36.3603 55.7662 36.3976 53.4471 36.4647L46.4748 36.5765C41.8291 36.6362 37.1834 36.6362 32.5451 36.666C27.9069 36.6958 23.2537 36.666 18.608 36.5765L11.6357 36.4647C9.3166 36.3976 6.98257 36.3603 4.6709 36.2708Z" fill="#9686D9"/>
<path d="M4.6709 38.8435C6.99002 38.754 9.3166 38.7167 11.6357 38.6496L18.608 38.5377C23.2537 38.4781 27.8994 38.4855 32.5451 38.4483C37.1909 38.411 41.8291 38.4482 46.4748 38.5377L53.4471 38.6496C55.7662 38.7167 58.0928 38.754 60.4119 38.8435C58.0928 38.933 55.7662 38.9702 53.4471 39.0374L46.4748 39.1492C41.8291 39.2089 37.1834 39.2089 32.5451 39.2387C27.9069 39.2685 23.2537 39.2387 18.608 39.1492L11.6357 39.0374C9.3166 38.9702 6.98257 38.933 4.6709 38.8435Z" fill="#9686D9"/>
<path d="M4.6709 41.4161C6.99002 41.3266 9.3166 41.2893 11.6357 41.2222L18.608 41.1104C23.2537 41.0507 27.8994 41.0507 32.5451 41.0209C37.1909 40.9911 41.8291 41.0209 46.4748 41.1104L53.4471 41.2222C55.7662 41.2893 58.0928 41.3266 60.4119 41.4161C58.0928 41.5056 55.7662 41.5429 53.4471 41.61L46.5046 41.7591C41.8589 41.8188 37.2132 41.8188 32.575 41.8486C27.9367 41.8784 23.2836 41.8486 18.6379 41.7591L11.6656 41.6473C9.31661 41.5429 6.98257 41.5056 4.6709 41.4161Z" fill="#9686D9"/>
<path d="M4.6709 43.9962C6.99002 43.9068 9.3166 43.8695 11.6357 43.8024L18.608 43.6905C23.2537 43.6308 27.8994 43.6383 32.5451 43.601C37.1909 43.5637 41.8291 43.601 46.4748 43.6905L53.4471 43.8024C55.7662 43.8695 58.0928 43.9068 60.4119 43.9962C58.0928 44.0857 55.7662 44.123 53.4471 44.1901L46.4748 44.302C41.8291 44.3616 37.1834 44.3616 32.5451 44.3915C27.9069 44.4213 23.2537 44.3915 18.608 44.302L11.6357 44.1901C9.3166 44.1156 6.98257 44.0783 4.6709 43.9962Z" fill="#9686D9"/>
<path d="M4.6709 46.5614C6.99002 46.4719 9.3166 46.4347 11.6357 46.3675L18.608 46.2557C23.2537 46.196 27.8994 46.2035 32.5451 46.1662C37.1909 46.1289 41.8291 46.1662 46.4748 46.2557L53.4471 46.3675C55.7662 46.4347 58.0928 46.4719 60.4119 46.5614C58.0928 46.6509 55.7662 46.6882 53.4471 46.7553L46.4748 46.8672C41.8291 46.9268 37.1834 46.9268 32.5451 46.9566C27.9069 46.9865 23.2537 46.9567 18.608 46.8672L11.6357 46.7553C9.3166 46.6882 6.98257 46.6509 4.6709 46.5614Z" fill="#9686D9"/>
<path d="M4.6709 49.1341C6.99002 49.0446 9.3166 49.0073 11.6357 48.9402L18.608 48.8283C23.2537 48.7687 27.8994 48.7761 32.5451 48.7388C37.1909 48.7016 41.8291 48.7389 46.4748 48.8283L53.4471 48.9402C55.7662 49.0073 58.0928 49.0446 60.4119 49.1341C58.0928 49.2236 55.7662 49.2608 53.4471 49.3279L46.4748 49.4398C41.8291 49.4995 37.1834 49.4995 32.5451 49.5293C27.9069 49.5591 23.2537 49.5293 18.608 49.4398L11.6357 49.3279C9.3166 49.2608 6.98257 49.2161 4.6709 49.1341Z" fill="#9686D9"/>
<path d="M4.6709 51.7068C6.99002 51.6173 9.3166 51.58 11.6357 51.5129L18.608 51.401C23.2537 51.3414 27.8994 51.3488 32.5451 51.3115C37.1909 51.2742 41.8291 51.3115 46.4748 51.401L53.4471 51.5129C55.7662 51.58 58.0928 51.6173 60.4119 51.7068C58.0928 51.7962 55.7662 51.8335 53.4471 51.9006L46.4748 52.0125C41.8291 52.0721 37.1834 52.0721 32.5451 52.102C27.9069 52.1318 23.2537 52.102 18.608 52.0125L11.6357 51.9006C9.3166 51.8335 6.98257 51.7962 4.6709 51.7068Z" fill="#9686D9"/>
<path d="M4.6709 54.2795C6.99002 54.19 9.3166 54.1527 11.6357 54.0856L18.608 53.9737C23.2537 53.9141 27.8994 53.9141 32.5451 53.8842C37.1909 53.8544 41.8291 53.8842 46.4748 53.9737L53.4471 54.0856C55.7662 54.1527 58.0928 54.19 60.4119 54.2795C58.0928 54.3689 55.7662 54.4062 53.4471 54.4733L46.4748 54.5852C41.8291 54.6448 37.1834 54.6448 32.5451 54.6747C27.9069 54.7045 23.2537 54.6747 18.608 54.5852L11.6357 54.4733C9.3166 54.436 6.98257 54.3689 4.6709 54.2795Z" fill="#9686D9"/>
<path d="M4.6709 56.8521C6.99002 56.7626 9.3166 56.7253 11.6357 56.6582L18.608 56.5463C23.2537 56.4867 27.8994 56.4941 32.5451 56.4569C37.1909 56.4196 41.8291 56.4569 46.4748 56.5463L53.4471 56.6582C55.7662 56.7253 58.0928 56.7626 60.4119 56.8521C58.0928 56.9416 55.7662 56.9789 53.4471 57.046L46.4748 57.1578C41.8291 57.2175 37.1834 57.2175 32.5451 57.2473C27.9069 57.2771 23.2537 57.2473 18.608 57.1578L11.6357 57.046C9.3166 56.9789 6.98257 56.9416 4.6709 56.8521Z" fill="#9686D9"/>
<path d="M4.6709 59.4248C6.99002 59.3353 9.3166 59.298 11.6357 59.2309L18.608 59.119C23.2537 59.0594 27.8994 59.0668 32.5451 59.0296C37.1909 58.9923 41.8291 59.0295 46.4748 59.119L53.4471 59.2309C55.7662 59.298 58.0928 59.3353 60.4119 59.4248C58.0928 59.5143 55.7662 59.5515 53.4471 59.6187L46.4748 59.7305C41.8291 59.7902 37.1834 59.7902 32.5451 59.82C27.9069 59.8498 23.2537 59.82 18.608 59.7305L11.6357 59.6187C9.3166 59.5515 6.98257 59.5143 4.6709 59.4248Z" fill="#9686D9"/>
<path d="M4.6709 61.9974C6.99002 61.9079 9.3166 61.8706 11.6357 61.8035L18.608 61.6917C23.2537 61.632 27.8994 61.6395 32.5451 61.6022C37.1909 61.5649 41.8291 61.6022 46.4748 61.6917L53.4471 61.8035C55.7662 61.8706 58.0928 61.9079 60.4119 61.9974C58.0928 62.0869 55.7662 62.1242 53.4471 62.1913L46.4748 62.3031C41.8291 62.3628 37.1834 62.3628 32.5451 62.3926C27.9069 62.4225 23.2537 62.3926 18.608 62.3031L11.6357 62.1913C9.3166 62.1242 6.98257 62.0869 4.6709 61.9974Z" fill="#9686D9"/>
<path d="M4.6709 64.57C6.99002 64.4806 9.3166 64.4433 11.6357 64.3761L18.608 64.2643C23.2537 64.2046 27.8994 64.2121 32.5451 64.1748C37.1909 64.1375 41.8291 64.1748 46.4748 64.2643L53.4471 64.3761C55.7662 64.4433 58.0928 64.4806 60.4119 64.57C58.0928 64.6595 55.7662 64.6968 53.4471 64.7639L46.5046 64.8758C41.8589 64.9354 37.2132 64.9354 32.575 64.9653C27.9367 64.9951 23.2836 64.9653 18.6379 64.8758L11.6656 64.7639C9.31661 64.6968 6.98257 64.6595 4.6709 64.57Z" fill="#9686D9"/>
<path d="M4.6709 67.1129C6.99002 67.0235 9.3166 66.9862 11.6357 66.9191L18.608 66.8072C23.2537 66.7476 27.8994 66.7476 32.5451 66.7177C37.1909 66.6879 41.8291 66.7177 46.4748 66.8072L53.4471 66.9191C55.7662 66.9862 58.0928 67.0235 60.4119 67.1129C58.0928 67.2024 55.7662 67.2397 53.4471 67.3068L46.4748 67.4187C41.8291 67.4783 37.1834 67.4783 32.5451 67.5082C27.9069 67.538 23.2537 67.5082 18.608 67.4187L11.6357 67.3068C9.3166 67.2696 6.98257 67.2323 4.6709 67.1129Z" fill="#9686D9"/>
<path d="M4.6709 69.7154C6.99002 69.6259 9.3166 69.5887 11.6357 69.5216L18.608 69.4097C23.2537 69.35 27.8994 69.3575 32.5451 69.3202C37.1909 69.2829 41.8291 69.3202 46.4748 69.4097L53.4471 69.5216C55.7662 69.5887 58.0928 69.6259 60.4119 69.7154C58.0928 69.8049 55.7662 69.8422 53.4471 69.9093L46.4748 70.0212C41.8291 70.0808 37.1834 70.0808 32.5451 70.1106C27.9069 70.1405 23.2537 70.1106 18.608 70.0212L11.6357 69.9093C9.3166 69.8422 6.98257 69.8049 4.6709 69.7154Z" fill="#9686D9"/>
<path d="M4.6709 72.2881C6.99002 72.1986 9.3166 72.1613 11.6357 72.0942L18.608 71.9823C23.2537 71.9227 27.8994 71.9301 32.5451 71.8928C37.1909 71.8555 41.8291 71.8928 46.4748 71.9823L53.4471 72.0942C55.7662 72.1613 58.0928 72.1986 60.4119 72.2881C58.0928 72.3775 55.7662 72.4148 53.4471 72.4819L46.4748 72.5938C41.8291 72.6534 37.1834 72.6534 32.5451 72.6833C27.9069 72.7131 23.2537 72.6833 18.608 72.5938L11.6357 72.4819C9.3166 72.4148 6.98257 72.3775 4.6709 72.2881Z" fill="#9686D9"/>
<path d="M4.6709 74.8608C6.99002 74.7713 9.3166 74.734 11.6357 74.6669L18.608 74.555C23.2537 74.4954 27.8994 74.5028 32.5451 74.4655C37.1909 74.4282 41.8291 74.4655 46.4748 74.555L53.4471 74.6669C55.7662 74.734 58.0928 74.7713 60.4119 74.8608C58.0928 74.9502 55.7662 74.9875 53.4471 75.0546L46.4748 75.1665C41.8291 75.2261 37.1834 75.2262 32.5451 75.256C27.9069 75.2858 23.2537 75.256 18.608 75.1665L11.6357 75.0546C9.3166 74.9875 6.98257 74.9502 4.6709 74.8608Z" fill="#9686D9"/>
<path d="M4.6709 77.4334C6.99002 77.344 9.3166 77.3067 11.6357 77.2395L18.608 77.1277C23.2537 77.068 27.8994 77.0755 32.5451 77.0382C37.1909 77.0009 41.8291 77.0382 46.4748 77.1277L53.4471 77.2395C55.7662 77.3067 58.0928 77.344 60.4119 77.4334C58.0928 77.5229 55.7662 77.5602 53.4471 77.6273L46.4748 77.7392C41.8291 77.7988 37.1834 77.7988 32.5451 77.8287C27.9069 77.8585 23.2537 77.8287 18.608 77.7392L11.6357 77.6273C9.3166 77.5528 6.98257 77.5527 4.6709 77.4334Z" fill="#9686D9"/>
<path d="M4.6709 80.006C6.99002 79.9165 9.3166 79.8792 11.6357 79.8121L18.608 79.7003C23.2537 79.6406 27.8994 79.6406 32.5451 79.6108C37.1909 79.581 41.8291 79.6108 46.4748 79.7003L53.4471 79.8121C55.7662 79.8792 58.0928 79.9165 60.4119 80.006C58.0928 80.0955 55.7662 80.1328 53.4471 80.1999L46.4748 80.3118C41.8291 80.3714 37.1834 80.3714 32.5451 80.4012C27.9069 80.4311 23.2537 80.4012 18.608 80.3118L11.6357 80.1999C9.3166 80.1328 6.98257 80.0955 4.6709 80.006Z" fill="#9686D9"/>
<path d="M4.6709 82.5787C6.99002 82.4892 9.3166 82.4519 11.6357 82.3848L18.608 82.273C23.2537 82.2133 27.8994 82.2208 32.5451 82.1835C37.1909 82.1462 41.8291 82.1835 46.4748 82.273L53.4471 82.3848C55.7662 82.4519 58.0928 82.4892 60.4119 82.5787C58.0928 82.6682 55.7662 82.7055 53.4471 82.7726L46.4748 82.8844C41.8291 82.9441 37.1834 82.9441 32.5451 82.9739C27.9069 83.0037 23.2537 82.9739 18.608 82.8844L11.6357 82.7726C9.3166 82.7055 6.98257 82.6682 4.6709 82.5787Z" fill="#9686D9"/>
</g>
<path d="M32.7843 4.35493C40.6962 4.35493 46.5425 5.94328 50.174 9.07522C53.8056 12.2072 55.5803 16.8976 55.5803 23.1093V64.9355C55.5803 77.5528 48.1233 83.6899 32.7843 83.6899H32.3369C16.6772 83.6899 9.0636 77.5528 9.0636 64.9355V23.1167C9.0636 10.492 16.6772 4.36239 32.3369 4.36239H32.8067M32.3369 79.678C39.3688 79.678 42.9333 74.2344 42.9333 63.4889V24.5335C42.9333 19.0899 42.1354 15.1527 40.4874 12.4905C38.8394 9.82836 36.0132 8.34442 32.3369 8.34442C28.6606 8.34442 25.9835 9.73887 24.2386 12.483C22.4937 15.2272 21.733 19.0825 21.733 24.5335V63.5113C21.733 74.2568 25.2975 79.7004 32.3369 79.7004M32.8067 3.49738H32.3369C16.2497 3.49738 8.20605 10.0347 8.20605 23.1093V64.9355C8.20605 78.0101 16.2497 84.5474 32.3369 84.5474H32.8067C48.5708 84.5474 56.4553 78.0101 56.4603 64.9355V23.1167C56.4603 16.6142 54.5587 11.72 50.7557 8.4339C46.9526 5.14785 40.9696 3.50484 32.8067 3.50484V3.49738ZM32.3369 78.813C25.8344 78.813 22.5856 73.7025 22.5906 63.4814V24.5335C22.5906 19.3087 23.3835 15.446 24.9694 12.9454C26.5552 10.4448 29.0111 9.20196 32.3369 9.21688C35.7373 9.21688 38.2204 10.4622 39.7939 12.9454C41.3673 15.4286 42.1055 19.3062 42.1055 24.5335V63.5113C42.1055 73.7373 38.8593 78.8478 32.3667 78.8428L32.3369 78.813Z" fill="#161548"/>
<path d="M24.9467 12.9453C25.5578 11.9551 26.3851 11.116 27.3666 10.4909C28.348 9.8659 29.4583 9.47109 30.614 9.33612C30.0415 9.24835 29.4632 9.20349 28.884 9.2019C25.5482 9.2019 23.0899 10.4447 21.509 12.9304C19.9282 15.4161 19.1377 19.2838 19.1377 24.5335V63.5112C19.1377 73.7372 22.3865 78.8478 28.884 78.8428C29.4588 78.8395 30.0324 78.7896 30.5991 78.6936C25.245 77.8386 22.5679 72.7778 22.5679 63.5112V24.5335C22.5679 19.3086 23.3608 15.4459 24.9467 12.9453Z" fill="#161548"/>
<path d="M50.733 8.70227C46.93 5.42616 40.947 3.78809 32.784 3.78809H32.3366C31.9339 3.78809 31.5909 3.78809 31.1659 3.78809C38.4141 4.0118 43.8005 5.63992 47.3252 8.67243C51.1282 11.9436 53.0298 16.8179 53.0298 23.2956V64.9802C53.0298 77.5875 45.6349 84.0875 30.8452 84.4802C31.3374 84.4802 31.8221 84.5175 32.3366 84.5175H32.8064C48.5705 84.5175 56.455 78.0051 56.46 64.9802V23.2956C56.4451 16.8428 54.5361 11.9784 50.733 8.70227Z" fill="#161548"/>
</svg>
