<svg width="63" height="88" viewBox="0 0 63 88" fill="none" xmlns="http://www.w3.org/2000/svg">
<path d="M17.4746 88V73.0847H20.6142C21.5644 73.0678 22.5108 72.9605 23.4407 72.7641V22.9471C21.3189 23.1833 19.1809 23.2407 17.0495 23.1186H13V8.20339H17.0495C17.84 8.20339 18.6081 8.44949 19.3986 8.15118C20.1628 7.92542 20.8802 7.5642 21.5166 7.08475C22.1194 6.60826 22.6257 6.02101 23.0081 5.35457C23.3167 4.82005 23.4739 4.21166 23.463 3.59458V0H45.8136V72.8834C46.5593 72.8834 46.9919 73.8305 48.0508 73.8305H51.7797V88H17.4746Z" fill="white"/>
<path d="M20.6141 83.5776V76.6868C25.0489 76.6868 27.2688 76.3711 27.2737 75.7396V17.3763C25.0513 18.8678 21.6432 19.6135 17.0493 19.6135V12.842C18.3278 12.8277 19.5925 12.5748 20.7781 12.0963C21.9749 11.6418 23.081 10.9776 24.0446 10.1349C24.9896 9.31598 25.7759 8.33006 26.3639 7.22643C26.9659 6.09269 27.2736 4.82594 27.2588 3.54236H41.652V75.6874C41.652 76.3984 43.7899 76.7539 48.0656 76.7539V83.5254L20.6141 83.5776Z" fill="#6362D1"/>
<mask id="mask0_845_21140" style="mask-type:luminance" maskUnits="userSpaceOnUse" x="17" y="3" width="32" height="81">
<path d="M20.6141 83.5784V76.6876C25.0489 76.6876 27.2688 76.3719 27.2737 75.7404V17.3771C25.0513 18.8686 21.6432 19.6143 17.0493 19.6143V12.8428C18.3278 12.8285 19.5925 12.5756 20.7781 12.0971C21.9749 11.6426 23.081 10.9784 24.0446 10.1357C24.9896 9.31677 25.7759 8.33085 26.3639 7.22722C26.9659 6.09349 27.2736 4.82673 27.2588 3.54315H41.652V75.6882C41.652 76.3992 43.7899 76.7547 48.0656 76.7547V83.5262L20.6141 83.5784Z" fill="white"/>
</mask>
<g mask="url(#mask0_845_21140)">
<path d="M12.1196 3.72951L13.8573 3.6624C14.961 3.6624 16.5345 3.5729 18.4213 3.54307C20.3081 3.51324 22.5156 3.45358 24.8796 3.43866L32.2776 3.39392L39.6756 3.43866C42.0396 3.43866 44.2471 3.51324 46.1339 3.54307C48.0206 3.5729 49.5942 3.64002 50.6979 3.6624L52.4356 3.72951L50.6979 3.79663C49.5942 3.79663 48.0206 3.88612 46.1339 3.91595C44.2471 3.94578 42.0396 4.0129 39.6756 4.02036L32.2776 4.0651L24.8796 4.02036C22.5156 4.02036 20.3081 3.94578 18.4213 3.91595C16.5345 3.88612 14.961 3.819 13.8573 3.79663L12.1196 3.72951Z" fill="#9686D9"/>
<path d="M12.1196 6.33243L13.8573 6.2653C14.961 6.2653 16.5345 6.17582 18.4213 6.14599C20.3081 6.11616 22.5156 6.0565 24.8796 6.04158L32.2776 5.99683L39.6756 6.04158C42.0396 6.04158 44.2471 6.11616 46.1339 6.14599C48.0206 6.17582 49.5942 6.24293 50.6979 6.2653L52.4356 6.33243L50.6979 6.39954C49.5942 6.39954 48.0206 6.48904 46.1339 6.51887C44.2471 6.5487 42.0396 6.61582 39.6756 6.62328L32.2776 6.66802L24.8796 6.62328C22.5156 6.62328 20.3081 6.5487 18.4213 6.51887C16.5345 6.48904 14.961 6.42192 13.8573 6.39954L12.1196 6.33243Z" fill="#9686D9"/>
<path d="M12.1196 8.90542L13.8573 8.8383C14.961 8.8383 16.5345 8.74881 18.4213 8.71897C20.3081 8.68914 22.5156 8.62948 24.8796 8.61457L32.2776 8.56982L39.6756 8.61457C42.0396 8.61457 44.2471 8.68914 46.1339 8.71897C48.0206 8.74881 49.5942 8.81593 50.6979 8.8383L52.4356 8.90542L50.6979 8.97253C49.5942 8.97253 48.0206 9.06203 46.1339 9.09186C44.2471 9.12169 42.0396 9.1888 39.6756 9.19626L32.2776 9.24101L24.8796 9.19626C22.5156 9.19626 20.3081 9.12169 18.4213 9.09186C16.5345 9.06203 14.961 8.9949 13.8573 8.97253L12.1196 8.90542Z" fill="#9686D9"/>
<path d="M12.1196 11.4785L13.8573 11.4114C14.961 11.4114 16.5345 11.3219 18.4213 11.292C20.3081 11.2622 22.5156 11.2025 24.8796 11.1876L32.2776 11.1429L39.6756 11.1876C42.0396 11.1876 44.2471 11.2622 46.1339 11.292C48.0206 11.3219 49.5942 11.389 50.6979 11.4114L52.4356 11.4785L50.6979 11.5456C49.5942 11.5456 48.0206 11.6351 46.1339 11.6649C44.2471 11.6947 42.0396 11.7619 39.6756 11.7693L32.2776 11.8141L24.8796 11.7693C22.5156 11.7693 20.3081 11.6947 18.4213 11.6649C16.5345 11.6351 14.961 11.568 13.8573 11.5456L12.1196 11.4785Z" fill="#9686D9"/>
<path d="M12.1196 14.0515L13.8573 13.9844C14.961 13.9844 16.5345 13.8949 18.4213 13.865C20.3081 13.8352 22.5156 13.7755 24.8796 13.7606L32.2776 13.7159L39.6756 13.7606C42.0396 13.7606 44.2471 13.8352 46.1339 13.865C48.0206 13.8949 49.5942 13.962 50.6979 13.9844L52.4356 14.0515L50.6979 14.1186C49.5942 14.1186 48.0206 14.2081 46.1339 14.2379C44.2471 14.2677 42.0396 14.3349 39.6756 14.3423L32.2776 14.3871L24.8796 14.3423C22.5156 14.3423 20.3081 14.2677 18.4213 14.2379C16.5345 14.2081 14.961 14.141 13.8573 14.1186L12.1196 14.0515Z" fill="#9686D9"/>
<path d="M12.1196 16.6238L13.8573 16.5567C14.961 16.5567 16.5345 16.4672 18.4213 16.4374C20.3081 16.4075 22.5156 16.3479 24.8796 16.333L32.2776 16.2882L39.6756 16.333C42.0396 16.333 44.2471 16.4075 46.1339 16.4374C48.0206 16.4672 49.5942 16.5343 50.6979 16.5567L52.4356 16.6238L50.6979 16.6909C49.5942 16.6909 48.0206 16.7804 46.1339 16.8102C44.2471 16.8401 42.0396 16.9072 39.6756 16.9146L32.2776 16.9594L24.8796 16.9146C22.5156 16.9146 20.3081 16.8401 18.4213 16.8102C16.5345 16.7804 14.961 16.7133 13.8573 16.6909L12.1196 16.6238Z" fill="#9686D9"/>
<path d="M12.1196 19.1968L13.8573 19.1297C14.961 19.1297 16.5345 19.0402 18.4213 19.0104C20.3081 18.9805 22.5156 18.9209 24.8796 18.906L32.2776 18.8612L39.6756 18.906C42.0396 18.906 44.2471 18.9805 46.1339 19.0104C48.0206 19.0402 49.5942 19.1073 50.6979 19.1297L52.4356 19.1968L50.6979 19.2639C49.5942 19.2639 48.0206 19.3534 46.1339 19.3832C44.2471 19.4131 42.0396 19.4802 39.6756 19.4877L32.2776 19.5324L24.8796 19.4877C22.5156 19.4877 20.3081 19.4131 18.4213 19.3832C16.5345 19.3534 14.961 19.2863 13.8573 19.2639L12.1196 19.1968Z" fill="#9686D9"/>
<path d="M12.1196 21.7699L13.8573 21.7027C14.961 21.7027 16.5345 21.6132 18.4213 21.5834C20.3081 21.5536 22.5156 21.4939 24.8796 21.479L32.2776 21.4343L39.6756 21.479C42.0396 21.479 44.2471 21.5536 46.1339 21.5834C48.0206 21.6132 49.5942 21.6804 50.6979 21.7027L52.4356 21.7699L50.6979 21.837C49.5942 21.837 48.0206 21.9265 46.1339 21.9563C44.2471 21.9861 42.0396 22.0532 39.6756 22.0607L32.2776 22.1054L24.8796 22.0607C22.5156 22.0607 20.3081 21.9861 18.4213 21.9563C16.5345 21.9265 14.961 21.8593 13.8573 21.837L12.1196 21.7699Z" fill="#9686D9"/>
<path d="M12.1196 24.3429L13.8573 24.2757C14.961 24.2757 16.5345 24.1862 18.4213 24.1564C20.3081 24.1266 22.5156 24.0669 24.8796 24.052L32.2776 24.0073L39.6756 24.052C42.0396 24.052 44.2471 24.1266 46.1339 24.1564C48.0206 24.1862 49.5942 24.2534 50.6979 24.2757L52.4356 24.3429L50.6979 24.41C49.5942 24.41 48.0206 24.4995 46.1339 24.5293C44.2471 24.5591 42.0396 24.6262 39.6756 24.6337L32.2776 24.6784L24.8796 24.6113C22.5156 24.6113 20.3081 24.5368 18.4213 24.5069C16.5345 24.4771 14.961 24.41 13.8573 24.3876L12.1196 24.3429Z" fill="#9686D9"/>
<path d="M12.1196 26.9159L13.8573 26.8488C14.961 26.8488 16.5345 26.7593 18.4213 26.7295C20.3081 26.6996 22.5156 26.64 24.8796 26.6251L32.2776 26.5803L39.6756 26.6251C42.0396 26.6251 44.2471 26.6996 46.1339 26.7295C48.0206 26.7593 49.5942 26.8264 50.6979 26.8488L52.4356 26.9159L50.6979 26.983C49.5942 26.983 48.0206 27.0725 46.1339 27.1024C44.2471 27.1322 42.0396 27.1993 39.6756 27.2068L32.2776 27.2515L24.8796 27.2068C22.5156 27.2068 20.3081 27.1322 18.4213 27.1024C16.5345 27.0725 14.961 27.0054 13.8573 26.983L12.1196 26.9159Z" fill="#9686D9"/>
<path d="M12.1196 29.4882L13.8573 29.4211C14.961 29.4211 16.5345 29.3316 18.4213 29.3017C20.3081 29.2719 22.5156 29.2122 24.8796 29.1973L32.2776 29.1526L39.6756 29.1973C42.0396 29.1973 44.2471 29.2719 46.1339 29.3017C48.0206 29.3316 49.5942 29.3987 50.6979 29.4211L52.4356 29.4882L50.6979 29.5553C49.5942 29.5553 48.0206 29.6448 46.1339 29.6746C44.2471 29.7045 42.0396 29.7716 39.6756 29.779L32.2776 29.8238L24.8796 29.779C22.5156 29.779 20.3081 29.7045 18.4213 29.6746C16.5345 29.6448 14.961 29.5777 13.8573 29.5553L12.1196 29.4882Z" fill="#9686D9"/>
<path d="M12.1196 32.0685L13.8573 32.0014C14.961 32.0014 16.5345 31.9119 18.4213 31.8821C20.3081 31.8522 22.5156 31.7926 24.8796 31.7777L32.2776 31.7329L39.6756 31.7777C42.0396 31.7777 44.2471 31.8522 46.1339 31.8821C48.0206 31.9119 49.5942 31.979 50.6979 32.0014L52.4356 32.0685L50.6979 32.1356C49.5942 32.1356 48.0206 32.2251 46.1339 32.2549C44.2471 32.2848 42.0396 32.3519 39.6756 32.3593L32.2776 32.4041L24.8796 32.3593C22.5156 32.3593 20.3081 32.2848 18.4213 32.2549C16.5345 32.2251 14.961 32.158 13.8573 32.1356L12.1196 32.0685Z" fill="#9686D9"/>
<path d="M12.1196 34.6342L13.8573 34.5671C14.961 34.5671 16.5345 34.4776 18.4213 34.4478C20.3081 34.418 22.5156 34.3583 24.8796 34.3434L32.2776 34.2986L39.6756 34.3434C42.0396 34.3434 44.2471 34.418 46.1339 34.4478C48.0206 34.4776 49.5942 34.5447 50.6979 34.5671L52.4356 34.6342L50.6979 34.7014C49.5942 34.7014 48.0206 34.7908 46.1339 34.8207C44.2471 34.8505 42.0396 34.9176 39.6756 34.9251L32.2776 34.9698L24.8796 34.9251C22.5156 34.9251 20.3081 34.8505 18.4213 34.8207C16.5345 34.7908 14.961 34.7237 13.8573 34.7014L12.1196 34.6342Z" fill="#9686D9"/>
<path d="M12.1196 37.2073L13.8573 37.1402C14.961 37.1402 16.5345 37.0507 18.4213 37.0209C20.3081 36.991 22.5156 36.9314 24.8796 36.9164L32.2776 36.8717L39.6756 36.9164C42.0396 36.9164 44.2471 36.991 46.1339 37.0209C48.0206 37.0507 49.5942 37.1178 50.6979 37.1402L52.4356 37.2073L50.6979 37.2744C49.5942 37.2744 48.0206 37.3639 46.1339 37.3937C44.2471 37.4236 42.0396 37.4907 39.6756 37.4981L32.2776 37.5429L24.8796 37.4981C22.5156 37.4981 20.3081 37.4236 18.4213 37.3937C16.5345 37.3639 14.961 37.2968 13.8573 37.2744L12.1196 37.2073Z" fill="#9686D9"/>
<path d="M12.1196 39.7803L13.8573 39.7132C14.961 39.7132 16.5345 39.6237 18.4213 39.5939C20.3081 39.564 22.5156 39.5044 24.8796 39.4894L32.2776 39.4447L39.6756 39.4894C42.0396 39.4894 44.2471 39.564 46.1339 39.5939C48.0206 39.6237 49.5942 39.6908 50.6979 39.7132L52.4356 39.7803L50.6979 39.8474C49.5942 39.8474 48.0206 39.9369 46.1339 39.9667C44.2471 39.9966 42.0396 40.0637 39.6756 40.0711L32.2776 40.1159L24.8796 40.0711C22.5156 40.0711 20.3081 39.9966 18.4213 39.9667C16.5345 39.9369 14.961 39.8698 13.8573 39.8474L12.1196 39.7803Z" fill="#9686D9"/>
<path d="M12.1196 42.3526L13.8573 42.2855C14.961 42.2855 16.5345 42.196 18.4213 42.1662C20.3081 42.1363 22.5156 42.0767 24.8796 42.0618L32.2776 42.017L39.6756 42.0618C42.0396 42.0618 44.2471 42.1363 46.1339 42.1662C48.0206 42.196 49.5942 42.2631 50.6979 42.2855L52.4356 42.3526L50.6979 42.4197C49.5942 42.4197 48.0206 42.5092 46.1339 42.5391C44.2471 42.5689 42.0396 42.636 39.6756 42.6435L32.2776 42.6882L24.8796 42.6435C22.5156 42.6435 20.3081 42.5689 18.4213 42.5391C16.5345 42.5092 14.961 42.4421 13.8573 42.4197L12.1196 42.3526Z" fill="#9686D9"/>
<path d="M12.1196 44.9256L13.8573 44.8585C14.961 44.8585 16.5345 44.769 18.4213 44.7392C20.3081 44.7094 22.5156 44.6497 24.8796 44.6348L32.2776 44.59L39.6756 44.6348C42.0396 44.6348 44.2471 44.7094 46.1339 44.7392C48.0206 44.769 49.5942 44.8361 50.6979 44.8585L52.4356 44.9256L50.6979 44.9927C49.5942 44.9927 48.0206 45.0822 46.1339 45.1121C44.2471 45.1419 42.0396 45.209 39.6756 45.2165L32.2776 45.2612L24.8796 45.2165C22.5156 45.2165 20.3081 45.1419 18.4213 45.1121C16.5345 45.0822 14.961 45.0151 13.8573 44.9927L12.1196 44.9256Z" fill="#9686D9"/>
<path d="M12.1196 47.4987L13.8573 47.4316C14.961 47.4316 16.5345 47.3421 18.4213 47.3122C20.3081 47.2824 22.5156 47.2227 24.8796 47.2078L32.2776 47.1631L39.6756 47.2078C42.0396 47.2078 44.2471 47.2824 46.1339 47.3122C48.0206 47.3421 49.5942 47.4092 50.6979 47.4316L52.4356 47.4987L50.6979 47.5658C49.5942 47.5658 48.0206 47.6553 46.1339 47.6851C44.2471 47.7149 42.0396 47.7821 39.6756 47.7895L32.2776 47.8343L24.8796 47.7895C22.5156 47.7895 20.3081 47.7149 18.4213 47.6851C16.5345 47.6553 14.961 47.5882 13.8573 47.5658L12.1196 47.4987Z" fill="#9686D9"/>
<path d="M12.1196 50.0717L13.8573 50.0046C14.961 50.0046 16.5345 49.9151 18.4213 49.8852C20.3081 49.8554 22.5156 49.7957 24.8796 49.7808L32.2776 49.7361L39.6756 49.7808C42.0396 49.7808 44.2471 49.8554 46.1339 49.8852C48.0206 49.9151 49.5942 49.9822 50.6979 50.0046L52.4356 50.0717L50.6979 50.1388C49.5942 50.1388 48.0206 50.2283 46.1339 50.2581C44.2471 50.2879 42.0396 50.3551 39.6756 50.3625L32.2776 50.4073L24.8796 50.3625C22.5156 50.3625 20.3081 50.2879 18.4213 50.2581C16.5345 50.2283 14.961 50.1612 13.8573 50.1388L12.1196 50.0717Z" fill="#9686D9"/>
<path d="M12.1196 52.6447L13.8573 52.5776C14.961 52.5776 16.5345 52.4881 18.4213 52.4583C20.3081 52.4285 22.5156 52.3688 24.8796 52.3539L32.2776 52.3091L39.6756 52.3539C42.0396 52.3539 44.2471 52.4285 46.1339 52.4583C48.0206 52.4881 49.5942 52.5552 50.6979 52.5776L52.4356 52.6447L50.6979 52.7118C49.5942 52.7118 48.0206 52.8013 46.1339 52.8312C44.2471 52.861 42.0396 52.9281 39.6756 52.9356L32.2776 52.9803L24.8796 52.9505C22.5156 52.9505 20.3081 52.8759 18.4213 52.8461C16.5345 52.8163 14.961 52.7491 13.8573 52.7268L12.1196 52.6447Z" fill="#9686D9"/>
<path d="M12.1196 55.1872L13.8573 55.12C14.961 55.12 16.5345 55.0305 18.4213 55.0007C20.3081 54.9709 22.5156 54.9112 24.8796 54.8963L32.2776 54.8516L39.6756 54.8963C42.0396 54.8963 44.2471 54.9709 46.1339 55.0007C48.0206 55.0305 49.5942 55.0977 50.6979 55.12L52.4356 55.1872L50.6979 55.2543C49.5942 55.2543 48.0206 55.3438 46.1339 55.3736C44.2471 55.4034 42.0396 55.4705 39.6756 55.478L32.2776 55.5227L24.8796 55.478C22.5156 55.478 20.3081 55.4034 18.4213 55.3736C16.5345 55.3438 14.961 55.2766 13.8573 55.2543L12.1196 55.1872Z" fill="#9686D9"/>
<path d="M12.1196 57.7901L13.8573 57.7229C14.961 57.7229 16.5345 57.6335 18.4213 57.6036C20.3081 57.5738 22.5156 57.5141 24.8796 57.4992L32.2776 57.4545L39.6756 57.4992C42.0396 57.4992 44.2471 57.5738 46.1339 57.6036C48.0206 57.6335 49.5942 57.7006 50.6979 57.7229L52.4356 57.7901L50.6979 57.8572C49.5942 57.8572 48.0206 57.9467 46.1339 57.9765C44.2471 58.0063 42.0396 58.0735 39.6756 58.0809L32.2776 58.1257L24.8796 58.0809C22.5156 58.0809 20.3081 58.0063 18.4213 57.9765C16.5345 57.9467 14.961 57.8796 13.8573 57.8572L12.1196 57.7901Z" fill="#9686D9"/>
<path d="M12.1196 60.3631L13.8573 60.2959C14.961 60.2959 16.5345 60.2064 18.4213 60.1766C20.3081 60.1468 22.5156 60.0871 24.8796 60.0722L32.2776 60.0275L39.6756 60.0722C42.0396 60.0722 44.2471 60.1468 46.1339 60.1766C48.0206 60.2064 49.5942 60.2736 50.6979 60.2959L52.4356 60.3631L50.6979 60.4302C49.5942 60.4302 48.0206 60.5197 46.1339 60.5495C44.2471 60.5793 42.0396 60.6464 39.6756 60.6539L32.2776 60.6986L24.8796 60.6539C22.5156 60.6539 20.3081 60.5793 18.4213 60.5495C16.5345 60.5197 14.961 60.4525 13.8573 60.4302L12.1196 60.3631Z" fill="#9686D9"/>
<path d="M12.1196 62.9361L13.8573 62.869C14.961 62.869 16.5345 62.7795 18.4213 62.7497C20.3081 62.7198 22.5156 62.6602 24.8796 62.6453L32.2776 62.6005L39.6756 62.6453C42.0396 62.6453 44.2471 62.7198 46.1339 62.7497C48.0206 62.7795 49.5942 62.8466 50.6979 62.869L52.4356 62.9361L50.6979 63.0032C49.5942 63.0032 48.0206 63.0927 46.1339 63.1226C44.2471 63.1524 42.0396 63.2195 39.6756 63.227L32.2776 63.2717L24.8796 63.227C22.5156 63.227 20.3081 63.1524 18.4213 63.1226C16.5345 63.0927 14.961 63.0256 13.8573 63.0032L12.1196 62.9361Z" fill="#9686D9"/>
<path d="M12.1196 65.5091L13.8573 65.442C14.961 65.442 16.5345 65.3525 18.4213 65.3227C20.3081 65.2928 22.5156 65.2332 24.8796 65.2183L32.2776 65.1735L39.6756 65.2183C42.0396 65.2183 44.2471 65.2928 46.1339 65.3227C48.0206 65.3525 49.5942 65.4196 50.6979 65.442L52.4356 65.5091L50.6979 65.5762C49.5942 65.5762 48.0206 65.6657 46.1339 65.6956C44.2471 65.7254 42.0396 65.7925 39.6756 65.8L32.2776 65.8447L24.8796 65.8C22.5156 65.8 20.3081 65.7254 18.4213 65.6956C16.5345 65.6657 14.961 65.5986 13.8573 65.5762L12.1196 65.5091Z" fill="#9686D9"/>
<path d="M12.1196 68.0815L13.8573 68.0143C14.961 68.0143 16.5345 67.9248 18.4213 67.895C20.3081 67.8652 22.5156 67.8055 24.8796 67.7906L32.2776 67.7458L39.6756 67.7906C42.0396 67.7906 44.2471 67.8652 46.1339 67.895C48.0206 67.9248 49.5942 67.992 50.6979 68.0143L52.4356 68.0815L50.6979 68.1486C49.5942 68.1486 48.0206 68.2381 46.1339 68.2679C44.2471 68.2977 42.0396 68.3648 39.6756 68.3723L32.2776 68.417L24.8796 68.3723C22.5156 68.3723 20.3081 68.2977 18.4213 68.2679C16.5345 68.2381 14.961 68.1709 13.8573 68.1486L12.1196 68.0815Z" fill="#9686D9"/>
<path d="M12.1196 70.6544L13.8573 70.5873C14.961 70.5873 16.5345 70.4978 18.4213 70.468C20.3081 70.4382 22.5156 70.3785 24.8796 70.3636L32.2776 70.3188L39.6756 70.3636C42.0396 70.3636 44.2471 70.4382 46.1339 70.468C48.0206 70.4978 49.5942 70.5649 50.6979 70.5873L52.4356 70.6544L50.6979 70.7215C49.5942 70.7215 48.0206 70.811 46.1339 70.8409C44.2471 70.8707 42.0396 70.9378 39.6756 70.9453L32.2776 70.99L24.8796 70.9453C22.5156 70.9453 20.3081 70.8707 18.4213 70.8409C16.5345 70.811 14.961 70.7439 13.8573 70.7215L12.1196 70.6544Z" fill="#9686D9"/>
<path d="M12.1196 73.2275L13.8573 73.1604C14.961 73.1604 16.5345 73.0709 18.4213 73.0411C20.3081 73.0112 22.5156 72.9516 24.8796 72.9367L32.2776 72.8919L39.6756 72.9367C42.0396 72.9367 44.2471 73.0112 46.1339 73.0411C48.0206 73.0709 49.5942 73.138 50.6979 73.1604L52.4356 73.2275L50.6979 73.2946C49.5942 73.2946 48.0206 73.3841 46.1339 73.4139C44.2471 73.4438 42.0396 73.5109 39.6756 73.5183L32.2776 73.5631L24.8796 73.5183C22.5156 73.5183 20.3081 73.4438 18.4213 73.4139C16.5345 73.3841 14.961 73.317 13.8573 73.2946L12.1196 73.2275Z" fill="#9686D9"/>
<path d="M12.1196 75.8005L13.8573 75.7334C14.961 75.7334 16.5345 75.6439 18.4213 75.6141C20.3081 75.5842 22.5156 75.5246 24.8796 75.5096L32.2776 75.4649L39.6756 75.5096C42.0396 75.5096 44.2471 75.5842 46.1339 75.6141C48.0206 75.6439 49.5942 75.711 50.6979 75.7334L52.4356 75.8005L50.6979 75.8676C49.5942 75.8676 48.0206 75.9571 46.1339 75.9869C44.2471 76.0168 42.0396 76.0839 39.6756 76.0913L32.2776 76.1361L24.8796 76.069C22.5156 76.069 20.3081 75.9944 18.4213 75.9646C16.5345 75.9347 14.961 75.8676 13.8573 75.8453L12.1196 75.8005Z" fill="#9686D9"/>
<path d="M12.1196 78.3735L13.8573 78.3064C14.961 78.3064 16.5345 78.2169 18.4213 78.1871C20.3081 78.1573 22.5156 78.0976 24.8796 78.0827L32.2776 78.038L39.6756 78.0827C42.0396 78.0827 44.2471 78.1573 46.1339 78.1871C48.0206 78.2169 49.5942 78.2841 50.6979 78.3064L52.4356 78.3735L50.6979 78.4407C49.5942 78.4407 48.0206 78.5302 46.1339 78.56C44.2471 78.5898 42.0396 78.6569 39.6756 78.6644L32.2776 78.7091L24.8796 78.6644C22.5156 78.6644 20.3081 78.5898 18.4213 78.56C16.5345 78.5302 14.961 78.463 13.8573 78.4407L12.1196 78.3735Z" fill="#9686D9"/>
<path d="M12.1196 80.9458L13.8573 80.8787C14.961 80.8787 16.5345 80.7892 18.4213 80.7594C20.3081 80.7296 22.5156 80.6699 24.8796 80.655L32.2776 80.6102L39.6756 80.655C42.0396 80.655 44.2471 80.7296 46.1339 80.7594C48.0206 80.7892 49.5942 80.8563 50.6979 80.8787L52.4356 80.9458L50.6979 81.0129C49.5942 81.0129 48.0206 81.1024 46.1339 81.1323C44.2471 81.1621 42.0396 81.2292 39.6756 81.2367L32.2776 81.2814L24.8796 81.2367C22.5156 81.2367 20.3081 81.1621 18.4213 81.1323C16.5345 81.1024 14.961 81.0353 13.8573 81.0129L12.1196 80.9458Z" fill="#9686D9"/>
<path d="M12.1196 83.5262L13.8573 83.459C14.961 83.459 16.5345 83.3695 18.4213 83.3397C20.3081 83.3099 22.5156 83.2502 24.8796 83.2353L32.2776 83.1906L39.6756 83.2353C42.0396 83.2353 44.2471 83.3099 46.1339 83.3397C48.0206 83.3695 49.5942 83.4367 50.6979 83.459L52.4356 83.5262L50.6979 83.5933C49.5942 83.5933 48.0206 83.6828 46.1339 83.7126C44.2471 83.7424 42.0396 83.8096 39.6756 83.817L32.2776 83.8618L24.8796 83.817C22.5156 83.817 20.3081 83.7424 18.4213 83.7126C16.5345 83.6828 14.961 83.6156 13.8573 83.5933L12.1196 83.5262Z" fill="#9686D9"/>
</g>
<path d="M40.7946 4.47478V75.7622C40.7946 77.1046 42.495 77.6266 47.2082 77.6789V82.7426H21.4719V77.5595C27.0726 77.4999 28.1241 76.8958 28.1241 75.7548V15.7582L26.7892 16.668C24.8651 17.9805 21.8746 18.6816 17.9072 18.7711V13.685C19.0025 13.5977 20.0785 13.3463 21.099 12.9392C22.3904 12.4498 23.5847 11.7352 24.6265 10.8287C25.6573 9.9419 26.519 8.87563 27.1695 7.68156C27.6865 6.68465 27.9984 5.59425 28.0868 4.47478H40.7648M41.6224 3.61716H27.2665C27.2836 4.9001 26.9785 6.16681 26.379 7.30122C25.791 8.40485 25.0048 9.39078 24.0597 10.2097C23.0961 11.0524 21.99 11.7166 20.7933 12.1711C19.6076 12.6496 18.343 12.9025 17.0645 12.9168V19.6883C21.6584 19.6883 25.064 18.9426 27.2814 17.451V75.8144C27.2814 76.4508 25.064 76.7665 20.6292 76.7616V83.6524H48.0509V76.8138C43.7802 76.8138 41.6423 76.4583 41.6373 75.7473V3.59479L41.6224 3.61716Z" fill="#161548"/>
<path d="M41.6522 75.7399V4.07953L38.2217 3.59479V75.7399C38.2217 76.4508 40.3595 76.8063 44.6352 76.8063V82.7202H47.2081V76.8138C42.9349 76.8138 41.6522 76.4483 41.6522 75.7399Z" fill="#161548"/>
</svg>
