<svg width="63" height="88" viewBox="0 0 63 88" fill="none" xmlns="http://www.w3.org/2000/svg">
<path d="M5 88V64.4528C5 57.4662 6.65531 51.3744 10.294 46.3264C13.9327 41.2784 19.4877 37.6696 26.7875 35.8875C30.7021 34.948 33.4982 33.6506 35.1461 32.0475C36.5329 30.7128 37.2115 28.4759 37.2115 25.3815C37.2115 20.9077 36.4658 17.5448 34.9746 15.6882C34.5197 15.0992 33.103 13.3096 28.4652 13.3096C26.199 13.2446 23.9537 13.7578 21.9409 14.8009C20.1812 15.7553 18.5482 17.5225 17.1017 20.0204L13.7761 25.799L5.29826 11.289L7.23691 9.18626C10.3025 5.86371 14.1459 3.35524 18.4215 1.88648C22.6329 0.525257 27.0458 -0.107663 31.4701 0.014935H32.2157C40.9471 0.014935 47.5982 2.17727 52.0496 6.67346C56.5011 11.1696 58.7604 17.858 58.7604 27.0144V27.3723C58.7604 36.1186 54.3909 47.3703 36.2645 51.4638C29.4196 52.9551 25.9524 56.907 25.9524 64.2142V74.5785H43.281C43.5867 73.0873 44.0266 70.3433 44.5262 65.4669L44.8915 61.9027H57.4108L59.4464 88H5Z" fill="white"/>
<path d="M8.48975 83.5784V64.4529C8.48975 58.274 10.073 52.985 13.2395 48.5857C16.4059 44.1865 21.2004 41.2039 27.6228 39.6381C32.2159 38.5246 35.6011 36.919 37.7783 34.8213C39.9556 32.7236 41.0467 29.572 41.0517 25.3666C41.0517 19.8986 40.0426 15.8796 38.0244 13.3097C36.0062 10.7397 32.8223 9.45225 28.4728 9.44728C25.5633 9.38465 22.6853 10.0593 20.1068 11.4083C17.7008 12.7157 15.5857 14.9526 13.7614 18.119L10.0779 11.8184C12.6994 8.88459 16.0029 6.64132 19.6967 5.28664C23.4757 3.98346 27.4507 3.34029 31.4479 3.38526H32.1935C39.8686 3.46977 45.5653 5.39102 49.2835 9.14903C53.0017 12.907 54.8609 18.8721 54.8609 27.0443V27.4022C54.7863 38.0946 48.4335 44.8675 35.8024 47.7208C27.1978 49.6048 22.8954 55.1026 22.8954 64.2143V77.8743H45.7268C46.5918 77.8743 47.4592 73.7162 48.3291 65.3998H53.7946L55.2188 83.5784H8.48975Z" fill="#6362D1"/>
<mask id="mask0_845_21141" style="mask-type:luminance" maskUnits="userSpaceOnUse" x="8" y="3" width="48" height="81">
<path d="M8.48975 83.5784V64.4529C8.48975 58.274 10.073 52.985 13.2395 48.5857C16.4059 44.1865 21.2004 41.2039 27.6228 39.6381C32.2159 38.5246 35.6011 36.919 37.7783 34.8213C39.9556 32.7236 41.0467 29.572 41.0517 25.3666C41.0517 19.8986 40.0426 15.8796 38.0244 13.3097C36.0062 10.7397 32.8223 9.45225 28.4728 9.44728C25.5633 9.38465 22.6853 10.0593 20.1068 11.4083C17.7008 12.7157 15.5857 14.9526 13.7614 18.119L10.0779 11.8184C12.6994 8.88459 16.0029 6.64132 19.6967 5.28664C23.4757 3.98346 27.4507 3.34029 31.4479 3.38526H32.1935C39.8686 3.46977 45.5653 5.39102 49.2835 9.14903C53.0017 12.907 54.8609 18.8721 54.8609 27.0443V27.4022C54.7863 38.0946 48.4335 44.8675 35.8024 47.7208C27.1978 49.6048 22.8954 55.1026 22.8954 64.2143V77.8743H45.7268C46.5918 77.8743 47.4592 73.7162 48.3291 65.3998H53.7946L55.2188 83.5784H8.48975Z" fill="white"/>
</mask>
<g mask="url(#mask0_845_21141)">
<path d="M3.82178 4.63078L6.20782 4.55621C7.69909 4.55621 9.936 4.44437 12.5159 4.40709C15.0958 4.36981 18.1753 4.3027 21.4635 4.28778L31.6862 4.2356L41.9089 4.28778C45.1673 4.28778 48.217 4.37726 50.8565 4.40709C53.4961 4.43691 55.636 4.51893 57.1646 4.55621L59.5506 4.63078L57.1646 4.70534C55.6733 4.74262 53.4364 4.81719 50.8565 4.85448C48.2766 4.89176 45.1971 4.95886 41.9089 4.97377L31.6862 5.02597L21.4039 4.97377C18.1454 4.97377 15.0958 4.8843 12.4562 4.85448C9.81669 4.82465 7.67672 4.74262 6.14816 4.70534L3.82178 4.63078Z" fill="#9686D9"/>
<path d="M3.82178 7.20335L6.20782 7.12878C7.69909 7.12878 9.936 7.01694 12.5159 6.97966C15.0958 6.94238 18.1753 6.87527 21.4635 6.86036L31.6862 6.80817L41.9089 6.86036C45.1673 6.86036 48.217 6.94983 50.8565 6.97966C53.4961 7.00949 55.636 7.0915 57.1646 7.12878L59.5506 7.20335L57.1646 7.27792C55.6733 7.27792 53.4364 7.38976 50.8565 7.42705C48.2766 7.46433 45.1971 7.53144 41.9089 7.54635L31.6862 7.59854L21.4039 7.54635C18.1454 7.54635 15.0958 7.45687 12.4562 7.42705C9.81669 7.39722 7.67672 7.3152 6.14816 7.27792L3.82178 7.20335Z" fill="#9686D9"/>
<path d="M3.82178 9.77598L6.20782 9.70143C7.69909 9.70143 9.936 9.58957 12.5159 9.55229C15.0958 9.51501 18.1753 9.44791 21.4635 9.433L31.6862 9.3808L41.9089 9.433C45.1673 9.433 48.217 9.52247 50.8565 9.55229C53.4961 9.58212 55.636 9.66415 57.1646 9.70143L59.5506 9.77598L57.1646 9.85055C55.6733 9.88783 53.4364 9.9624 50.8565 9.99968C48.2766 10.037 45.1971 10.1041 41.9089 10.119L31.6862 10.1712L21.4039 10.119C18.1454 10.119 15.0958 10.0295 12.4562 9.99968C9.81669 9.96985 7.67672 9.88783 6.14816 9.85055L3.82178 9.77598Z" fill="#9686D9"/>
<path d="M3.82178 12.3486L6.20782 12.274C7.69909 12.274 9.936 12.1622 12.5159 12.1249C15.0958 12.0876 18.1753 12.0205 21.4635 12.0056L31.6862 11.9534L41.9089 12.0056C45.1673 12.0056 48.217 12.095 50.8565 12.1249C53.4961 12.1547 55.636 12.2367 57.1646 12.274L59.5506 12.3486L57.1646 12.4231C55.6733 12.4604 53.4364 12.535 50.8565 12.5722C48.2766 12.6095 45.1971 12.6766 41.9089 12.6916L31.6862 12.7438L21.4039 12.6916C18.1454 12.6916 15.0958 12.6021 12.4562 12.5722C9.81669 12.5424 7.67672 12.4604 6.14816 12.4231L3.82178 12.3486Z" fill="#9686D9"/>
<path d="M3.82178 14.9285L6.20782 14.8539C7.69909 14.8539 9.936 14.742 12.5159 14.7048C15.0958 14.6675 18.1753 14.6004 21.4635 14.5855L31.6862 14.5333L41.9089 14.5855C45.1673 14.5855 48.217 14.6749 50.8565 14.7048C53.4961 14.7346 55.636 14.8166 57.1646 14.8539L59.5506 14.9285L57.1646 15.003C55.6733 15.003 53.4364 15.1149 50.8565 15.1521C48.2766 15.1894 45.1971 15.2565 41.9089 15.2714L31.6862 15.3236L21.4039 15.264C18.1454 15.264 15.0958 15.1745 12.4562 15.1447C9.81669 15.1149 7.67672 15.0328 6.14816 14.9956L3.82178 14.9285Z" fill="#9686D9"/>
<path d="M3.82178 17.493L6.20782 17.4185C7.69909 17.4185 9.936 17.3066 12.5159 17.2693C15.0958 17.2321 18.1753 17.1649 21.4635 17.15L31.6862 17.0978L41.9089 17.15C45.1673 17.15 48.217 17.2395 50.8565 17.2693C53.4961 17.2992 55.636 17.3812 57.1646 17.4185L59.5506 17.493L57.1646 17.5676C55.6733 17.6049 53.4364 17.6794 50.8565 17.7167C48.2766 17.754 45.1971 17.8211 41.9089 17.836L31.6862 17.8882L21.4039 17.836C18.1454 17.836 15.0958 17.7465 12.4562 17.7167C9.81669 17.6869 7.67672 17.6049 6.14816 17.5676L3.82178 17.493Z" fill="#9686D9"/>
<path d="M3.82178 20.0656L6.20782 19.991C7.69909 19.991 9.936 19.8792 12.5159 19.8419C15.0958 19.8046 18.1753 19.7375 21.4635 19.7226L31.6862 19.6704L41.9089 19.7226C45.1673 19.7226 48.217 19.8121 50.8565 19.8419C53.4961 19.8717 55.636 19.9537 57.1646 19.991L59.5506 20.0656L57.1646 20.1402C55.6733 20.1402 53.4364 20.252 50.8565 20.2893C48.2766 20.3266 45.1971 20.3937 41.9089 20.4086L31.6862 20.4608L21.4039 20.4086C18.1454 20.4086 15.0958 20.3191 12.4562 20.2893C9.81669 20.2595 7.67672 20.1774 6.14816 20.1402L3.82178 20.0656Z" fill="#9686D9"/>
<path d="M3.82178 22.6382L6.20782 22.5636C7.69909 22.5636 9.936 22.4518 12.5159 22.4145C15.0958 22.3772 18.1753 22.3101 21.4635 22.2952L31.6862 22.243L41.9089 22.2952C45.1673 22.2952 48.217 22.3846 50.8565 22.4145C53.4961 22.4443 55.636 22.5263 57.1646 22.5636L59.5506 22.6382L57.1646 22.7127C55.6733 22.75 53.4364 22.8246 50.8565 22.8619C48.2766 22.8991 45.1971 22.9663 41.9089 22.9812L31.6862 23.0334L21.4039 22.9812C18.1454 22.9812 15.0958 22.8917 12.4562 22.8619C9.81669 22.832 7.67672 22.75 6.14816 22.7127L3.82178 22.6382Z" fill="#9686D9"/>
<path d="M3.82178 25.2108L6.20782 25.1362C7.69909 25.1362 9.936 25.0244 12.5159 24.9871C15.0958 24.9498 18.1753 24.8827 21.4635 24.8678L31.6862 24.8156L41.9089 24.8678C45.1673 24.8678 48.217 24.9573 50.8565 24.9871C53.4961 25.0169 55.636 25.099 57.1646 25.1362L59.5506 25.2108L57.1646 25.2854C55.6733 25.3226 53.4364 25.3972 50.8565 25.4345C48.2766 25.4718 45.1971 25.5389 41.9089 25.5538L31.6862 25.606L21.4039 25.5538C18.1454 25.5538 15.0958 25.4643 12.4562 25.4345C9.81669 25.4047 7.67672 25.3226 6.14816 25.2854L3.82178 25.2108Z" fill="#9686D9"/>
<path d="M3.82178 27.7834L6.20782 27.7088C7.69909 27.7088 9.936 27.597 12.5159 27.5597C15.0958 27.5224 18.1753 27.4553 21.4635 27.4404L31.6862 27.3882L41.9089 27.4404C45.1673 27.4404 48.217 27.5299 50.8565 27.5597C53.4961 27.5895 55.636 27.6715 57.1646 27.7088L59.5506 27.7834L57.1646 27.8579C55.6733 27.8579 53.4364 27.9698 50.8565 28.0071C48.2766 28.0443 45.1971 28.1114 41.9089 28.1264L31.6862 28.1786L21.4039 28.1264C18.1454 28.1264 15.0958 28.0369 12.4562 28.0071C9.81669 27.9772 7.67672 27.8952 6.14816 27.8579L3.82178 27.7834Z" fill="#9686D9"/>
<path d="M3.82178 30.3552L6.20782 30.2806C7.69909 30.2806 9.936 30.1688 12.5159 30.1315C15.0958 30.0942 18.1753 30.0271 21.4635 30.0122L31.6862 29.96L41.9089 30.0122C45.1673 30.0122 48.217 30.1017 50.8565 30.1315C53.4961 30.1613 55.636 30.2434 57.1646 30.2806L59.5506 30.3552L57.1646 30.4298C55.6733 30.467 53.4364 30.5416 50.8565 30.5789C48.2766 30.6162 45.1971 30.6833 41.9089 30.6982L31.6862 30.7504L21.4039 30.6982C18.1454 30.6982 15.0958 30.6087 12.4562 30.5789C9.81669 30.5491 7.67672 30.467 6.14816 30.4298L3.82178 30.3552Z" fill="#9686D9"/>
<path d="M3.82178 32.9278L6.20782 32.8533C7.69909 32.8533 9.936 32.7414 12.5159 32.7041C15.0958 32.6669 18.1753 32.5998 21.4635 32.5848L31.6862 32.5327L41.9089 32.5848C45.1673 32.5848 48.217 32.6743 50.8565 32.7041C53.4961 32.734 55.636 32.816 57.1646 32.8533L59.5506 32.9278L57.1646 33.0024C55.6733 33.0024 53.4364 33.1143 50.8565 33.1515C48.2766 33.1888 45.1971 33.2559 41.9089 33.2708L31.6862 33.323L21.4039 33.2708C18.1454 33.2708 15.0958 33.1814 12.4562 33.1515C9.81669 33.1217 7.67672 33.0397 6.14816 33.0024L3.82178 32.9278Z" fill="#9686D9"/>
<path d="M3.82178 35.5004L6.20782 35.4259C7.69909 35.4259 9.936 35.314 12.5159 35.2767C15.0958 35.2394 18.1753 35.1723 21.4635 35.1574L31.6862 35.1052L41.9089 35.1574C45.1673 35.1574 48.217 35.2469 50.8565 35.2767C53.4961 35.3065 55.636 35.3886 57.1646 35.4259L59.5506 35.5004L57.1646 35.575C55.6733 35.6123 53.4364 35.6868 50.8565 35.7241C48.2766 35.7614 45.1971 35.8285 41.9089 35.8434L31.6862 35.8956L21.4039 35.8434C18.1454 35.8434 15.0958 35.7539 12.4562 35.7241C9.81669 35.6943 7.67672 35.6123 6.14816 35.575L3.82178 35.5004Z" fill="#9686D9"/>
<path d="M3.82178 38.0431L6.20782 37.9686C7.69909 37.9686 9.936 37.8567 12.5159 37.8194C15.0958 37.7822 18.1753 37.7151 21.4635 37.7001L31.6862 37.6479L41.9089 37.7001C45.1673 37.7001 48.217 37.7896 50.8565 37.8194C53.4961 37.8493 55.636 37.9313 57.1646 37.9686L59.5506 38.0431L57.1646 38.1177C55.6733 38.155 53.4364 38.2295 50.8565 38.2668C48.2766 38.3041 45.1971 38.3712 41.9089 38.3861L31.6862 38.4383L21.4039 38.416C18.1454 38.416 15.0958 38.3265 12.4562 38.2966C9.81669 38.2668 7.67672 38.1848 6.14816 38.1475L3.82178 38.0431Z" fill="#9686D9"/>
<path d="M3.82178 40.6456L6.20782 40.571C7.69909 40.571 9.936 40.4592 12.5159 40.4219C15.0958 40.3846 18.1753 40.3175 21.4635 40.3026L31.6862 40.2504L41.9089 40.3026C45.1673 40.3026 48.217 40.3921 50.8565 40.4219C53.4961 40.4517 55.636 40.5338 57.1646 40.571L59.5506 40.6456L57.1646 40.7202C55.6733 40.7202 53.4364 40.832 50.8565 40.8693C48.2766 40.9066 45.1971 40.9737 41.9089 40.9886L31.6862 41.0408L21.4039 41.0259C18.1454 41.0259 15.0958 40.9364 12.4562 40.9066C9.81669 40.8768 7.67672 40.7947 6.14816 40.7575L3.82178 40.6456Z" fill="#9686D9"/>
<path d="M3.82178 43.2175L6.20782 43.1429C7.69909 43.1429 9.936 43.031 12.5159 42.9938C15.0958 42.9565 18.1753 42.8894 21.4635 42.8745L31.6862 42.8223L41.9089 42.8745C45.1673 42.8745 48.217 42.9639 50.8565 42.9938C53.4961 43.0236 55.636 43.1056 57.1646 43.1429L59.5506 43.2175L57.1646 43.292C55.6733 43.3293 53.4364 43.4039 50.8565 43.4411C48.2766 43.4784 45.1971 43.5455 41.9089 43.5604L31.6862 43.6126L21.4039 43.5604C18.1454 43.5604 15.0958 43.471 12.4562 43.4411C9.81669 43.4113 7.67672 43.3293 6.14816 43.292L3.82178 43.2175Z" fill="#9686D9"/>
<path d="M3.82178 45.79L6.20782 45.7155C7.69909 45.7155 9.936 45.6036 12.5159 45.5663C15.0958 45.529 18.1753 45.4619 21.4635 45.447L31.6862 45.3948L41.9089 45.447C45.1673 45.447 48.217 45.5365 50.8565 45.5663C53.4961 45.5962 55.636 45.6782 57.1646 45.7155L59.5506 45.79L57.1646 45.8646C55.6733 45.8646 53.4364 45.9764 50.8565 46.0137C48.2766 46.051 45.1971 46.1181 41.9089 46.133L31.6862 46.1852L21.4039 46.133C18.1454 46.133 15.0958 46.0435 12.4562 46.0137C9.81669 45.9839 7.67672 45.9019 6.14816 45.8646L3.82178 45.79Z" fill="#9686D9"/>
<path d="M3.82178 48.3627L6.20782 48.2881C7.69909 48.2881 9.936 48.1762 12.5159 48.139C15.0958 48.1017 18.1753 48.0346 21.4635 48.0197L31.6862 47.9675L41.9089 48.0197C45.1673 48.0197 48.217 48.1091 50.8565 48.139C53.4961 48.1688 55.636 48.2508 57.1646 48.2881L59.5506 48.3627L57.1646 48.4372C55.6733 48.4745 53.4364 48.5491 50.8565 48.5863C48.2766 48.6236 45.1971 48.6907 41.9089 48.7057L31.6862 48.7578L21.4039 48.7057C18.1454 48.7057 15.0958 48.6162 12.4562 48.5863C9.81669 48.5565 7.67672 48.4745 6.14816 48.4372L3.82178 48.3627Z" fill="#9686D9"/>
<path d="M3.82178 50.9352L6.20782 50.8607C7.69909 50.8607 9.936 50.7488 12.5159 50.7115C15.0958 50.6743 18.1753 50.6072 21.4635 50.5922L31.6862 50.54L41.9089 50.5922C45.1673 50.5922 48.217 50.6817 50.8565 50.7115C53.4961 50.7414 55.636 50.8234 57.1646 50.8607L59.5506 50.9352L57.1646 51.0098C55.6733 51.0471 53.4364 51.1216 50.8565 51.1589C48.2766 51.1962 45.1971 51.2633 41.9089 51.2782L31.6862 51.3304L21.4039 51.2782C18.1454 51.2782 15.0958 51.1887 12.4562 51.1589C9.81669 51.1291 7.67672 51.0471 6.14816 51.0098L3.82178 50.9352Z" fill="#9686D9"/>
<path d="M3.82178 53.5078L6.20782 53.4332C7.69909 53.4332 9.936 53.3214 12.5159 53.2841C15.0958 53.2468 18.1753 53.1797 21.4635 53.1648L31.6862 53.1126L41.9089 53.1648C45.1673 53.1648 48.217 53.2543 50.8565 53.2841C53.4961 53.3139 55.636 53.3959 57.1646 53.4332L59.5506 53.5078L57.1646 53.5824C55.6733 53.5824 53.4364 53.6942 50.8565 53.7315C48.2766 53.7688 45.1971 53.8359 41.9089 53.8508L31.6862 53.903L21.4039 53.8508C18.1454 53.8508 15.0958 53.7613 12.4562 53.7315C9.81669 53.7017 7.67672 53.6196 6.14816 53.5824L3.82178 53.5078Z" fill="#9686D9"/>
<path d="M3.82178 56.0797L6.20782 56.0051C7.69909 56.0051 9.936 55.8933 12.5159 55.856C15.0958 55.8187 18.1753 55.7516 21.4635 55.7367L31.6862 55.6845L41.9089 55.7367C45.1673 55.7367 48.217 55.8262 50.8565 55.856C53.4961 55.8858 55.636 55.9678 57.1646 56.0051L59.5506 56.0797L57.1646 56.1543C55.6733 56.1915 53.4364 56.2661 50.8565 56.3034C48.2766 56.3407 45.1971 56.4078 41.9089 56.4227L31.6862 56.4749L21.4039 56.4227C18.1454 56.4227 15.0958 56.3332 12.4562 56.3034C9.81669 56.2736 7.67672 56.1915 6.14816 56.1543L3.82178 56.0797Z" fill="#9686D9"/>
<path d="M3.82178 58.6523L6.20782 58.5777C7.69909 58.5777 9.936 58.4659 12.5159 58.4286C15.0958 58.3913 18.1753 58.3242 21.4635 58.3093L31.6862 58.2571L41.9089 58.3093C45.1673 58.3093 48.217 58.3987 50.8565 58.4286C53.4961 58.4584 55.636 58.5404 57.1646 58.5777L59.5506 58.6523L57.1646 58.7268C55.6733 58.7268 53.4364 58.8387 50.8565 58.876C48.2766 58.9132 45.1971 58.9804 41.9089 58.9953L31.6862 59.0475L21.4039 58.9953C18.1454 58.9953 15.0958 58.9058 12.4562 58.876C9.81669 58.8461 7.67672 58.7641 6.14816 58.7268L3.82178 58.6523Z" fill="#9686D9"/>
<path d="M3.82178 61.2248L6.20782 61.1503C7.69909 61.1503 9.936 61.0384 12.5159 61.0011C15.0958 60.9639 18.1753 60.8968 21.4635 60.8819L31.6862 60.8297L41.9089 60.8819C45.1673 60.8819 48.217 60.9713 50.8565 61.0011C53.4961 61.031 55.636 61.113 57.1646 61.1503L59.5506 61.2248L57.1646 61.2994C55.6733 61.3367 53.4364 61.4112 50.8565 61.4485C48.2766 61.4858 45.1971 61.5529 41.9089 61.5678L31.6862 61.62L21.4039 61.5678C18.1454 61.5678 15.0958 61.4784 12.4562 61.4485C9.81669 61.4187 7.67672 61.3367 6.14816 61.2994L3.82178 61.2248Z" fill="#9686D9"/>
<path d="M3.82178 63.7975L6.20782 63.7229C7.69909 63.7229 9.936 63.6111 12.5159 63.5738C15.0958 63.5365 18.1753 63.4694 21.4635 63.4545L31.6862 63.4023L41.9089 63.4545C45.1673 63.4545 48.217 63.544 50.8565 63.5738C53.4961 63.6036 55.636 63.6856 57.1646 63.7229L59.5506 63.7975L57.1646 63.872C55.6733 63.9093 53.4364 63.9839 50.8565 64.0212C48.2766 64.0584 45.1971 64.1256 41.9089 64.1405L31.6862 64.1927L21.4039 64.1405C18.1454 64.1405 15.0958 64.051 12.4562 64.0212C9.81669 63.9913 7.67672 63.9093 6.14816 63.872L3.82178 63.7975Z" fill="#9686D9"/>
<path d="M3.82178 66.3773L6.20782 66.3027C7.69909 66.3027 9.936 66.1909 12.5159 66.1536C15.0958 66.1163 18.1753 66.0492 21.4635 66.0343L31.6862 65.9821L41.9089 66.0343C45.1673 66.0343 48.217 66.1238 50.8565 66.1536C53.4961 66.1834 55.636 66.2655 57.1646 66.3027L59.5506 66.3773L57.1646 66.4519C55.6733 66.4519 53.4364 66.5637 50.8565 66.601C48.2766 66.6383 45.1971 66.7054 41.9089 66.7203L31.6862 66.7725L21.4039 66.7128C18.1454 66.7128 15.0958 66.6234 12.4562 66.5935C9.81669 66.5637 7.67672 66.4817 6.14816 66.4444L3.82178 66.3773Z" fill="#9686D9"/>
<path d="M3.82178 68.9419L6.20782 68.8673C7.69909 68.8673 9.936 68.7555 12.5159 68.7182C15.0958 68.6809 18.1753 68.6138 21.4635 68.5989L31.6862 68.5467L41.9089 68.5989C45.1673 68.5989 48.217 68.6884 50.8565 68.7182C53.4961 68.748 55.636 68.83 57.1646 68.8673L59.5506 68.9419L57.1646 69.0164C55.6733 69.0164 53.4364 69.1283 50.8565 69.1656C48.2766 69.2028 45.1971 69.27 41.9089 69.2849L31.6862 69.3371L21.4039 69.2849C18.1454 69.2849 15.0958 69.1954 12.4562 69.1656C9.81669 69.1357 7.67672 69.0537 6.14816 69.0164L3.82178 68.9419Z" fill="#9686D9"/>
<path d="M3.82178 71.5145L6.20782 71.44C7.69909 71.44 9.936 71.3281 12.5159 71.2908C15.0958 71.2535 18.1753 71.1864 21.4635 71.1715L31.6862 71.1193L41.9089 71.1715C45.1673 71.1715 48.217 71.261 50.8565 71.2908C53.4961 71.3207 55.636 71.4027 57.1646 71.44L59.5506 71.5145L57.1646 71.5891C55.6733 71.6264 53.4364 71.7009 50.8565 71.7382C48.2766 71.7755 45.1971 71.8426 41.9089 71.8575L31.6862 71.9097L21.4039 71.8575C18.1454 71.8575 15.0958 71.768 12.4562 71.7382C9.81669 71.7084 7.67672 71.6264 6.14816 71.5891L3.82178 71.5145Z" fill="#9686D9"/>
<path d="M3.82178 74.0871L6.20782 74.0125C7.69909 74.0125 9.936 73.9007 12.5159 73.8634C15.0958 73.8261 18.1753 73.759 21.4635 73.7441L31.6862 73.6919L41.9089 73.7441C45.1673 73.7441 48.217 73.8336 50.8565 73.8634C53.4961 73.8932 55.636 73.9752 57.1646 74.0125L59.5506 74.0871L57.1646 74.1616C55.6733 74.1989 53.4364 74.2735 50.8565 74.3108C48.2766 74.3481 45.1971 74.4152 41.9089 74.4301L31.6862 74.4823L21.4039 74.4301C18.1454 74.4301 15.0958 74.3406 12.4562 74.3108C9.81669 74.281 7.67672 74.1989 6.14816 74.1616L3.82178 74.0871Z" fill="#9686D9"/>
<path d="M3.82178 76.6597L6.20782 76.5851C7.69909 76.5851 9.936 76.4732 12.5159 76.4359C15.0958 76.3987 18.1753 76.3316 21.4635 76.3166L31.6862 76.2645L41.9089 76.3166C45.1673 76.3166 48.217 76.4061 50.8565 76.4359C53.4961 76.4658 55.636 76.5478 57.1646 76.5851L59.5506 76.6597L57.1646 76.7342C55.6733 76.7715 53.4364 76.8461 50.8565 76.8833C48.2766 76.9206 45.1971 76.9877 41.9089 77.0026L31.6862 77.0548L21.4039 77.0026C18.1454 77.0026 15.0958 76.9132 12.4562 76.8833C9.81669 76.8535 7.67672 76.7715 6.14816 76.7342L3.82178 76.6597Z" fill="#9686D9"/>
<path d="M3.82178 79.2323L6.20782 79.1577C7.69909 79.1577 9.936 79.0459 12.5159 79.0086C15.0958 78.9713 18.1753 78.9042 21.4635 78.8893L31.6862 78.8371L41.9089 78.8893C45.1673 78.8893 48.217 78.9788 50.8565 79.0086C53.4961 79.0384 55.636 79.1205 57.1646 79.1577L59.5506 79.2323L57.1646 79.3069C55.6733 79.3441 53.4364 79.4187 50.8565 79.456C48.2766 79.4933 45.1971 79.5604 41.9089 79.5753L31.6862 79.6275L21.4039 79.5753C18.1454 79.5753 15.0958 79.4858 12.4562 79.456C9.81669 79.4262 7.67672 79.3441 6.14816 79.3069L3.82178 79.2323Z" fill="#9686D9"/>
<path d="M3.82178 81.8041L6.20782 81.7296C7.69909 81.7296 9.936 81.6177 12.5159 81.5804C15.0958 81.5432 18.1753 81.476 21.4635 81.4611L31.6862 81.4089L41.9089 81.4611C45.1673 81.4611 48.217 81.5506 50.8565 81.5804C53.4961 81.6103 55.636 81.6923 57.1646 81.7296L59.5506 81.8041L57.1646 81.8787C55.6733 81.8787 53.4364 81.9905 50.8565 82.0278C48.2766 82.0651 45.1971 82.1322 41.9089 82.1471L31.6862 82.1993L21.4039 82.1471C18.1454 82.1471 15.0958 82.0576 12.4562 82.0278C9.81669 81.998 7.67672 81.916 6.14816 81.8787L3.82178 81.8041Z" fill="#9686D9"/>
</g>
<path d="M32.1562 4.22774C39.5604 4.3023 45.1079 6.15894 48.6423 9.73799C52.1766 13.317 53.9735 19.133 53.9735 27.0144V27.3648C53.899 37.7068 47.8817 44.082 35.5862 46.8558C26.5789 48.8466 22.0081 54.6849 22.0081 64.2142V78.7317H45.697C46.8453 78.7317 47.8295 77.7997 49.0673 66.2572H52.9744L54.2644 82.7209H9.34723V64.4528C9.34723 58.4877 10.8907 53.313 13.9403 49.0852C16.99 44.8575 21.6428 41.9718 27.8241 40.4433C32.544 39.3099 36.0932 37.6173 38.3748 35.4177C40.6565 33.2181 41.9092 29.7732 41.9092 25.3516C41.9092 19.7146 40.828 15.4794 38.6955 12.7653C36.5629 10.0512 33.0808 8.5748 28.4728 8.5748C25.4238 8.51691 22.409 9.22448 19.7041 10.6328C17.2617 12.0369 15.2107 14.0315 13.739 16.4338L11.1069 11.96C13.5584 9.34657 16.5867 7.34218 19.9502 6.10675C23.6365 4.83953 27.5128 4.21407 31.4106 4.25757H32.119M32.119 3.40008H31.3733C27.3762 3.35511 23.4011 3.99829 19.6221 5.30146C15.9283 6.65614 12.6248 8.89942 10.0034 11.8332L13.6868 18.1339C15.5062 14.9674 17.6213 12.7305 20.0322 11.4231C22.6108 10.0741 25.4888 9.39948 28.3982 9.46211C32.7478 9.46211 35.9316 10.7496 37.9498 13.3245C39.968 15.8994 41.002 19.9134 41.0517 25.3665C41.0517 29.5669 39.9606 32.716 37.7783 34.8137C35.5961 36.9115 32.2109 38.5171 27.6228 39.6306C21.2004 41.2113 16.4059 44.1938 13.2395 48.5782C10.073 52.9625 8.48975 58.2516 8.48975 64.4453V83.5709H55.1889L53.7648 65.3923H48.2993C47.4294 73.7136 46.5619 77.8717 45.697 77.8668H22.8954V64.2142C22.8954 55.1025 27.1978 49.5947 35.8024 47.6909C48.4335 44.8425 54.7863 38.0697 54.8609 27.3723V27.0144C54.8609 18.8571 53.0017 12.892 49.2835 9.11912C45.5653 5.3462 39.8686 3.42494 32.1935 3.35535L32.119 3.40008Z" fill="#161548"/>
<path d="M45.8236 9.13403C49.5468 12.902 51.4059 18.8671 51.401 27.0293V27.3872C51.3264 38.0796 44.9736 44.8525 32.3425 47.7058C23.7379 49.6097 19.4355 55.1174 19.4355 64.2291V78.7466H22.8953V64.2142C22.8953 55.1025 27.1976 49.5947 35.8023 47.6909C48.4333 44.8425 54.7862 38.0697 54.8607 27.3723V27.0144C54.8607 18.8571 53.0016 12.892 49.2834 9.11912C45.5651 5.3462 39.8685 3.42494 32.1934 3.35535H31.4477C30.8512 3.35535 30.2696 3.35535 29.688 3.39263C36.8685 3.63869 42.2818 5.5326 45.8236 9.13403Z" fill="#161548"/>
<path d="M16.6765 11.3933C14.9253 12.3961 13.4018 13.752 12.2026 15.375L13.7983 18.104C15.6176 14.9376 17.7328 12.7007 20.1437 11.3933C22.1977 10.3029 24.4594 9.65993 26.7798 9.50685C26.2355 9.45465 25.6688 9.43229 25.0798 9.43229C22.1577 9.36334 19.2661 10.0381 16.6765 11.3933Z" fill="#161548"/>
<path d="M53.7869 65.7798H50.3569L51.7364 83.3544H55.1663L53.7869 65.7798Z" fill="#161548"/>
</svg>
