<svg width="63" height="88" viewBox="0 0 63 88" fill="none" xmlns="http://www.w3.org/2000/svg">
<path d="M31.9729 87.9958C27.234 88.061 22.5154 87.3645 17.9975 85.9328C13.4778 84.3463 9.39289 81.7227 6.07041 78.2722L4 76.2166L12.3113 61.7458L15.6979 67.2176C17.3838 69.9388 19.2176 71.8761 21.1475 72.9631C23.1516 74.0965 25.427 74.6615 27.7285 74.5972C35.6183 74.5972 38.7239 70.9814 38.7239 62.5222V62.1673C38.7239 56.2518 38.0954 51.024 29.762 51.024H18.737V36.9747H30.3239C34.7605 36.9747 35.7514 35.3849 36.1507 34.8377C37.075 33.5807 37.9623 30.9631 37.9623 25.2842V24.811C37.9623 20.6701 37.3264 17.4166 35.8919 15.7159C34.6201 14.237 32.4165 13.3127 28.9116 13.3127H28.5567C24.8595 13.3127 21.7169 15.7307 19.0475 20.4483L15.7792 26.3046L7.32746 11.8856L9.25738 9.8152C12.1741 6.5492 15.7672 3.95778 19.787 2.22119C23.5874 0.701039 27.6508 -0.0528479 31.7436 0.00287855H32.3278C41.2306 0.00287855 47.8979 1.8983 52.3296 5.68915C56.8993 9.57858 59.406 15.6937 59.406 23.9828V24.3377C58.6665 32.7377 56.744 39.0525 52.263 43.2081C57.9123 47.6448 60.7665 54.1 60.7665 62.049C60.7665 71.1958 58.245 77.8729 53.3722 82.0138C48.6693 86.0215 41.6003 87.9736 32.4535 87.9736L31.9729 87.9958Z" fill="white"/>
<path d="M22.079 40.9529H30.3237C34.5681 40.9529 37.6121 39.6958 39.4557 37.1817C41.2994 34.6677 42.2237 30.7018 42.2286 25.2842V24.811C42.1448 19.6251 41.085 15.8145 39.049 13.3793C37.0131 10.9441 33.6339 9.72647 28.9114 9.72647H28.5564C23.3754 9.72647 19.0941 12.7113 15.7124 18.681L12.0818 12.4328C14.6256 9.55829 17.761 7.26791 21.273 5.71873C24.5949 4.35888 28.154 3.6727 31.7434 3.70007H32.3276C40.1853 3.77894 45.9603 5.38845 49.6526 8.52859C53.3448 11.6687 55.1909 16.8152 55.1909 23.968V24.3229C55.0332 34.0687 51.617 40.3934 44.9423 43.2969C52.879 46.9891 56.8448 53.2349 56.8399 62.0342C56.8399 70.0497 54.836 75.7655 50.8283 79.1817C46.8205 82.5979 40.693 84.3036 32.4459 84.2986H31.9726C27.637 84.3037 23.3259 83.6479 19.1878 82.3539C15.2314 80.9408 11.6608 78.6212 8.76172 75.5807L12.4145 69.2141C14.4554 72.512 16.7328 74.8684 19.2469 76.2832C21.9215 77.737 24.9288 78.4684 27.9723 78.4053C38.0188 78.4053 43.0469 73.1036 43.0568 62.5001V62.1451C43.0568 52.0099 38.6202 46.9423 29.7469 46.9423H22.079V40.9529Z" fill="#6362D1"/>
<mask id="mask0_728_19434" style="mask-type:luminance" maskUnits="userSpaceOnUse" x="8" y="3" width="49" height="82">
<path d="M22.079 40.9529H30.3237C34.5681 40.9529 37.6121 39.6958 39.4557 37.1817C41.2994 34.6677 42.2237 30.7018 42.2286 25.2842V24.811C42.1448 19.6251 41.085 15.8145 39.049 13.3793C37.0131 10.9441 33.6339 9.72647 28.9114 9.72647H28.5564C23.3754 9.72647 19.0941 12.7113 15.7124 18.681L12.0818 12.4328C14.6256 9.55829 17.761 7.26791 21.273 5.71873C24.5949 4.35888 28.154 3.6727 31.7434 3.70007H32.3276C40.1853 3.77894 45.9603 5.38845 49.6526 8.52859C53.3448 11.6687 55.1909 16.8152 55.1909 23.968V24.3229C55.0332 34.0687 51.617 40.3934 44.9423 43.2969C52.879 46.9891 56.8448 53.2349 56.8399 62.0342C56.8399 70.0497 54.836 75.7655 50.8283 79.1817C46.8205 82.5979 40.693 84.3036 32.4459 84.2986H31.9726C27.637 84.3037 23.3259 83.6479 19.1878 82.3539C15.2314 80.9408 11.6608 78.6212 8.76172 75.5807L12.4145 69.2141C14.4554 72.512 16.7328 74.8684 19.2469 76.2832C21.9215 77.737 24.9288 78.4684 27.9723 78.4053C38.0188 78.4053 43.0469 73.1036 43.0568 62.5001V62.1451C43.0568 52.0099 38.6202 46.9423 29.7469 46.9423H22.079V40.9529Z" fill="white"/>
</mask>
<g mask="url(#mask0_728_19434)">
<path d="M4.56934 3.61871L6.9873 3.54476C8.51793 3.54476 10.6845 3.43385 13.3538 3.39687C16.0232 3.3599 19.0623 3.29335 22.3528 3.27856L32.7049 3.22681L43.057 3.27856C46.3475 3.27856 49.4235 3.3673 52.0559 3.39687C54.6883 3.42645 56.8919 3.50779 58.4225 3.54476L60.8404 3.61871L58.4225 3.69266C56.8919 3.69266 54.7253 3.80357 52.0559 3.84054C49.3866 3.87751 46.3475 3.95145 43.057 3.96624L32.7049 4.018L22.3528 3.95885C19.0623 3.95885 15.9862 3.87012 13.3538 3.84054C10.7215 3.81096 8.51793 3.72963 6.9873 3.69266L4.56934 3.61871Z" fill="#9686D9"/>
<path d="M4.56934 6.16979L6.9873 6.09586C8.51793 6.05888 10.6845 5.98493 13.3538 5.94796C16.0232 5.91099 19.0623 5.84445 22.3528 5.82966L32.7049 5.77789L43.057 5.82966C46.3475 5.82966 49.4235 5.91838 52.0559 5.94796C54.6883 5.97754 56.8919 6.05888 58.4225 6.09586L60.8404 6.16979L58.4225 6.24374C56.8919 6.28071 54.7253 6.35465 52.0559 6.39163C49.3866 6.4286 46.3475 6.50254 43.057 6.51733L32.7049 6.5691L22.3528 6.50994C19.0623 6.50994 15.9862 6.4286 13.3538 6.39163C10.7215 6.35465 8.51793 6.28071 6.9873 6.24374L4.56934 6.16979Z" fill="#9686D9"/>
<path d="M4.56934 8.72088L6.9873 8.64694C8.51793 8.60997 10.6845 8.53603 13.3538 8.49906C16.0232 8.46209 19.0623 8.39553 22.3528 8.38075L32.7049 8.32898L43.057 8.38075C46.3475 8.38075 49.4235 8.46948 52.0559 8.49906C54.6883 8.52864 56.8919 8.60997 58.4225 8.64694L60.8404 8.72088L58.4225 8.80222C56.8919 8.80222 54.7253 8.90574 52.0559 8.94271C49.3866 8.97968 46.3475 9.05363 43.057 9.06842L32.7049 9.12018L22.3528 9.06103C19.0623 9.06103 15.9862 8.97968 13.3538 8.94271C10.7215 8.90574 8.51793 8.8318 6.9873 8.79483L4.56934 8.72088Z" fill="#9686D9"/>
<path d="M4.56934 11.2719L6.9873 11.198C8.51793 11.198 10.6845 11.087 13.3538 11.0501C16.0232 11.0131 19.0623 10.9465 22.3528 10.9318L32.7049 10.88L43.057 10.9318C46.3475 10.9318 49.4235 11.0205 52.0559 11.0501C54.6883 11.0796 56.8919 11.161 58.4225 11.198L60.8404 11.2719L58.4225 11.3532C56.8919 11.3532 54.7253 11.4568 52.0559 11.4937C49.3866 11.5307 46.3475 11.6047 43.057 11.6194L32.7049 11.6712L22.3528 11.612C19.0623 11.612 15.9862 11.5307 13.3538 11.4937C10.7215 11.4568 8.51793 11.3828 6.9873 11.3458L4.56934 11.2719Z" fill="#9686D9"/>
<path d="M4.56934 13.8229L6.9873 13.749C8.51793 13.712 10.6845 13.6381 13.3538 13.6011C16.0232 13.5641 19.0623 13.4976 22.3528 13.4828L32.7049 13.431L43.057 13.4828C46.3475 13.4828 49.4235 13.5715 52.0559 13.6011C54.6883 13.6307 56.8919 13.712 58.4225 13.749L60.8404 13.8229L58.4225 13.9043C56.8919 13.9043 54.7253 14.0078 52.0559 14.0448C49.3866 14.0817 46.3475 14.1557 43.057 14.1705L32.7049 14.2222L22.3528 14.1631C19.0623 14.1631 15.9862 14.0743 13.3538 14.0448C10.7215 14.0152 8.51793 13.9338 6.9873 13.8969L4.56934 13.8229Z" fill="#9686D9"/>
<path d="M4.56934 16.374L6.9873 16.3001C8.51793 16.3001 10.6845 16.1892 13.3538 16.1522C16.0232 16.1152 19.0623 16.0487 22.3528 16.0339L32.7049 15.9821L43.057 16.0339C46.3475 16.0339 49.4235 16.1226 52.0559 16.1522C54.6883 16.1818 56.8919 16.2631 58.4225 16.3001L60.8404 16.374L58.4225 16.448C56.8919 16.448 54.7253 16.5589 52.0559 16.5959C49.3866 16.6328 46.3475 16.7068 43.057 16.7216L32.7049 16.7733L22.3528 16.7142C19.0623 16.7142 15.9862 16.6254 13.3538 16.5959C10.7215 16.5663 8.51793 16.4849 6.9873 16.448L4.56934 16.374Z" fill="#9686D9"/>
<path d="M4.56934 18.925L6.9873 18.8511C8.51793 18.8141 10.6845 18.7402 13.3538 18.7032C16.0232 18.6662 19.0623 18.5997 22.3528 18.5849L32.7049 18.5331L43.057 18.5849C46.3475 18.5849 49.4235 18.6736 52.0559 18.7032C54.6883 18.7328 56.8919 18.8141 58.4225 18.8511L60.8404 18.925L58.4225 18.999C56.8919 19.036 54.7253 19.1099 52.0559 19.1469C49.3866 19.1838 46.3475 19.2578 43.057 19.2726L32.7049 19.3243L22.3528 19.2652C19.0623 19.2652 15.9862 19.1838 13.3538 19.1469C10.7215 19.1099 8.51793 19.036 6.9873 18.999L4.56934 18.925Z" fill="#9686D9"/>
<path d="M4.56934 21.4466L6.9873 21.3726C8.51793 21.3357 10.6845 21.2617 13.3538 21.2248C16.0232 21.1878 19.0623 21.1212 22.3528 21.1064L32.7049 21.0547L43.057 21.1064C46.3475 21.1064 49.4235 21.1952 52.0559 21.2248C54.6883 21.2543 56.8919 21.3357 58.4225 21.3726L60.8404 21.4466L58.4225 21.5279C56.8919 21.5279 54.7253 21.6314 52.0559 21.6684C49.3866 21.7054 46.3475 21.7793 43.057 21.7941L32.7049 21.8459L22.3528 21.7867C19.0623 21.7867 15.9862 21.7054 13.3538 21.6684C10.7215 21.6314 8.51793 21.5575 6.9873 21.5205L4.56934 21.4466Z" fill="#9686D9"/>
<path d="M4.56934 24.0272L6.9873 23.9533C8.51793 23.9533 10.6845 23.8424 13.3538 23.8054C16.0232 23.7684 19.0623 23.7019 22.3528 23.6871L32.7049 23.6353L43.057 23.6871C46.3475 23.6871 49.4235 23.7758 52.0559 23.8054C54.6883 23.835 56.8919 23.9163 58.4225 23.9533L60.8404 24.0272L58.4225 24.1086C56.8919 24.1086 54.7253 24.2121 52.0559 24.249C49.3866 24.286 46.3475 24.36 43.057 24.3748L32.7049 24.4265L22.3528 24.3673C19.0623 24.3673 15.9862 24.286 13.3538 24.249C10.7215 24.2121 8.51793 24.1381 6.9873 24.1012L4.56934 24.0272Z" fill="#9686D9"/>
<path d="M4.56934 26.5782L6.9873 26.5043C8.51793 26.4673 10.6845 26.3934 13.3538 26.3564C16.0232 26.3194 19.0623 26.2529 22.3528 26.2381L32.7049 26.1863L43.057 26.2381C46.3475 26.2381 49.4235 26.3268 52.0559 26.3564C54.6883 26.386 56.8919 26.4673 58.4225 26.5043L60.8404 26.5782L58.4225 26.6596C56.8919 26.6596 54.7253 26.7631 52.0559 26.8001C49.3866 26.837 46.3475 26.911 43.057 26.9258L32.7049 26.9775L22.3528 26.9184C19.0623 26.9184 15.9862 26.8297 13.3538 26.8001C10.7215 26.7705 8.51793 26.6891 6.9873 26.6522L4.56934 26.5782Z" fill="#9686D9"/>
<path d="M4.56934 29.1293L6.9873 29.0553C8.51793 29.0553 10.6845 28.9444 13.3538 28.9074C16.0232 28.8705 19.0623 28.8039 22.3528 28.7891L32.7049 28.7374L43.057 28.7891C46.3475 28.7891 49.4235 28.8779 52.0559 28.9074C54.6883 28.937 56.8919 29.0183 58.4225 29.0553L60.8404 29.1293L58.4225 29.2032C56.8919 29.2032 54.7253 29.3141 52.0559 29.3511C49.3866 29.3881 46.3475 29.462 43.057 29.4768L32.7049 29.5286L22.3528 29.4694C19.0623 29.4694 15.9862 29.3807 13.3538 29.3511C10.7215 29.3215 8.51793 29.2402 6.9873 29.2032L4.56934 29.1293Z" fill="#9686D9"/>
<path d="M4.56934 31.6804L6.9873 31.6064C8.51793 31.5694 10.6845 31.4955 13.3538 31.4585C16.0232 31.4215 19.0623 31.355 22.3528 31.3402L32.7049 31.2885L43.057 31.3402C46.3475 31.3402 49.4235 31.4289 52.0559 31.4585C54.6883 31.4881 56.8919 31.5694 58.4225 31.6064L60.8404 31.6804L58.4225 31.7543C56.8919 31.7913 54.7253 31.8652 52.0559 31.9022C49.3866 31.9392 46.3475 32.0131 43.057 32.0279L32.7049 32.0797L22.3528 32.0205C19.0623 32.0205 15.9862 31.9392 13.3538 31.9022C10.7215 31.8652 8.51793 31.7913 6.9873 31.7543L4.56934 31.6804Z" fill="#9686D9"/>
<path d="M4.56934 34.2314L6.9873 34.1575C8.51793 34.1205 10.6845 34.0466 13.3538 34.0096C16.0232 33.9726 19.0623 33.9061 22.3528 33.8913L32.7049 33.8395L43.057 33.8913C46.3475 33.8913 49.4235 33.98 52.0559 34.0096C54.6883 34.0392 56.8919 34.1205 58.4225 34.1575L60.8404 34.2314L58.4225 34.3128C56.8919 34.3128 54.7253 34.4163 52.0559 34.4533C49.3866 34.4902 46.3475 34.5642 43.057 34.579L32.7049 34.6307L22.3528 34.5716C19.0623 34.5716 15.9862 34.4902 13.3538 34.4533C10.7215 34.4163 8.51793 34.3424 6.9873 34.3054L4.56934 34.2314Z" fill="#9686D9"/>
<path d="M4.56934 36.7825L6.9873 36.7085C8.51793 36.7085 10.6845 36.5976 13.3538 36.5606C16.0232 36.5237 19.0623 36.4571 22.3528 36.4423L32.7049 36.3906L43.057 36.4423C46.3475 36.4423 49.4235 36.5311 52.0559 36.5606C54.6883 36.5902 56.8919 36.6715 58.4225 36.7085L60.8404 36.7825L58.4225 36.8638C56.8919 36.8638 54.7253 36.9673 52.0559 37.0043C49.3866 37.0413 46.3475 37.1152 43.057 37.13L32.7049 37.1818L22.3528 37.1226C19.0623 37.1226 15.9862 37.0413 13.3538 37.0043C10.7215 36.9673 8.51793 36.8934 6.9873 36.8564L4.56934 36.7825Z" fill="#9686D9"/>
<path d="M4.56934 39.3335L6.9873 39.2595C8.51793 39.2226 10.6845 39.1486 13.3538 39.1117C16.0232 39.0747 19.0623 39.0081 22.3528 38.9933L32.7049 38.9416L43.057 38.9933C46.3475 38.9933 49.4235 39.0821 52.0559 39.1117C54.6883 39.1412 56.8919 39.2226 58.4225 39.2595L60.8404 39.3335L58.4225 39.4148C56.8919 39.4148 54.7253 39.5184 52.0559 39.5553C49.3866 39.5923 46.3475 39.6662 43.057 39.681L32.7049 39.7328L22.3528 39.6736C19.0623 39.6736 15.9862 39.5849 13.3538 39.5553C10.7215 39.5257 8.51793 39.4444 6.9873 39.4074L4.56934 39.3335Z" fill="#9686D9"/>
<path d="M4.56934 41.8846L6.9873 41.8106C8.51793 41.8106 10.6845 41.6997 13.3538 41.6627C16.0232 41.6258 19.0623 41.5592 22.3528 41.5444L32.7049 41.4927L43.057 41.5444C46.3475 41.5444 49.4235 41.6332 52.0559 41.6627C54.6883 41.6923 56.8919 41.7737 58.4225 41.8106L60.8404 41.8846L58.4225 41.9585C56.8919 41.9585 54.7253 42.0694 52.0559 42.1064C49.3866 42.1434 46.3475 42.2173 43.057 42.2321L32.7049 42.2839L22.3528 42.2247C19.0623 42.2247 15.9862 42.136 13.3538 42.1064C10.7215 42.0768 8.51793 41.9955 6.9873 41.9585L4.56934 41.8846Z" fill="#9686D9"/>
<path d="M4.56934 44.4356L6.9873 44.3617C8.51793 44.3247 10.6845 44.2507 13.3538 44.2138C16.0232 44.1768 19.0623 44.1103 22.3528 44.0955L32.7049 44.0437L43.057 44.0955C46.3475 44.0955 49.4235 44.1842 52.0559 44.2138C54.6883 44.2433 56.8919 44.3247 58.4225 44.3617L60.8404 44.4356L58.4225 44.5095C56.8919 44.5465 54.7253 44.6205 52.0559 44.6574C49.3866 44.6944 46.3475 44.7683 43.057 44.7831L32.7049 44.8349L22.3528 44.7757C19.0623 44.7757 15.9862 44.6944 13.3538 44.6574C10.7215 44.6205 8.51793 44.5465 6.9873 44.5095L4.56934 44.4356Z" fill="#9686D9"/>
<path d="M4.56934 46.9867L6.9873 46.9128C8.51793 46.8758 10.6845 46.8018 13.3538 46.7649C16.0232 46.7279 19.0623 46.6613 22.3528 46.6466L32.7049 46.5948L43.057 46.6466C46.3475 46.6466 49.4235 46.7353 52.0559 46.7649C54.6883 46.7944 56.8919 46.8758 58.4225 46.9128L60.8404 46.9867L58.4225 47.068C56.8919 47.068 54.7253 47.1715 52.0559 47.2085C49.3866 47.2455 46.3475 47.3194 43.057 47.3342L32.7049 47.386L22.3528 47.3268C19.0623 47.3268 15.9862 47.2455 13.3538 47.2085C10.7215 47.1715 8.51793 47.0976 6.9873 47.0606L4.56934 46.9867Z" fill="#9686D9"/>
<path d="M4.56934 49.5452L6.9873 49.4712C8.51793 49.4712 10.6845 49.3603 13.3538 49.3233C16.0232 49.2864 19.0623 49.2198 22.3528 49.205L32.7049 49.1533L43.057 49.205C46.3475 49.205 49.4235 49.2937 52.0559 49.3233C54.6883 49.3529 56.8919 49.4342 58.4225 49.4712L60.8404 49.5452L58.4225 49.6265C56.8919 49.6265 54.7253 49.73 52.0559 49.767C49.3866 49.804 46.3475 49.8779 43.057 49.8927L32.7049 49.9445L22.3528 49.8853C19.0623 49.8853 15.9862 49.804 13.3538 49.767C10.7215 49.73 8.51793 49.6561 6.9873 49.6191L4.56934 49.5452Z" fill="#9686D9"/>
<path d="M4.56934 52.0887L6.9873 52.0148C8.51793 51.9778 10.6845 51.9039 13.3538 51.8669C16.0232 51.8299 19.0623 51.7634 22.3528 51.7486L32.7049 51.6968L43.057 51.7486C46.3475 51.7486 49.4235 51.8373 52.0559 51.8669C54.6883 51.8965 56.8919 51.9778 58.4225 52.0148L60.8404 52.0887L58.4225 52.1701C56.8919 52.1701 54.7253 52.2736 52.0559 52.3106C49.3866 52.3475 46.3475 52.4215 43.057 52.4363L32.7049 52.488L22.3528 52.4289C19.0623 52.4289 15.9862 52.3401 13.3538 52.3106C10.7215 52.281 8.51793 52.1996 6.9873 52.1627L4.56934 52.0887Z" fill="#9686D9"/>
<path d="M4.56934 54.6398L6.9873 54.5659C8.51793 54.5659 10.6845 54.455 13.3538 54.418C16.0232 54.381 19.0623 54.3145 22.3528 54.2997L32.7049 54.2479L43.057 54.2997C46.3475 54.2997 49.4235 54.3884 52.0559 54.418C54.6883 54.4476 56.8919 54.5289 58.4225 54.5659L60.8404 54.6398L58.4225 54.7138C56.8919 54.7138 54.7253 54.8247 52.0559 54.8617C49.3866 54.8986 46.3475 54.9726 43.057 54.9874L32.7049 55.0391L22.3528 54.98C19.0623 54.98 15.9862 54.8912 13.3538 54.8617C10.7215 54.8321 8.51793 54.7507 6.9873 54.7138L4.56934 54.6398Z" fill="#9686D9"/>
<path d="M4.56934 57.1909L6.9873 57.117C8.51793 57.08 10.6845 57.0061 13.3538 56.9691C16.0232 56.9321 19.0623 56.8656 22.3528 56.8508L32.7049 56.799L43.057 56.8508C46.3475 56.8508 49.4235 56.9395 52.0559 56.9691C54.6883 56.9987 56.8919 57.08 58.4225 57.117L60.8404 57.1909L58.4225 57.2649C56.8919 57.3018 54.7253 57.3758 52.0559 57.4127C49.3866 57.4497 46.3475 57.5237 43.057 57.5384L32.7049 57.5902L22.3528 57.5311C19.0623 57.5311 15.9862 57.4497 13.3538 57.4127C10.7215 57.3758 8.51793 57.3018 6.9873 57.2649L4.56934 57.1909Z" fill="#9686D9"/>
<path d="M4.56934 59.7419L6.9873 59.668C8.51793 59.631 10.6845 59.5571 13.3538 59.5201C16.0232 59.4831 19.0623 59.4166 22.3528 59.4018L32.7049 59.35L43.057 59.4018C46.3475 59.4018 49.4235 59.4905 52.0559 59.5201C54.6883 59.5497 56.8919 59.631 58.4225 59.668L60.8404 59.7419L58.4225 59.8233C56.8919 59.8233 54.7253 59.9268 52.0559 59.9638C49.3866 60.0007 46.3475 60.0747 43.057 60.0895L32.7049 60.1412L22.3528 60.0821C19.0623 60.0821 15.9862 60.0007 13.3538 59.9638C10.7215 59.9268 8.51793 59.8529 6.9873 59.8159L4.56934 59.7419Z" fill="#9686D9"/>
<path d="M4.56934 62.293L6.9873 62.2191C8.51793 62.2191 10.6845 62.1082 13.3538 62.0712C16.0232 62.0342 19.0623 61.9677 22.3528 61.9529L32.7049 61.9011L43.057 61.9529C46.3475 61.9529 49.4235 62.0416 52.0559 62.0712C54.6883 62.1008 56.8919 62.1821 58.4225 62.2191L60.8404 62.293L58.4225 62.3744C56.8919 62.3744 54.7253 62.4779 52.0559 62.5148C49.3866 62.5518 46.3475 62.6258 43.057 62.6406L32.7049 62.6923L22.3528 62.6332C19.0623 62.6332 15.9862 62.5518 13.3538 62.5148C10.7215 62.4779 8.51793 62.4039 6.9873 62.367L4.56934 62.293Z" fill="#9686D9"/>
<path d="M4.56934 64.844L6.9873 64.7701C8.51793 64.7331 10.6845 64.6592 13.3538 64.6222C16.0232 64.5852 19.0623 64.5187 22.3528 64.5039L32.7049 64.4521L43.057 64.5039C46.3475 64.5039 49.4235 64.5926 52.0559 64.6222C54.6883 64.6518 56.8919 64.7331 58.4225 64.7701L60.8404 64.844L58.4225 64.9254C56.8919 64.9254 54.7253 65.0289 52.0559 65.0659C49.3866 65.1029 46.3475 65.1768 43.057 65.1916L32.7049 65.2433L22.3528 65.1842C19.0623 65.1842 15.9862 65.0955 13.3538 65.0659C10.7215 65.0363 8.51793 64.955 6.9873 64.918L4.56934 64.844Z" fill="#9686D9"/>
<path d="M4.56934 67.3951L6.9873 67.3212C8.51793 67.3212 10.6845 67.2103 13.3538 67.1733C16.0232 67.1363 19.0623 67.0698 22.3528 67.055L32.7049 67.0032L43.057 67.055C46.3475 67.055 49.4235 67.1437 52.0559 67.1733C54.6883 67.2029 56.8919 67.2842 58.4225 67.3212L60.8404 67.3951L58.4225 67.4765C56.8919 67.4765 54.7253 67.58 52.0559 67.617C49.3866 67.6539 46.3475 67.7279 43.057 67.7427L32.7049 67.7944L22.3528 67.7353C19.0623 67.7353 15.9862 67.6539 13.3538 67.617C10.7215 67.58 8.51793 67.5061 6.9873 67.4691L4.56934 67.3951Z" fill="#9686D9"/>
<path d="M4.56934 69.9462L6.9873 69.8722C8.51793 69.8352 10.6845 69.7613 13.3538 69.7243C16.0232 69.6874 19.0623 69.6208 22.3528 69.606L32.7049 69.5543L43.057 69.606C46.3475 69.606 49.4235 69.6948 52.0559 69.7243C54.6883 69.7539 56.8919 69.8352 58.4225 69.8722L60.8404 69.9462L58.4225 70.0201C56.8919 70.0571 54.7253 70.131 52.0559 70.168C49.3866 70.205 46.3475 70.2789 43.057 70.2937L32.7049 70.3455L22.3528 70.2863C19.0623 70.2863 15.9862 70.1976 13.3538 70.168C10.7215 70.1384 8.51793 70.0571 6.9873 70.0201L4.56934 69.9462Z" fill="#9686D9"/>
<path d="M4.56934 72.4677L6.9873 72.3938C8.51793 72.3568 10.6845 72.2829 13.3538 72.2459C16.0232 72.2089 19.0623 72.1424 22.3528 72.1276L32.7049 72.0758L43.057 72.1276C46.3475 72.1276 49.4235 72.2163 52.0559 72.2459C54.6883 72.2755 56.8919 72.3568 58.4225 72.3938L60.8404 72.4677L58.4225 72.549C56.8919 72.549 54.7253 72.6526 52.0559 72.6895C49.3866 72.7265 46.3475 72.8005 43.057 72.8152L32.7049 72.867L22.3528 72.8078C19.0623 72.8078 15.9862 72.7265 13.3538 72.6895C10.7215 72.6526 8.51793 72.5786 6.9873 72.5417L4.56934 72.4677Z" fill="#9686D9"/>
<path d="M4.56934 75.0483L6.9873 74.9743C8.51793 74.9374 10.6845 74.8634 13.3538 74.8265C16.0232 74.7895 19.0623 74.7229 22.3528 74.7081L32.7049 74.6564L43.057 74.7081C46.3475 74.7081 49.4235 74.7969 52.0559 74.8265C54.6883 74.856 56.8919 74.9374 58.4225 74.9743L60.8404 75.0483L58.4225 75.1222C56.8919 75.1592 54.7253 75.2331 52.0559 75.2701C49.3866 75.3071 46.3475 75.381 43.057 75.3958L32.7049 75.4476L22.3528 75.3884C19.0623 75.3884 15.9862 75.3071 13.3538 75.2701C10.7215 75.2331 8.51793 75.1592 6.9873 75.1222L4.56934 75.0483Z" fill="#9686D9"/>
<path d="M4.56934 77.5993L6.9873 77.5253C8.51793 77.5253 10.6845 77.4144 13.3538 77.3775C16.0232 77.3405 19.0623 77.274 22.3528 77.2592L32.7049 77.2074L43.057 77.2592C46.3475 77.2592 49.4235 77.3479 52.0559 77.3775C54.6883 77.4071 56.8919 77.4884 58.4225 77.5253L60.8404 77.5993L58.4225 77.6806C56.8919 77.6806 54.7253 77.7841 52.0559 77.8211C49.3866 77.8581 46.3475 77.932 43.057 77.9468L32.7049 77.9986L22.3528 77.9394C19.0623 77.9394 15.9862 77.8507 13.3538 77.8211C10.7215 77.7915 8.51793 77.7102 6.9873 77.6732L4.56934 77.5993Z" fill="#9686D9"/>
<path d="M4.56934 80.1504L6.9873 80.0765C8.51793 80.0395 10.6845 79.9655 13.3538 79.9286C16.0232 79.8916 19.0623 79.825 22.3528 79.8102L32.7049 79.7585L43.057 79.8102C46.3475 79.8102 49.4235 79.899 52.0559 79.9286C54.6883 79.9581 56.8919 80.0395 58.4225 80.0765L60.8404 80.1504L58.4225 80.2317C56.8919 80.2317 54.7253 80.3353 52.0559 80.3722C49.3866 80.4092 46.3475 80.4831 43.057 80.4979L32.7049 80.5497L22.3528 80.4905C19.0623 80.4905 15.9862 80.4092 13.3538 80.3722C10.7215 80.3353 8.51793 80.2613 6.9873 80.2243L4.56934 80.1504Z" fill="#9686D9"/>
<path d="M4.56934 82.7015L6.9873 82.6275C8.51793 82.5906 10.6845 82.5166 13.3538 82.4796C16.0232 82.4427 19.0623 82.3761 22.3528 82.3613L32.7049 82.3096L43.057 82.3613C46.3475 82.3613 49.4235 82.4501 52.0559 82.4796C54.6883 82.5092 56.8919 82.5906 58.4225 82.6275L60.8404 82.7015L58.4225 82.7754C56.8919 82.8124 54.7253 82.8863 52.0559 82.9233C49.3866 82.9603 46.3475 83.0342 43.057 83.049L32.7049 83.1008L22.3528 83.0416C19.0623 83.0416 15.9862 82.9529 13.3538 82.9233C10.7215 82.8937 8.51793 82.8124 6.9873 82.7754L4.56934 82.7015Z" fill="#9686D9"/>
</g>
<path d="M32.3281 4.56521C39.9369 4.64655 45.5788 6.19936 49.1059 9.19408C52.633 12.1888 54.3411 17.1282 54.3411 23.9828V24.323C54.1858 33.7877 50.9989 39.7476 44.6028 42.5279L42.8651 43.2673L44.5806 44.0659C52.2559 47.6448 55.9901 53.5159 55.9901 62.0342C55.9901 69.7465 54.0675 75.2997 50.2816 78.5311C46.4957 81.7624 40.4471 83.4557 32.4464 83.4557H31.988C27.7462 83.4636 23.5278 82.8278 19.4767 81.5701C15.8553 80.2624 12.5713 78.1632 9.86404 75.4254L12.4964 70.8335C14.1192 73.3573 16.2999 75.4748 18.8704 77.0226C21.6733 78.5411 24.8226 79.3055 28.0098 79.2409C38.5763 79.2409 43.9447 73.6064 43.9447 62.4853V62.1303C43.9447 51.4751 39.1753 46.0772 29.7771 46.0772H22.9669V41.7663H30.3612C34.8718 41.7663 38.1771 40.3835 40.1809 37.6476C42.1848 34.9117 43.1387 30.8226 43.1387 25.2473V24.7592C43.0573 19.3983 41.9186 15.3758 39.7594 12.7951C37.6003 10.2145 33.8661 8.87613 28.9119 8.87613H28.557C23.4475 8.87613 19.1366 11.612 15.7204 17.0099L13.1176 12.5733C15.4888 9.99214 18.369 7.93015 21.5767 6.51732C24.8048 5.20715 28.2603 4.54874 31.744 4.58H32.3281M32.3281 3.72965H31.744C28.1481 3.69465 24.5812 4.37585 21.2514 5.73352C17.7487 7.28114 14.6213 9.56622 12.0823 12.4328L15.7352 18.6811C19.1119 12.7163 23.3933 9.73141 28.5792 9.72648H28.9341C33.6517 9.72648 37.0309 10.9441 39.0718 13.3793C41.1126 15.8145 42.1725 19.6251 42.2514 24.811V25.2842C42.2514 30.7068 41.3271 34.6726 39.4785 37.1818C37.6299 39.6909 34.5859 40.948 30.3464 40.9529H22.0795V46.9645H29.7401C38.6133 46.9645 43.0499 52.0321 43.0499 62.1673V62.5222C43.0499 73.1258 38.0218 78.4275 27.9654 78.4275C24.922 78.4906 21.9146 77.7592 19.2401 76.3053C16.726 74.8906 14.4485 72.5342 12.4077 69.2363L8.75488 75.6029C11.654 78.6434 15.2246 80.963 19.1809 82.3761C23.3227 83.6627 27.6362 84.311 31.9732 84.2986H32.4464C40.6985 84.2986 46.826 82.5906 50.8288 79.1744C54.8316 75.7582 56.8355 70.0423 56.8404 62.0268C56.8404 53.2275 52.8746 46.9817 44.9429 43.2895C51.6225 40.381 55.0387 34.0564 55.1915 24.3156V23.9606C55.1915 16.8177 53.3454 11.6712 49.6531 8.5212C45.9609 5.3712 40.1859 3.76416 32.3281 3.70007V3.72965Z" fill="#161548"/>
<path d="M12.4149 69.2363L10.8843 71.8983C12.2335 73.6861 13.9189 75.1932 15.8459 76.3349C18.5204 77.7888 21.5278 78.5202 24.5712 78.4571C25.1998 78.4571 25.8061 78.4571 26.3976 78.3979C23.8907 78.2492 21.4482 77.5446 19.2473 76.3349C16.7332 74.9004 14.4557 72.5342 12.4149 69.2363Z" fill="#161548"/>
<path d="M25.7102 9.14233C21.3993 9.14233 17.1623 11.7969 14.1011 15.923L15.7131 18.6811C18.8187 13.1994 22.6835 10.2416 27.3074 9.80782C26.7306 9.76346 26.6567 9.20888 26.0356 9.20888L25.7102 9.14233Z" fill="#161548"/>
<path d="M44.9428 43.3117C51.6224 40.4032 55.0386 34.0786 55.1914 24.3377V23.9828C55.1914 16.8399 53.3453 11.6934 49.653 8.54338C45.9608 5.39338 40.1858 3.77895 32.328 3.70007H31.7439C31.2632 3.70007 30.7974 3.70007 30.3315 3.70007C37.4745 3.95148 42.7812 5.55113 46.2516 8.49902C49.9389 11.649 51.7851 16.7955 51.79 23.9384V24.2934C51.6372 34.0392 48.2185 40.3638 41.534 43.2673C49.4756 46.9596 53.4439 53.2053 53.4389 62.0046C53.4389 70.0201 51.4351 75.736 47.4273 79.1522C43.7301 82.3022 38.2213 83.9979 30.9009 84.2395H31.9731H32.4463C40.6984 84.2395 46.8259 82.5314 50.8287 79.1152C54.8315 75.699 56.8354 69.9832 56.8403 61.9677C56.8403 53.2226 52.8745 47.0039 44.9428 43.3117Z" fill="#161548"/>
</svg>
