<svg width="63" height="88" viewBox="0 0 63 88" fill="none" xmlns="http://www.w3.org/2000/svg">
<g clip-path="url(#clip0_728_20779)">
<path d="M27.5641 88V74.7031L30.8454 74.181C32.4413 73.92 33.5302 73.6963 34.2759 73.5098V70.8475H1L36.461 0H56.6488V54.4407H63.3607V70.8475H56.6488V73.5546C57.3946 73.7559 58.5729 74.017 60.0719 74.3003L63.3607 74.9342V88H27.5641ZM34.2759 54.4407V36.9227L25.4759 54.4407H34.2759Z" fill="white"/>
<path d="M31.8376 83.5776V77.9919C36.2724 77.2809 38.4923 76.5351 38.4972 75.7546V67.2976H7.23486L38.8552 3.72882H52.8755V59.2136H59.1773V67.2976H52.8755V75.7397C52.8755 76.4506 54.9761 77.2411 59.1773 78.1112V83.5776H31.8376ZM19.2416 59.2136H38.4972V20.1356L37.304 22.8725L19.2416 59.2136Z" fill="#6362D1"/>
<mask id="mask0_728_20779" style="mask-type:luminance" maskUnits="userSpaceOnUse" x="7" y="3" width="53" height="81">
<mask id="mask1_728_20779" style="mask-type:luminance" maskUnits="userSpaceOnUse" x="7" y="3" width="53" height="81">
<path d="M31.8376 83.5776V77.9919C36.2724 77.2809 38.4923 76.5351 38.4972 75.7546V67.2976H7.23486L38.8552 3.72882H52.8755V59.2136H59.1773V67.2976H52.8755V75.7397C52.8755 76.4506 54.9761 77.2411 59.1773 78.1112V83.5776H31.8376ZM19.2416 59.2136H38.4972V20.1356L37.304 22.8725L19.2416 59.2136Z" fill="white"/>
</mask>
<g mask="url(#mask1_728_20779)">
<path d="M31.8376 83.5776V77.9919C36.2724 77.2809 38.4923 76.5351 38.4972 75.7546V67.2976H7.23486L38.8552 3.72882H52.8755V59.2136H59.1773V67.2976H52.8755V75.7397C52.8755 76.4506 54.9761 77.2411 59.1773 78.1112V83.5776H31.8376ZM19.2416 59.2136H38.4972V20.1356L37.304 22.8725L19.2416 59.2136Z" fill="white"/>
</g>
</mask>
<g mask="url(#mask0_728_20779)">
<path d="M2.14111 5.4739C4.70654 5.38441 7.26449 5.33967 9.82246 5.27256L17.5038 5.15323C22.6198 5.08611 27.7431 5.09357 32.8591 5.05628C37.975 5.01899 43.0984 5.05628 48.2143 5.15323L55.8957 5.27256C58.4536 5.33967 61.0116 5.37695 63.577 5.4739C61.0116 5.57085 58.4536 5.60814 55.8957 5.67526L48.2143 5.79459C43.0984 5.86171 37.975 5.85424 32.8591 5.89153C27.7431 5.92882 22.6198 5.89154 17.5038 5.79459L9.82246 5.67526C7.26449 5.60814 4.70654 5.57085 2.14111 5.4739Z" fill="#9686D9"/>
<path d="M2.14111 8.04678C4.70654 7.95729 7.26449 7.91255 9.82246 7.84543L17.5038 7.72611C22.6198 7.65899 27.7431 7.66644 32.8591 7.62915C37.975 7.59187 43.0984 7.62916 48.2143 7.72611L55.8957 7.84543C58.4536 7.91255 61.0116 7.94983 63.577 8.04678C61.0116 8.14373 58.4536 8.18102 55.8957 8.24814L48.2143 8.36746C43.0984 8.43458 37.975 8.42713 32.8591 8.46442C27.7431 8.5017 22.6198 8.46441 17.5038 8.36746L9.82246 8.24814C7.26449 8.20339 4.70654 8.14373 2.14111 8.04678Z" fill="#9686D9"/>
<path d="M2.14111 10.6197C4.70654 10.5302 7.26449 10.4854 9.82246 10.4183L17.5038 10.299C22.6198 10.2319 27.7431 10.2393 32.8591 10.202C37.975 10.1647 43.0984 10.202 48.2143 10.299L55.9031 10.4407C58.4611 10.5078 61.0191 10.5451 63.5845 10.642C61.0191 10.739 58.4611 10.7763 55.9031 10.8434L48.2218 10.9627C43.1059 11.0298 37.9825 11.0224 32.8665 11.0597C27.7506 11.097 22.6272 11.0597 17.5113 10.9627L9.82992 10.8434C7.2645 10.7539 4.70654 10.7166 2.14111 10.6197Z" fill="#9686D9"/>
<path d="M2.14111 13.1925C4.70654 13.103 7.26449 13.0583 9.82246 12.9912L17.5038 12.8718C22.6198 12.8047 27.7431 12.8122 32.8591 12.7749C37.975 12.7376 43.0984 12.7749 48.2143 12.8718L55.8957 12.9912C58.4536 13.0583 61.0116 13.0956 63.577 13.1925C61.0116 13.2895 58.4536 13.3268 55.8957 13.3939L48.2143 13.5132C43.0984 13.5803 37.975 13.5729 32.8591 13.6102C27.7431 13.6474 22.6198 13.6102 17.5038 13.5132L9.82246 13.3939C7.26449 13.3268 4.70654 13.2895 2.14111 13.1925Z" fill="#9686D9"/>
<path d="M2.14111 15.7654C4.70654 15.6759 7.26449 15.6312 9.82246 15.564L17.5038 15.4447C22.6198 15.3776 27.7431 15.3851 32.8591 15.3478C37.975 15.3105 43.0984 15.3478 48.2143 15.4447L55.8957 15.564C58.4536 15.6312 61.0116 15.6685 63.577 15.7654C61.0116 15.8624 58.4536 15.8996 55.8957 15.9668L48.2143 16.0861C43.0984 16.1532 37.975 16.1457 32.8591 16.183C27.7431 16.2203 22.6198 16.183 17.5038 16.0861L9.82246 15.9668C7.26449 15.8996 4.70654 15.8624 2.14111 15.7654Z" fill="#9686D9"/>
<path d="M2.14111 18.3383C4.70654 18.2488 7.26449 18.2041 9.82246 18.1369L17.5038 18.0176C22.6198 17.9505 27.7431 17.9579 32.8591 17.9207C37.975 17.8834 43.0984 17.9207 48.2143 18.0176L55.8957 18.1369C58.4536 18.2041 61.0116 18.2413 63.577 18.3383C61.0116 18.4352 58.4536 18.4725 55.8957 18.5396L48.2143 18.659C43.0984 18.7261 37.975 18.7186 32.8591 18.7559C27.7431 18.7932 22.6198 18.7559 17.5038 18.659L9.82246 18.5396C7.26449 18.4725 4.70654 18.4352 2.14111 18.3383Z" fill="#9686D9"/>
<path d="M2.14111 20.8814C4.70654 20.7919 7.26449 20.7471 9.82246 20.68L17.5038 20.5607C22.6198 20.4936 27.7431 20.501 32.8591 20.4637C37.975 20.4265 43.0984 20.4638 48.2143 20.5607L55.8957 20.68C58.4536 20.7471 61.0116 20.7844 63.577 20.8814C61.0116 20.9783 58.4536 21.0156 55.8957 21.0827L48.2143 21.202C43.0984 21.2692 37.975 21.2617 32.8591 21.299C27.7431 21.3363 22.6198 21.299 17.5038 21.202L9.82246 21.0827C7.26449 21.0454 4.70654 21.0082 2.14111 20.8814Z" fill="#9686D9"/>
<path d="M2.14111 23.4841C4.70654 23.3946 7.26449 23.3499 9.82246 23.2827L17.5038 23.1634C22.6198 23.0963 27.7431 23.1038 32.8591 23.0665C37.975 23.0292 43.0984 23.0665 48.2143 23.1634L55.8957 23.2827C58.4536 23.3499 61.0116 23.3872 63.577 23.4841C61.0116 23.5811 58.4536 23.6183 55.8957 23.6855L48.2143 23.8048C43.0984 23.8719 37.975 23.8644 32.8591 23.9017C27.7431 23.939 22.6198 23.9017 17.5038 23.8048L9.82246 23.6855C7.26449 23.6183 4.70654 23.5811 2.14111 23.4841Z" fill="#9686D9"/>
<path d="M2.14111 26.057C4.70654 25.9675 7.26449 25.9227 9.82246 25.8556L17.5038 25.7363C22.6198 25.6692 27.7431 25.6766 32.8591 25.6393C37.975 25.6021 43.0984 25.6393 48.2143 25.7363L55.8957 25.8556C58.4536 25.9227 61.0116 25.96 63.577 26.057C61.0116 26.1539 58.4536 26.1912 55.8957 26.2583L48.2143 26.3776C43.0984 26.4448 37.975 26.4373 32.8591 26.4746C27.7431 26.5119 22.6198 26.4746 17.5038 26.3776L9.82246 26.2583C7.26449 26.1912 4.70654 26.1539 2.14111 26.057Z" fill="#9686D9"/>
<path d="M2.14111 28.6298C4.70654 28.5404 7.26449 28.4956 9.82246 28.4285L17.5038 28.3092C22.6198 28.2421 27.7431 28.2495 32.8591 28.2122C37.975 28.1749 43.0984 28.2122 48.2143 28.3092L55.8957 28.4285C58.4536 28.4956 61.0116 28.5329 63.577 28.6298C61.0116 28.7268 58.4536 28.7641 55.8957 28.8312L48.2143 28.9505C43.0984 29.0177 37.975 29.0102 32.8591 29.0475C27.7431 29.0848 22.6198 29.0475 17.5038 28.9505L9.82246 28.8312C7.26449 28.7641 4.70654 28.7268 2.14111 28.6298Z" fill="#9686D9"/>
<path d="M2.14111 31.2027C4.70654 31.1132 7.26449 31.0685 9.82246 31.0014L17.5038 30.8821C22.6198 30.8149 27.7431 30.8224 32.8591 30.7851C37.975 30.7478 43.0984 30.7851 48.2143 30.8821L55.8957 31.0014C58.4536 31.0685 61.0116 31.1058 63.577 31.2027C61.0116 31.2997 58.4536 31.337 55.8957 31.4041L48.2143 31.5234C43.0984 31.5905 37.975 31.5831 32.8591 31.6203C27.7431 31.6576 22.6198 31.6204 17.5038 31.5234L9.82246 31.4041C7.26449 31.322 4.70654 31.322 2.14111 31.2027Z" fill="#9686D9"/>
<path d="M2.14111 33.7756C4.70654 33.6861 7.26449 33.6414 9.82246 33.5743L17.5038 33.4549C22.6198 33.3878 27.7431 33.3953 32.8591 33.358C37.975 33.3207 43.0984 33.358 48.2143 33.4549L55.9031 33.5593C58.4611 33.6265 61.0191 33.6637 63.5845 33.7607C61.0191 33.8576 58.4611 33.8949 55.9031 33.962L48.2218 34.0814C43.1059 34.1485 37.9825 34.141 32.8665 34.1783C27.7506 34.2156 22.6272 34.1783 17.5113 34.0814L9.82992 33.962C7.2645 33.9098 4.70654 33.8725 2.14111 33.7756Z" fill="#9686D9"/>
<path d="M2.14111 36.3485C4.70654 36.259 7.26449 36.2142 9.82246 36.1471L17.5038 36.0278C22.6198 35.9607 27.7431 35.9681 32.8591 35.9309C37.975 35.8936 43.0984 35.9309 48.2143 36.0278L55.8957 36.1471C58.4536 36.2142 61.0116 36.2515 63.577 36.3485C61.0116 36.4454 58.4536 36.4827 55.8957 36.5498L48.2143 36.6692C43.0984 36.7363 37.975 36.7288 32.8591 36.7661C27.7431 36.8034 22.6198 36.7661 17.5038 36.6692L9.82246 36.5498C7.26449 36.4827 4.70654 36.4454 2.14111 36.3485Z" fill="#9686D9"/>
<path d="M2.14111 38.9214C4.70654 38.8319 7.26449 38.7871 9.82246 38.72L17.5038 38.6007C22.6198 38.5336 27.7431 38.541 32.8591 38.5037C37.975 38.4664 43.0984 38.5037 48.2143 38.6007L55.8957 38.72C58.4536 38.7871 61.0116 38.8244 63.577 38.9214C61.0116 39.0183 58.4536 39.0556 55.8957 39.1227L48.2143 39.242C43.0984 39.3091 37.975 39.3017 32.8591 39.339C27.7431 39.3763 22.6198 39.339 17.5038 39.242L9.82246 39.1227C7.26449 39.0556 4.70654 39.0183 2.14111 38.9214Z" fill="#9686D9"/>
<path d="M2.14111 41.4942C4.70654 41.4047 7.26449 41.36 9.82246 41.2929L17.5038 41.1736C22.6198 41.1064 27.7431 41.1139 32.8591 41.0766C37.975 41.0393 43.0984 41.0766 48.2143 41.1736L55.8957 41.2929C58.4536 41.36 61.0116 41.3973 63.577 41.4942C61.0116 41.5912 58.4536 41.6285 55.8957 41.6956L48.2143 41.8149C43.0984 41.882 37.975 41.8746 32.8591 41.9119C27.7431 41.9491 22.6198 41.9119 17.5038 41.8149L9.82246 41.6956C7.26449 41.6285 4.70654 41.5912 2.14111 41.4942Z" fill="#9686D9"/>
<path d="M2.14111 44.0671C4.70654 43.9776 7.26449 43.9329 9.82246 43.8658L17.5038 43.7464C22.6198 43.6793 27.7431 43.6868 32.8591 43.6495C37.975 43.6122 43.0984 43.6495 48.2143 43.7464L55.8957 43.8658C58.4536 43.9329 61.0116 43.9702 63.577 44.0671C61.0116 44.1641 58.4536 44.2013 55.8957 44.2685L48.2143 44.3878C43.0984 44.4549 37.975 44.4474 32.8591 44.4847C27.7431 44.522 22.6198 44.4847 17.5038 44.3878L9.82246 44.2685C7.26449 44.2013 4.70654 44.1641 2.14111 44.0671Z" fill="#9686D9"/>
<path d="M2.14111 46.64C4.70654 46.5505 7.26449 46.5058 9.82246 46.4386L17.5038 46.3193C22.6198 46.2522 27.7431 46.2596 32.8591 46.2224C37.975 46.1851 43.0984 46.2224 48.2143 46.3193L55.8957 46.4386C58.4536 46.5058 61.0116 46.543 63.577 46.64C61.0116 46.7369 58.4536 46.7742 55.8957 46.8413L48.2143 46.9607C43.0984 47.0278 37.975 47.0203 32.8591 47.0576C27.7431 47.0949 22.6198 47.0576 17.5038 46.9607L9.82246 46.8413C7.26449 46.7742 4.70654 46.7369 2.14111 46.64Z" fill="#9686D9"/>
<path d="M2.14111 49.2203C4.70654 49.1308 7.26449 49.0861 9.82246 49.0189L17.5038 48.8996C22.6198 48.8325 27.7431 48.84 32.8591 48.8027C37.975 48.7654 43.0984 48.8027 48.2143 48.8996L55.8957 49.0189C58.4536 49.0861 61.0116 49.1234 63.577 49.2203C61.0116 49.3173 58.4536 49.3545 55.8957 49.4217L48.2143 49.541C43.0984 49.6081 37.975 49.6006 32.8591 49.6379C27.7431 49.6752 22.6198 49.6379 17.5038 49.541L9.82246 49.4217C7.26449 49.3471 4.70654 49.3098 2.14111 49.2203Z" fill="#9686D9"/>
<path d="M2.14111 51.7857C4.70654 51.6962 7.26449 51.6515 9.82246 51.5844L17.5038 51.465C22.6198 51.3979 27.7431 51.4054 32.8591 51.3681C37.975 51.3308 43.0984 51.3681 48.2143 51.465L55.8957 51.5844C58.4536 51.6515 61.0116 51.6888 63.577 51.7857C61.0116 51.8827 58.4536 51.92 55.8957 51.9871L48.2143 52.1064C43.0984 52.1735 37.975 52.1661 32.8591 52.2034C27.7431 52.2406 22.6198 52.2034 17.5038 52.1064L9.82246 51.9871C7.26449 51.92 4.70654 51.8827 2.14111 51.7857Z" fill="#9686D9"/>
<path d="M2.14111 54.3586C4.70654 54.2691 7.26449 54.2244 9.82246 54.1572L17.5038 54.0379C22.6198 53.9708 27.7431 53.9783 32.8591 53.941C37.975 53.9037 43.0984 53.941 48.2143 54.0379L55.8957 54.1572C58.4536 54.2244 61.0116 54.2617 63.577 54.3586C61.0116 54.4556 58.4536 54.4928 55.8957 54.56L48.2143 54.6793C43.0984 54.7464 37.975 54.7389 32.8591 54.7762C27.7431 54.8135 22.6198 54.7762 17.5038 54.6793L9.82246 54.56C7.26449 54.4928 4.70654 54.4406 2.14111 54.3586Z" fill="#9686D9"/>
<path d="M2.14111 56.9315C4.70654 56.842 7.26449 56.7973 9.82246 56.7301L17.5038 56.6108C22.6198 56.5437 27.7431 56.5511 32.8591 56.5139C37.975 56.4766 43.0984 56.5139 48.2143 56.6108L55.8957 56.7301C58.4536 56.7973 61.0116 56.8345 63.577 56.9315C61.0116 57.0284 58.4536 57.0657 55.8957 57.1328L48.2143 57.2522C43.0984 57.3193 37.975 57.3118 32.8591 57.3491C27.7431 57.3864 22.6198 57.3491 17.5038 57.2522L9.82246 57.1328C7.26449 57.0657 4.70654 57.0284 2.14111 56.9315Z" fill="#9686D9"/>
<path d="M2.14111 59.5044C4.70654 59.4149 7.26449 59.3701 9.82246 59.303L17.5038 59.1837C22.6198 59.1166 27.7431 59.124 32.8591 59.0867C37.975 59.0494 43.0984 59.0867 48.2143 59.1837L55.8957 59.303C58.4536 59.3701 61.0116 59.4074 63.577 59.5044C61.0116 59.6013 58.4536 59.6386 55.8957 59.7057L48.2143 59.825C43.0984 59.8922 37.975 59.8847 32.8591 59.922C27.7431 59.9593 22.6198 59.922 17.5038 59.825L9.82246 59.7057C7.26449 59.661 4.70654 59.6013 2.14111 59.5044Z" fill="#9686D9"/>
<path d="M2.14111 62.0773C4.70654 61.9878 7.26449 61.9431 9.82246 61.8759L17.5038 61.7566C22.6198 61.6895 27.7431 61.697 32.8591 61.6597C37.975 61.6224 43.0984 61.6597 48.2143 61.7566L55.9031 61.8983C58.4611 61.9654 61.0191 62.0027 63.5845 62.0997C61.0191 62.1966 58.4611 62.2339 55.9031 62.301L48.2218 62.4204C43.1059 62.4875 37.9825 62.48 32.8665 62.5173C27.7506 62.5546 22.6272 62.5173 17.5113 62.4204L9.82992 62.301C7.2645 62.2115 4.70654 62.1743 2.14111 62.0773Z" fill="#9686D9"/>
<path d="M2.14111 64.6502C4.70654 64.5607 7.26449 64.5159 9.82246 64.4488L17.5038 64.3295C22.6198 64.2624 27.7431 64.2698 32.8591 64.2325C37.975 64.1953 43.0984 64.2325 48.2143 64.3295L55.8957 64.4488C58.4536 64.5159 61.0116 64.5532 63.577 64.6502C61.0116 64.7471 58.4536 64.7844 55.8957 64.8515L48.2143 64.9708C43.0984 65.038 37.975 65.0305 32.8591 65.0678C27.7431 65.1051 22.6198 65.0678 17.5038 64.9708L9.82246 64.8515C7.26449 64.7844 4.70654 64.7471 2.14111 64.6502Z" fill="#9686D9"/>
<path d="M2.14111 67.223C4.70654 67.1336 7.26449 67.0888 9.82246 67.0217L17.5038 66.9024C22.6198 66.8353 27.7431 66.8427 32.8591 66.8054C37.975 66.7681 43.0984 66.8054 48.2143 66.9024L55.8957 67.0217C58.4536 67.0888 61.0116 67.1261 63.577 67.223C61.0116 67.32 58.4536 67.3573 55.8957 67.4244L48.2143 67.5437C43.0984 67.6109 37.975 67.6034 32.8591 67.6407C27.7431 67.678 22.6198 67.6407 17.5038 67.5437L9.82246 67.4244C7.26449 67.3573 4.70654 67.32 2.14111 67.223Z" fill="#9686D9"/>
<path d="M2.14111 69.7959C4.70654 69.7064 7.26449 69.6617 9.82246 69.5946L17.5038 69.4753C22.6198 69.4081 27.7431 69.4156 32.8591 69.3783C37.975 69.341 43.0984 69.3783 48.2143 69.4753L55.8957 69.5946C58.4536 69.6617 61.0116 69.699 63.577 69.7959C61.0116 69.8929 58.4536 69.9302 55.8957 69.9973L48.2143 70.1166C43.0984 70.1837 37.975 70.1763 32.8591 70.2136C27.7431 70.2508 22.6198 70.2135 17.5038 70.1166L9.82246 69.9973C7.26449 69.9302 4.70654 69.8929 2.14111 69.7959Z" fill="#9686D9"/>
<path d="M2.14111 72.339C4.70654 72.2495 7.26449 72.2047 9.82246 72.1376L17.5038 72.0183C22.6198 71.9512 27.7431 71.9586 32.8591 71.9213C37.975 71.884 43.0984 71.9213 48.2143 72.0183L55.8957 72.1376C58.4536 72.2047 61.0116 72.242 63.577 72.339C61.0116 72.4359 58.4536 72.4732 55.8957 72.5403L48.2143 72.6596C43.0984 72.7267 37.975 72.7193 32.8591 72.7566C27.7431 72.7939 22.6198 72.7566 17.5038 72.6596L9.82246 72.5403C7.26449 72.503 4.70654 72.4657 2.14111 72.339Z" fill="#9686D9"/>
<path d="M2.14111 74.9417C4.70654 74.8522 7.26449 74.8074 9.82246 74.7403L17.5038 74.621C22.6198 74.5539 27.7431 74.5613 32.8591 74.5241C37.975 74.4868 43.0984 74.5241 48.2143 74.621L55.8957 74.7403C58.4536 74.8074 61.0116 74.8447 63.577 74.9417C61.0116 75.0386 58.4536 75.0759 55.8957 75.143L48.2143 75.2624C43.0984 75.3295 37.975 75.322 32.8591 75.3593C27.7431 75.3966 22.6198 75.3593 17.5038 75.2624L9.82246 75.143C7.26449 75.0759 4.70654 75.0386 2.14111 74.9417Z" fill="#9686D9"/>
<path d="M2.14111 77.5146C4.70654 77.4251 7.26449 77.3803 9.82246 77.3132L17.5038 77.1939C22.6198 77.1268 27.7431 77.1342 32.8591 77.0969C37.975 77.0596 43.0984 77.0969 48.2143 77.1939L55.8957 77.3132C58.4536 77.3803 61.0116 77.4176 63.577 77.5146C61.0116 77.6115 58.4536 77.6488 55.8957 77.7159L48.2143 77.8352C43.0984 77.9023 37.975 77.8949 32.8591 77.9322C27.7431 77.9695 22.6198 77.9322 17.5038 77.8352L9.82246 77.7159C7.26449 77.6488 4.70654 77.6115 2.14111 77.5146Z" fill="#9686D9"/>
<path d="M2.14111 80.0875C4.70654 79.998 7.26449 79.9532 9.82246 79.8861L17.5038 79.7668C22.6198 79.6996 27.7431 79.7071 32.8591 79.6698C37.975 79.6325 43.0984 79.6698 48.2143 79.7668L55.8957 79.8861C58.4536 79.9532 61.0116 79.9905 63.577 80.0875C61.0116 80.1844 58.4536 80.2217 55.8957 80.2888L48.2143 80.4081C43.0984 80.4752 37.975 80.4678 32.8591 80.5051C27.7431 80.5424 22.6198 80.5051 17.5038 80.4081L9.82246 80.2888C7.26449 80.2217 4.70654 80.1844 2.14111 80.0875Z" fill="#9686D9"/>
<path d="M2.14111 82.6603C4.70654 82.5708 7.26449 82.5261 9.82246 82.459L17.5038 82.3396C22.6198 82.2725 27.7431 82.28 32.8591 82.2427C37.975 82.2054 43.0984 82.2427 48.2143 82.3396L55.8957 82.459C58.4536 82.5261 61.0116 82.5634 63.577 82.6603C61.0116 82.7573 58.4536 82.7945 55.8957 82.8617L48.2143 82.981C43.0984 83.0481 37.975 83.0406 32.8591 83.0779C27.7431 83.1152 22.6198 83.0779 17.5038 82.981L9.82246 82.8617C7.26449 82.7796 4.70654 82.7796 2.14111 82.6603Z" fill="#9686D9"/>
</g>
<path d="M52.0179 4.57154V60.0712H58.3196V66.44H52.0179V75.7397C52.0179 76.8136 53.0694 77.6712 58.3196 78.8048V82.72H32.6952V78.7227C38.2139 77.7756 39.3549 76.8732 39.3549 75.7397V66.44H8.62199L39.3847 4.5417H52.0179M36.5284 22.44L18.4735 58.7885L17.8545 60.0265H39.3549V15.9892L37.7067 19.7702L36.5135 22.4847M52.8755 3.72882H38.8552L7.23486 67.3125H38.4972V75.7546C38.4972 76.5451 36.2774 77.2908 31.8376 77.9919V83.5776H59.1773V78.1112C54.9811 77.2411 52.8805 76.4506 52.8755 75.7397V67.2976H59.1773V59.2136H52.8755V3.72882ZM19.2416 59.2285L37.304 22.8651L38.4972 20.1281V59.2136L19.2416 59.2285Z" fill="#161548"/>
<path d="M52.5845 3.70642H49.4448V59.8325H52.5845V3.70642Z" fill="#161548"/>
<path d="M52.5845 3.97491H49.4448V60.101H52.5845V3.97491Z" fill="#161548"/>
<path d="M39.3618 17.7789V12.6332L33.8804 22.8427L15.2065 60.0488L18.8086 60.101L39.3618 17.7789Z" fill="#161548"/>
<path d="M56.3926 83.3166H60.0603V78.0963C55.574 77.2262 53.3282 76.4357 53.3229 75.7247V66.4549H49.6553V75.7396C49.6553 76.4506 51.9011 77.2411 56.3926 78.1112V83.3166Z" fill="#161548"/>
<path d="M59.1771 59.84H55.7466V67.2379H59.1771V59.84Z" fill="#161548"/>
</g>
<defs>
<clipPath id="clip0_728_20779">
<rect width="63" height="88" fill="white"/>
</clipPath>
</defs>
</svg>
