<svg width="63" height="88" viewBox="0 0 63 88" fill="none" xmlns="http://www.w3.org/2000/svg">
<path d="M30.7942 88C26.6422 87.9807 22.5384 87.1089 18.7372 85.4386C14.7248 83.6632 10.9142 81.4629 7.37061 78.8756L4 76.4701L12.8349 65.9276L15.8046 68.4667C20.1107 72.1789 24.3648 74.0424 28.4259 74.0424C32.1826 73.983 34.8924 73.0698 36.4218 71.3251C38.0626 69.4616 38.8941 66.1281 38.8941 61.6735C38.8941 48.6959 33.3036 46.8249 27.8394 46.8249H27.2825C23.5704 46.8249 18.6258 48.3766 13.1764 51.1607L7.23698 54.1824V0H56.9797L54.8712 23.0153H42.5172L42.1163 19.8228C41.9353 17.6454 41.5828 15.4857 41.062 13.3637H29.5098V32.9118C31.1397 32.6785 32.7862 32.5816 34.4321 32.6223C51.4337 32.7114 59.9494 42.1848 59.9494 60.0179V60.3668C59.9494 69.0755 57.7666 75.9578 52.7404 80.7762C47.7142 85.5945 40.6462 88 30.7942 88Z" fill="white"/>
<path d="M56.8238 60.3668C56.8238 68.0188 54.6955 73.8964 50.4389 77.9995C46.1823 82.1027 39.6341 84.1542 30.7943 84.1542C27.1691 84.145 23.5849 83.3867 20.2666 81.927C16.5032 80.2489 12.9313 78.1705 9.61279 75.7277L13.2804 71.3548C18.3289 75.6906 23.3774 77.8585 28.4259 77.8585C33.4744 77.8585 37.1024 76.5171 39.3099 73.8345C41.6065 71.236 42.7523 67.2145 42.7473 61.77C42.7473 49.3962 37.778 43.2093 27.8394 43.2093H27.2826C22.9418 43.2093 17.7745 44.7462 11.7807 47.8198V3.71216H52.837L51.4189 19.4442H45.9769C45.1899 12.7426 44.3213 9.39173 43.371 9.39173H25.471V37.6708C28.463 36.78 31.5794 36.3788 34.6994 36.4829C49.4539 36.5621 56.8287 44.4121 56.8238 60.0328V60.3668Z" fill="#6362D1"/>
<mask id="mask0_728_19610" style="mask-type:luminance" maskUnits="userSpaceOnUse" x="9" y="3" width="48" height="82">
<path d="M56.8238 60.3668C56.8238 68.0188 54.6955 73.8964 50.4389 77.9995C46.1823 82.1027 39.6341 84.1542 30.7943 84.1542C27.1691 84.145 23.5849 83.3867 20.2666 81.927C16.5032 80.2489 12.9313 78.1705 9.61279 75.7277L13.2804 71.3548C18.3289 75.6906 23.3774 77.8585 28.4259 77.8585C33.4744 77.8585 37.1024 76.5171 39.3099 73.8345C41.6065 71.236 42.7523 67.2145 42.7473 61.77C42.7473 49.3962 37.778 43.2093 27.8394 43.2093H27.2826C22.9418 43.2093 17.7745 44.7462 11.7807 47.8198V3.71216H52.837L51.4189 19.4442H45.9769C45.1899 12.7426 44.3213 9.39173 43.371 9.39173H25.471V37.6708C28.463 36.78 31.5794 36.3788 34.6994 36.4829C49.4539 36.5621 56.8287 44.4121 56.8238 60.0328V60.3668Z" fill="white"/>
</mask>
<g mask="url(#mask0_728_19610)">
<path d="M6.29443 5.44947L8.60337 5.37523C10.0882 5.37523 12.1744 5.27129 14.6987 5.23417C17.223 5.19705 20.1556 5.13023 23.3109 5.11538L33.1852 5.06342L43.0595 5.11538C46.2148 5.11538 49.1548 5.19705 51.6716 5.23417C54.1885 5.27129 56.297 5.34554 57.767 5.37523L60.0759 5.44947L57.767 5.52372C56.2821 5.52372 54.1959 5.63508 51.6716 5.66478C49.1474 5.69448 46.2148 5.77614 43.0595 5.78356L33.1852 5.83554L23.3109 5.78356C20.1556 5.78356 17.2155 5.7019 14.6987 5.66478C12.1819 5.62766 10.0734 5.55341 8.60337 5.52372L6.29443 5.44947Z" fill="#9686D9"/>
<path d="M6.29443 8.01081L8.60337 7.93657C10.0882 7.93657 12.1744 7.83263 14.6987 7.79551C17.223 7.75839 20.1556 7.69157 23.3109 7.67672L33.1852 7.62476L43.0595 7.67672C46.2148 7.67672 49.1548 7.75839 51.6716 7.79551C54.1885 7.83263 56.297 7.90688 57.767 7.93657L60.0759 8.01081L57.767 8.08506C56.2821 8.08506 54.1959 8.19642 51.6716 8.22612C49.1474 8.25582 46.2148 8.33749 43.0595 8.34491L33.1852 8.39688L23.3109 8.34491C20.1556 8.34491 17.2155 8.26324 14.6987 8.22612C12.1819 8.189 10.0734 8.11475 8.60337 8.08506L6.29443 8.01081Z" fill="#9686D9"/>
<path d="M6.29443 10.5722L8.60337 10.4979C10.0882 10.4979 12.1744 10.394 14.6987 10.3569C17.223 10.3197 20.1556 10.2529 23.3109 10.2381L33.1852 10.1861L43.0595 10.2381C46.2148 10.2381 49.1548 10.3197 51.6716 10.3569C54.1885 10.394 56.297 10.4682 57.767 10.4979L60.0759 10.5722L57.767 10.6464C56.2821 10.6464 54.1959 10.7578 51.6716 10.7875C49.1474 10.8172 46.2148 10.8988 43.0595 10.9063L33.1852 10.9582L23.3109 10.9063C20.1556 10.9063 17.2155 10.8246 14.6987 10.7875C12.1819 10.7503 10.0734 10.6761 8.60337 10.6464L6.29443 10.5722Z" fill="#9686D9"/>
<path d="M6.29443 13.1336L8.60337 13.0593C10.0882 13.0593 12.1744 12.9554 14.6987 12.9183C17.223 12.8811 20.1556 12.8143 23.3109 12.7995L33.1852 12.7475L43.0595 12.7995C46.2148 12.7995 49.1548 12.8811 51.6716 12.9183C54.1885 12.9554 56.297 13.0296 57.767 13.0593L60.0759 13.1336L57.767 13.2078C56.2821 13.2078 54.1959 13.3192 51.6716 13.3489C49.1474 13.3786 46.2148 13.4602 43.0595 13.4677L33.1852 13.5196L23.3109 13.4677C20.1556 13.4677 17.2155 13.386 14.6987 13.3489C12.1819 13.3117 10.0734 13.2375 8.60337 13.2078L6.29443 13.1336Z" fill="#9686D9"/>
<path d="M6.29443 15.6949L8.60337 15.6207C10.0882 15.6207 12.1744 15.5167 14.6987 15.4796C17.223 15.4425 20.1556 15.3757 23.3109 15.3608L33.1852 15.3088L43.0595 15.3608C46.2148 15.3608 49.1548 15.4425 51.6716 15.4796C54.1885 15.5167 56.297 15.591 57.767 15.6207L60.0759 15.6949L57.767 15.7692C56.2821 15.7692 54.1959 15.8805 51.6716 15.9102C49.1474 15.9399 46.2148 16.0216 43.0595 16.029L33.1852 16.081L23.3109 16.029C20.1556 16.029 17.2155 15.9473 14.6987 15.9102C12.1819 15.8731 10.0734 15.7988 8.60337 15.7692L6.29443 15.6949Z" fill="#9686D9"/>
<path d="M6.29443 18.2564L8.60337 18.1821C10.0882 18.1821 12.1744 18.0782 14.6987 18.0411C17.223 18.0039 20.1556 17.9371 23.3109 17.9223L33.1852 17.8703L43.0595 17.9223C46.2148 17.9223 49.1548 18.0039 51.6716 18.0411C54.1885 18.0782 56.297 18.1524 57.767 18.1821L60.0759 18.2564L57.767 18.3306C56.2821 18.3306 54.1959 18.442 51.6716 18.4717C49.1474 18.5014 46.2148 18.583 43.0595 18.5904L33.1852 18.6424L23.3109 18.5904C20.1556 18.5904 17.2155 18.5088 14.6987 18.4717C12.1819 18.4345 10.0734 18.3603 8.60337 18.3306L6.29443 18.2564Z" fill="#9686D9"/>
<path d="M6.29443 20.788L8.60337 20.7137C10.0882 20.7137 12.1744 20.6098 14.6987 20.5727C17.223 20.5356 20.1556 20.4687 23.3109 20.4539L33.1852 20.4019L43.0595 20.4539C46.2148 20.4539 49.1548 20.5356 51.6716 20.5727C54.1885 20.6098 56.297 20.684 57.767 20.7137L60.0759 20.788L57.767 20.8622C56.2821 20.8622 54.1959 20.9736 51.6716 21.0033C49.1474 21.033 46.2148 21.1146 43.0595 21.1221L33.1852 21.174L23.3109 21.1221C20.1556 21.1221 17.2155 21.0404 14.6987 21.0033C12.1819 20.9662 10.0734 20.8919 8.60337 20.8622L6.29443 20.788Z" fill="#9686D9"/>
<path d="M6.29443 23.3791L8.60337 23.3048C10.0882 23.3048 12.1744 23.2009 14.6987 23.1637C17.223 23.1266 20.1556 23.0598 23.3109 23.045L33.2223 23.0153L43.0966 23.0672C46.2519 23.0672 49.1919 23.1489 51.7087 23.186C54.2256 23.2231 56.3341 23.2974 57.8041 23.3271L60.113 23.4013L57.8041 23.4756C56.3192 23.4756 54.233 23.5869 51.7087 23.6166C49.1845 23.6463 46.2519 23.728 43.0966 23.7354L33.2223 23.7577L23.348 23.7057C20.1927 23.7057 17.2527 23.6241 14.7358 23.5869C12.219 23.5498 10.1105 23.4756 8.64051 23.4459L6.29443 23.3791Z" fill="#9686D9"/>
<path d="M6.29443 25.9404L8.60337 25.8662C10.0882 25.8662 12.1744 25.7623 14.6987 25.7251C17.223 25.688 20.1556 25.6212 23.3109 25.6064L33.1852 25.5544L43.0595 25.6064C46.2148 25.6064 49.1548 25.688 51.6716 25.7251C54.1885 25.7623 56.297 25.8365 57.767 25.8662L60.0759 25.9404L57.767 26.0147C56.2821 26.0147 54.1959 26.1261 51.6716 26.1557C49.1474 26.1854 46.2148 26.2671 43.0595 26.2745L33.1852 26.3265L23.3109 26.2745C20.1556 26.2745 17.2155 26.1929 14.6987 26.1557C12.1819 26.1186 10.0734 26.0444 8.60337 26.0147L6.29443 25.9404Z" fill="#9686D9"/>
<path d="M6.29443 28.5018L8.60337 28.4275C10.0882 28.4275 12.1744 28.3236 14.6987 28.2865C17.223 28.2494 20.1556 28.1825 23.3109 28.1677L33.1852 28.1157L43.0595 28.1677C46.2148 28.1677 49.1548 28.2494 51.6716 28.2865C54.1885 28.3236 56.297 28.3978 57.767 28.4275L60.0759 28.5018L57.767 28.576C56.2821 28.576 54.1959 28.6874 51.6716 28.7171C49.1474 28.7468 46.2148 28.8285 43.0595 28.8359L33.1852 28.8879L23.3109 28.8359C20.1556 28.8359 17.2155 28.7542 14.6987 28.7171C12.1819 28.68 10.0734 28.6057 8.60337 28.576L6.29443 28.5018Z" fill="#9686D9"/>
<path d="M6.29443 31.0632L8.60337 30.989C10.0882 30.989 12.1744 30.8851 14.6987 30.8479C17.223 30.8108 20.1556 30.744 23.3109 30.7291L33.1852 30.6772L43.0595 30.7291C46.2148 30.7291 49.1548 30.8108 51.6716 30.8479C54.1885 30.8851 56.297 30.9593 57.767 30.989L60.0759 31.0632L57.767 31.1375C56.2821 31.1375 54.1959 31.2489 51.6716 31.2786C49.1474 31.3082 46.2148 31.3899 43.0595 31.3973L33.1852 31.4493L23.3109 31.3973C20.1556 31.3973 17.2155 31.3157 14.6987 31.2786C12.1819 31.2414 10.0734 31.1672 8.60337 31.1375L6.29443 31.0632Z" fill="#9686D9"/>
<path d="M6.29443 33.6246L8.60337 33.5503C10.0882 33.5503 12.1744 33.4464 14.6987 33.4093C17.223 33.3722 20.1556 33.3053 23.3109 33.2905L33.1852 33.2385L43.0595 33.2905C46.2148 33.2905 49.1548 33.3722 51.6716 33.4093C54.1885 33.4464 56.297 33.5206 57.767 33.5503L60.0759 33.6246L57.767 33.6988C56.2821 33.6988 54.1959 33.8102 51.6716 33.8399C49.1474 33.8696 46.2148 33.9513 43.0595 33.9587L33.1852 34.0106L23.3109 33.9587C20.1556 33.9587 17.2155 33.877 14.6987 33.8399C12.1819 33.8028 10.0734 33.7285 8.60337 33.6988L6.29443 33.6246Z" fill="#9686D9"/>
<path d="M6.29443 36.1859L8.60337 36.1117C10.0882 36.1117 12.1744 36.0077 14.6987 35.9706C17.223 35.9335 20.1556 35.8667 23.3109 35.8518L33.1852 35.7999L43.0595 35.8518C46.2148 35.8518 49.1548 35.9335 51.6716 35.9706C54.1885 36.0077 56.297 36.082 57.767 36.1117L60.0759 36.1859L57.767 36.2602C56.2821 36.2602 54.1959 36.3715 51.6716 36.4012C49.1474 36.4309 46.2148 36.5126 43.0595 36.52L33.1852 36.572L23.3109 36.52C20.1556 36.52 17.2155 36.4384 14.6987 36.4012C12.1819 36.3641 10.0734 36.2899 8.60337 36.2602L6.29443 36.1859Z" fill="#9686D9"/>
<path d="M6.29443 38.7473L8.60337 38.6731C10.0882 38.6731 12.1744 38.5691 14.6987 38.532C17.223 38.4949 20.1556 38.4281 23.3109 38.4132L33.1852 38.3613L43.0595 38.4132C46.2148 38.4132 49.1548 38.4949 51.6716 38.532C54.1885 38.5691 56.297 38.6434 57.767 38.6731L60.0759 38.7473L57.767 38.8216C56.2821 38.8216 54.1959 38.9329 51.6716 38.9626C49.1474 38.9923 46.2148 39.074 43.0595 39.0814L33.1852 39.1334L23.3109 39.0814C20.1556 39.0814 17.2155 38.9998 14.6987 38.9626C12.1819 38.9255 10.0734 38.8513 8.60337 38.8216L6.29443 38.7473Z" fill="#9686D9"/>
<path d="M6.29443 41.3087L8.60337 41.2344C10.0882 41.2344 12.1744 41.1305 14.6987 41.0934C17.223 41.0563 20.1556 40.9894 23.3109 40.9746L33.1852 40.9226L43.0595 40.9746C46.2148 40.9746 49.1548 41.0563 51.6716 41.0934C54.1885 41.1305 56.297 41.2047 57.767 41.2344L60.0759 41.3087L57.767 41.3829C56.2821 41.3829 54.1959 41.4943 51.6716 41.524C49.1474 41.5537 46.2148 41.6353 43.0595 41.6428L33.1852 41.6947L23.3109 41.6428C20.1556 41.6428 17.2155 41.5611 14.6987 41.524C12.1819 41.4869 10.0734 41.4126 8.60337 41.3829L6.29443 41.3087Z" fill="#9686D9"/>
<path d="M6.29443 43.8701L8.60337 43.7959C10.0882 43.7959 12.1744 43.6919 14.6987 43.6548C17.223 43.6177 20.1556 43.5509 23.3109 43.536L33.1852 43.4841L43.0595 43.536C46.2148 43.536 49.1548 43.6177 51.6716 43.6548C54.1885 43.6919 56.297 43.7662 57.767 43.7959L60.0759 43.8701L57.767 43.9444C56.2821 43.9444 54.1959 44.0557 51.6716 44.0854C49.1474 44.1151 46.2148 44.1968 43.0595 44.2042L33.1852 44.2562L23.3109 44.2042C20.1556 44.2042 17.2155 44.1226 14.6987 44.0854C12.1819 44.0483 10.0734 43.9741 8.60337 43.9444L6.29443 43.8701Z" fill="#9686D9"/>
<path d="M6.29443 46.4315L8.60337 46.3572C10.0882 46.3572 12.1744 46.2533 14.6987 46.2162C17.223 46.1791 20.1556 46.1122 23.3109 46.0974L33.2223 46.0306L43.0966 46.0826C46.2519 46.0826 49.1919 46.1642 51.7087 46.2013C54.2256 46.2385 56.3341 46.3127 57.8041 46.3424L60.113 46.4166L57.8041 46.4909C56.3192 46.4909 54.233 46.6022 51.7087 46.6319C49.1845 46.6616 46.2519 46.7433 43.0966 46.7507L33.2223 46.8027L23.348 46.7507C20.1927 46.7507 17.2527 46.6691 14.7358 46.6319C12.219 46.5948 10.1105 46.5206 8.64051 46.4909L6.29443 46.4315Z" fill="#9686D9"/>
<path d="M6.29443 49.0003L8.60337 48.926C10.0882 48.926 12.1744 48.8221 14.6987 48.785C17.223 48.7478 20.1556 48.681 23.3109 48.6662L33.1852 48.6142L43.0595 48.6662C46.2148 48.6662 49.1548 48.7478 51.6716 48.785C54.1885 48.8221 56.297 48.8963 57.767 48.926L60.0759 49.0003L57.767 49.0745C56.2821 49.0745 54.1959 49.1859 51.6716 49.2156C49.1474 49.2453 46.2148 49.3269 43.0595 49.3344L33.1852 49.3863L23.3109 49.3344C20.1556 49.3344 17.2155 49.2527 14.6987 49.2156C12.1819 49.1784 10.0734 49.1042 8.60337 49.0745L6.29443 49.0003Z" fill="#9686D9"/>
<path d="M6.29443 51.5542L8.60337 51.48C10.0882 51.48 12.1744 51.376 14.6987 51.3389C17.223 51.3018 20.1556 51.235 23.3109 51.2201L33.1852 51.1682L43.0595 51.2201C46.2148 51.2201 49.1548 51.3018 51.6716 51.3389C54.1885 51.376 56.297 51.4503 57.767 51.48L60.0759 51.5542L57.767 51.6285C56.2821 51.6285 54.1959 51.7398 51.6716 51.7695C49.1474 51.7992 46.2148 51.8809 43.0595 51.8883L33.2223 51.97L23.348 51.918C20.1927 51.918 17.2527 51.8363 14.7358 51.7992C12.219 51.7621 10.1105 51.6879 8.64051 51.6582L6.29443 51.5542Z" fill="#9686D9"/>
<path d="M6.29443 54.1156L8.60337 54.0413C10.0882 54.0413 12.1744 53.9374 14.6987 53.9003C17.223 53.8631 20.1556 53.7963 23.3109 53.7815L33.1852 53.7295L43.0595 53.7815C46.2148 53.7815 49.1548 53.8631 51.6716 53.9003C54.1885 53.9374 56.297 54.0116 57.767 54.0413L60.0759 54.1156L57.767 54.1898C56.2821 54.1898 54.1959 54.3012 51.6716 54.3309C49.1474 54.3606 46.2148 54.4422 43.0595 54.4496L33.1852 54.5016L23.3109 54.4496C20.1556 54.4496 17.2155 54.368 14.6987 54.3309C12.1819 54.2937 10.0734 54.2195 8.60337 54.1898L6.29443 54.1156Z" fill="#9686D9"/>
<path d="M6.29443 56.677L8.60337 56.6028C10.0882 56.6028 12.1744 56.4988 14.6987 56.4617C17.223 56.4246 20.1556 56.3578 23.3109 56.3429L33.1852 56.291L43.0595 56.3429C46.2148 56.3429 49.1548 56.4246 51.6716 56.4617C54.1885 56.4988 56.297 56.5731 57.767 56.6028L60.0759 56.677L57.767 56.7513C56.2821 56.7513 54.1959 56.8626 51.6716 56.8923C49.1474 56.922 46.2148 57.0037 43.0595 57.0111L33.1852 57.0631L23.3109 57.0111C20.1556 57.0111 17.2155 56.9294 14.6987 56.8923C12.1819 56.8552 10.0734 56.781 8.60337 56.7513L6.29443 56.677Z" fill="#9686D9"/>
<path d="M6.29443 59.2383L8.60337 59.1641C10.0882 59.1641 12.1744 59.0602 14.6987 59.0231C17.223 58.9859 20.1556 58.9191 23.3109 58.9043L33.1852 58.8523L43.0595 58.9043C46.2148 58.9043 49.1548 58.9859 51.6716 59.0231C54.1885 59.0602 56.297 59.1344 57.767 59.1641L60.0759 59.2383L57.767 59.3126C56.2821 59.3126 54.1959 59.424 51.6716 59.4537C49.1474 59.4834 46.2148 59.565 43.0595 59.5725L33.1852 59.6244L23.3109 59.5725C20.1556 59.5725 17.2155 59.4908 14.6987 59.4537C12.1819 59.4165 10.0734 59.3423 8.60337 59.3126L6.29443 59.2383Z" fill="#9686D9"/>
<path d="M6.29443 61.7997L8.60337 61.7255C10.0882 61.7255 12.1744 61.6215 14.6987 61.5844C17.223 61.5473 20.1556 61.4804 23.3109 61.4656L33.1852 61.4136L43.0595 61.4656C46.2148 61.4656 49.1548 61.5473 51.6716 61.5844C54.1885 61.6215 56.297 61.6958 57.767 61.7255L60.0759 61.7997L57.767 61.8739C56.2821 61.8739 54.1959 61.9853 51.6716 62.015C49.1474 62.0447 46.2148 62.1264 43.0595 62.1338L33.1852 62.1858L23.3109 62.1338C20.1556 62.1338 17.2155 62.0521 14.6987 62.015C12.1819 61.9779 10.0734 61.9036 8.60337 61.8739L6.29443 61.7997Z" fill="#9686D9"/>
<path d="M6.29443 64.3611L8.60337 64.2869C10.0882 64.2869 12.1744 64.1829 14.6987 64.1458C17.223 64.1087 20.1556 64.0419 23.3109 64.027L33.1852 63.975L43.0595 64.027C46.2148 64.027 49.1548 64.1087 51.6716 64.1458C54.1885 64.1829 56.297 64.2572 57.767 64.2869L60.0759 64.3611L57.767 64.4353C56.2821 64.4353 54.1959 64.5467 51.6716 64.5764C49.1474 64.6061 46.2148 64.6878 43.0595 64.6952L33.1852 64.7472L23.3109 64.6952C20.1556 64.6952 17.2155 64.6135 14.6987 64.5764C12.1819 64.5393 10.0734 64.465 8.60337 64.4353L6.29443 64.3611Z" fill="#9686D9"/>
<path d="M6.29443 66.9224L8.60337 66.8482C10.0882 66.8482 12.1744 66.7443 14.6987 66.7071C17.223 66.67 20.1556 66.6032 23.3109 66.5884L33.1852 66.5364L43.0595 66.5884C46.2148 66.5884 49.1548 66.67 51.6716 66.7071C54.1885 66.7443 56.297 66.8185 57.767 66.8482L60.0759 66.9224L57.767 66.9967C56.2821 66.9967 54.1959 67.108 51.6716 67.1377C49.1474 67.1674 46.2148 67.2491 43.0595 67.2565L33.1852 67.3085L23.3109 67.2565C20.1556 67.2565 17.2155 67.1749 14.6987 67.1377C12.1819 67.1006 10.0734 67.0264 8.60337 66.9967L6.29443 66.9224Z" fill="#9686D9"/>
<path d="M6.29443 69.4839L8.60337 69.4096C10.0882 69.4096 12.1744 69.3057 14.6987 69.2686C17.223 69.2315 20.1556 69.1647 23.3109 69.1498L33.1852 69.0978L43.0595 69.1498C46.2148 69.1498 49.1548 69.2315 51.6716 69.2686C54.1885 69.3057 56.297 69.3799 57.767 69.4096L60.0759 69.4839L57.767 69.5581C56.2821 69.5581 54.1959 69.6695 51.6716 69.6992C49.1474 69.7289 46.2148 69.8106 43.0595 69.818L33.1852 69.8699L23.3109 69.818C20.1556 69.818 17.2155 69.7363 14.6987 69.6992C12.1819 69.6621 10.0734 69.5878 8.60337 69.5581L6.29443 69.4839Z" fill="#9686D9"/>
<path d="M6.29443 72.0155L8.60337 71.9413C10.0882 71.9413 12.1744 71.8373 14.6987 71.8002C17.223 71.7631 20.1556 71.6963 23.3109 71.6814L33.1852 71.6295L43.0595 71.6814C46.2148 71.6814 49.1548 71.7631 51.6716 71.8002C54.1885 71.8373 56.297 71.9116 57.767 71.9413L60.0759 72.0155L57.767 72.0898C56.2821 72.0898 54.1959 72.2011 51.6716 72.2308C49.1474 72.2605 46.2148 72.3422 43.0595 72.3496L33.1852 72.4016L23.3109 72.3496C20.1556 72.3496 17.2155 72.2679 14.6987 72.2308C12.1819 72.1937 10.0734 72.1195 8.60337 72.0898L6.29443 72.0155Z" fill="#9686D9"/>
<path d="M6.29443 74.6066L8.60337 74.5324C10.0882 74.5324 12.1744 74.4284 14.6987 74.3913C17.223 74.3542 20.1556 74.2873 23.3109 74.2725L33.2223 74.2428L43.0966 74.2948C46.2519 74.2948 49.1919 74.3764 51.7087 74.4136C54.2256 74.4507 56.3341 74.5249 57.8041 74.5546L60.113 74.6289L57.8041 74.7031C56.3192 74.7031 54.233 74.8145 51.7087 74.8442C49.1845 74.8739 46.2519 74.9555 43.0966 74.963L33.2223 74.9852L23.348 74.9333C20.1927 74.9333 17.2527 74.8516 14.7358 74.8145C12.219 74.7773 10.1105 74.7031 8.64051 74.6734L6.29443 74.6066Z" fill="#9686D9"/>
<path d="M6.29443 77.168L8.60337 77.0937C10.0882 77.0937 12.1744 76.9898 14.6987 76.9527C17.223 76.9155 20.1556 76.8487 23.3109 76.8339L33.1852 76.7819L43.0595 76.8339C46.2148 76.8339 49.1548 76.9155 51.6716 76.9527C54.1885 76.9898 56.297 77.064 57.767 77.0937L60.0759 77.168L57.767 77.2422C56.2821 77.2422 54.1959 77.3536 51.6716 77.3833C49.1474 77.413 46.2148 77.4947 43.0595 77.5021L33.1852 77.554L23.3109 77.5021C20.1556 77.5021 17.2155 77.4204 14.6987 77.3833C12.1819 77.3462 10.0734 77.2719 8.60337 77.2422L6.29443 77.168Z" fill="#9686D9"/>
<path d="M6.29443 79.7293L8.60337 79.6551C10.0882 79.6551 12.1744 79.5511 14.6987 79.514C17.223 79.4769 20.1556 79.4101 23.3109 79.3952L33.1852 79.3433L43.0595 79.3952C46.2148 79.3952 49.1548 79.4769 51.6716 79.514C54.1885 79.5511 56.297 79.6254 57.767 79.6551L60.0759 79.7293L57.767 79.8036C56.2821 79.8036 54.1959 79.9149 51.6716 79.9446C49.1474 79.9743 46.2148 80.056 43.0595 80.0634L33.1852 80.1154L23.3109 80.0634C20.1556 80.0634 17.2155 79.9817 14.6987 79.9446C12.1819 79.9075 10.0734 79.8333 8.60337 79.8036L6.29443 79.7293Z" fill="#9686D9"/>
<path d="M6.29443 82.2908L8.60337 82.2165C10.0882 82.2165 12.1744 82.1126 14.6987 82.0755C17.223 82.0383 20.1556 81.9715 23.3109 81.9567L33.1852 81.9047L43.0595 81.9567C46.2148 81.9567 49.1548 82.0383 51.6716 82.0755C54.1885 82.1126 56.297 82.1868 57.767 82.2165L60.0759 82.2908L57.767 82.365C56.2821 82.365 54.1959 82.4764 51.6716 82.5061C49.1474 82.5358 46.2148 82.6175 43.0595 82.6249L33.1852 82.6768L23.3109 82.6249C20.1556 82.6249 17.2155 82.5432 14.6987 82.5061C12.1819 82.469 10.0734 82.3947 8.60337 82.365L6.29443 82.2908Z" fill="#9686D9"/>
</g>
<path d="M51.8644 4.55113L50.6022 18.5607H46.6971C45.5537 9.28781 44.4698 8.50827 43.3339 8.50827H24.6173V38.8365L25.7457 38.443C28.6546 37.5974 31.6793 37.219 34.7069 37.3219C49.0283 37.4036 55.9848 44.8204 55.9848 60.0179V60.3743C55.9848 67.7466 53.9209 73.4707 49.8598 77.3833C45.7987 81.2959 39.3767 83.3228 30.8091 83.3228C27.2909 83.2971 23.8158 82.5464 20.6007 81.1177C17.1784 79.6093 13.9174 77.7586 10.8675 75.5941L13.3917 72.5798C18.3586 76.6632 23.4145 78.7345 28.4408 78.7345C33.6378 78.6529 37.5132 77.2051 39.9558 74.421C42.3984 71.6369 43.6012 67.4199 43.6012 61.7998C43.6012 48.9038 38.2928 42.3704 27.8394 42.3704H27.2826C23.1324 42.3704 18.2101 43.7439 12.6345 46.4538V4.55113H51.9015M52.837 3.69733H11.7807V47.8273C17.7795 44.7536 22.9468 43.2168 27.2826 43.2168H27.8765C37.8102 43.2168 42.7795 49.4037 42.7845 61.7775C42.7845 67.222 41.6387 71.2434 39.347 73.8419C37.0554 76.4404 33.4274 77.7818 28.463 77.8659C23.4145 77.8659 18.366 75.698 13.3175 71.3622L9.61279 75.7277C12.9334 78.155 16.5051 80.2184 20.2666 81.8824C23.5849 83.3422 27.1691 84.1005 30.7943 84.1097C39.6292 84.1097 46.1774 82.0581 50.4389 77.955C54.7004 73.8518 56.8287 67.9768 56.8238 60.3297V59.9734C56.8238 44.3527 49.449 36.5028 34.6994 36.4236C31.5794 36.3194 28.463 36.7206 25.471 37.6114V9.37691H43.3339C44.2842 9.37691 45.1528 12.7277 45.9398 19.4294H51.3818L52.7998 3.71218L52.837 3.69733Z" fill="#161548"/>
<path d="M25.0105 77.8807C25.6119 77.8807 26.1835 77.8807 26.7404 77.799C22.2561 77.3684 17.7694 75.2277 13.2802 71.377L11.9141 73.0103C16.2795 76.2572 20.645 77.8807 25.0105 77.8807Z" fill="#161548"/>
<path d="M51.3815 19.4294L52.7995 3.69733H49.3843L47.9663 19.4294H51.3815Z" fill="#161548"/>
<path d="M34.7068 36.4681C33.9644 36.4681 33.2219 36.4681 32.5463 36.5201C46.4446 37.015 53.4011 44.8476 53.416 60.0179V60.3668C53.416 68.0188 51.2877 73.8964 47.0311 77.9995C43.0962 81.7859 37.2187 83.8226 29.3984 84.1097C29.8686 84.1394 30.3364 84.1542 30.8016 84.1542C39.6365 84.1542 46.1847 82.1027 50.4463 77.9995C54.7078 73.8964 56.8361 68.0188 56.8311 60.3668V60.0179C56.8262 44.3972 49.4514 36.5473 34.7068 36.4681Z" fill="#161548"/>
<path d="M22.0854 8.48596V39.8907C23.0729 39.5492 25.3818 38.5023 25.5006 38.5023V8.48596H22.0854Z" fill="#161548"/>
</svg>
