<svg width="63" height="88" viewBox="0 0 63 88" fill="none" xmlns="http://www.w3.org/2000/svg">
<path d="M31.7289 88C22.3899 88 15.3544 85.6819 10.8215 81.1047C6.28859 76.5275 4 69.6101 4 60.5369V23.4765C4 12.8604 9.35235 0 34.7852 0H51.5584L49.4617 23.6242H37.2658L36.8671 20.0805C36.6688 17.7958 36.3185 15.5268 35.8188 13.2886H34.7852C32.157 13.2886 26.1477 13.5248 26.1477 27.3154V28.4302C27.6242 27.5222 31.1678 27.0718 34.0839 27.0718C40.502 27.0576 46.6846 29.4889 51.3738 33.8711C53.603 36.0331 55.4017 38.5984 56.6745 41.4309C58.0435 44.4697 58.7121 47.7774 58.6309 51.1094V64.7597C58.6309 72.2825 56.3128 78.1443 51.4034 82.1825C46.7228 86.0436 40.2114 88 31.7289 88ZM26.1477 59.7987C26.1477 66.5832 27.0336 74.6745 31.847 74.6745C32.7299 74.7076 33.6086 74.5384 34.4161 74.1799C34.9517 73.8718 35.3658 73.3899 35.5899 72.8141C36.2225 71.3768 36.6284 69.8502 36.7933 68.2886C37.1291 65.5582 37.2722 62.8075 37.2215 60.057V58.5215C37.2215 53.3906 36.7564 41.4087 31.8027 41.4087C30.7363 41.4255 29.6845 41.6601 28.7121 42.0981C27.7396 42.5361 26.8669 43.1682 26.1477 43.9557V59.7987Z" fill="white"/>
<path d="M55.1388 64.7597C55.1388 71.1137 53.1381 75.9369 49.1368 79.2295C45.1355 82.5222 39.3328 84.166 31.7287 84.1611C23.4111 84.1611 17.35 82.2392 13.5455 78.3953C9.74106 74.5515 7.84128 68.5987 7.8462 60.5369V23.4765C7.8462 10.5374 16.8258 4.06781 34.7851 4.06781H47.3355L45.9254 19.7114H40.669C39.8865 13.0425 39.0227 9.71053 38.0777 9.71546H34.7851C26.3887 9.71546 22.1536 15.5698 22.0798 27.2785V35.1262C25.2198 32.3011 29.1793 30.8886 33.9583 30.8886C39.4328 30.8701 44.7101 32.9309 48.7234 36.6544C50.66 38.4826 52.2353 40.6589 53.367 43.0698C54.5567 45.5866 55.16 48.3405 55.1314 51.1242L55.1388 64.7597ZM41.112 58.5215C41.0332 44.5635 37.8956 37.5846 31.6992 37.5846C28.4017 37.5846 25.1853 39.1521 22.0502 42.2873V59.7987C22.0502 72.2703 25.2666 78.506 31.6992 78.506C33.1778 78.5419 34.645 78.2388 35.9885 77.6202C37.2866 76.9598 38.3262 75.8838 38.9415 74.5638C39.7901 72.7611 40.3458 70.8347 40.5878 68.8571C40.9786 65.9331 41.1562 62.9846 41.1194 60.0349L41.112 58.5215Z" fill="#6362D1"/>
<mask id="mask0_728_20690" style="mask-type:luminance" maskUnits="userSpaceOnUse" x="7" y="4" width="49" height="81">
<mask id="mask1_728_20690" style="mask-type:luminance" maskUnits="userSpaceOnUse" x="7" y="4" width="49" height="81">
<path d="M55.1388 64.7597C55.1388 71.1137 53.1381 75.9369 49.1368 79.2295C45.1355 82.5222 39.3328 84.166 31.7287 84.1611C23.4111 84.1611 17.35 82.2392 13.5455 78.3953C9.74106 74.5515 7.84128 68.5987 7.8462 60.5369V23.4765C7.8462 10.5374 16.8258 4.06781 34.7851 4.06781H47.3355L45.9254 19.7114H40.669C39.8865 13.0425 39.0227 9.71053 38.0777 9.71546H34.7851C26.3887 9.71546 22.1536 15.5698 22.0798 27.2785V35.1262C25.2198 32.3011 29.1793 30.8886 33.9583 30.8886C39.4328 30.8701 44.7101 32.9309 48.7234 36.6544C50.66 38.4826 52.2353 40.6589 53.367 43.0698C54.5567 45.5866 55.16 48.3405 55.1314 51.1242L55.1388 64.7597ZM41.112 58.5215C41.0332 44.5635 37.8956 37.5846 31.6992 37.5846C28.4017 37.5846 25.1853 39.1521 22.0502 42.2873V59.7987C22.0502 72.2703 25.2666 78.506 31.6992 78.506C33.1778 78.5419 34.645 78.2388 35.9885 77.6202C37.2866 76.9598 38.3262 75.8838 38.9415 74.5638C39.7901 72.7611 40.3458 70.8347 40.5878 68.8571C40.9786 65.9331 41.1562 62.9846 41.1194 60.0349L41.112 58.5215Z" fill="white"/>
</mask>
<g mask="url(#mask1_728_20690)">
<path d="M55.1388 64.7597C55.1388 71.1137 53.1381 75.9369 49.1368 79.2295C45.1355 82.5222 39.3328 84.166 31.7287 84.1611C23.4111 84.1611 17.35 82.2392 13.5455 78.3953C9.74106 74.5515 7.84128 68.5987 7.8462 60.5369V23.4765C7.8462 10.5374 16.8258 4.06781 34.7851 4.06781H47.3355L45.9254 19.7114H40.669C39.8865 13.0425 39.0227 9.71053 38.0777 9.71546H34.7851C26.3887 9.71546 22.1536 15.5698 22.0798 27.2785V35.1262C25.2198 32.3011 29.1793 30.8886 33.9583 30.8886C39.4328 30.8701 44.7101 32.9309 48.7234 36.6544C50.66 38.4826 52.2353 40.6589 53.367 43.0698C54.5567 45.5866 55.16 48.3405 55.1314 51.1242L55.1388 64.7597ZM41.112 58.5215C41.0332 44.5635 37.8956 37.5846 31.6992 37.5846C28.4017 37.5846 25.1853 39.1521 22.0502 42.2873V59.7987C22.0502 72.2703 25.2666 78.506 31.6992 78.506C33.1778 78.5419 34.645 78.2388 35.9885 77.6202C37.2866 76.9598 38.3262 75.8838 38.9415 74.5638C39.7901 72.7611 40.3458 70.8347 40.5878 68.8571C40.9786 65.9331 41.1562 62.9846 41.1194 60.0349L41.112 58.5215Z" fill="white"/>
</g>
</mask>
<g mask="url(#mask0_728_20690)">
<path d="M2.25781 3.64698C4.66452 3.55839 7.07124 3.52147 9.47056 3.45503L16.6833 3.34429C21.4967 3.27785 26.2806 3.27785 31.1088 3.24832C35.937 3.21879 40.7061 3.24831 45.5417 3.33691L52.7545 3.44766C55.1538 3.5141 57.5605 3.55839 59.9672 3.64698C57.5605 3.73557 55.1538 3.77986 52.7545 3.8463L45.5417 3.95704C40.7283 4.0161 35.9444 4.01612 31.1088 4.04565C26.2732 4.07518 21.5115 4.04563 16.6833 3.95704L9.47056 3.8463C7.07124 3.77986 4.66452 3.73557 2.25781 3.64698Z" fill="#9686D9"/>
<path d="M2.25781 6.19398C4.66452 6.10539 7.07124 6.06847 9.47056 6.00203L16.6833 5.89129C21.4967 5.82485 26.2806 5.82485 31.1088 5.79532C35.937 5.76578 40.7061 5.79531 45.5417 5.8839L52.7545 5.99464C55.1538 6.06108 57.5605 6.10539 59.9672 6.19398C57.5605 6.28257 55.1538 6.32686 52.7545 6.3933L45.5417 6.50403C40.7283 6.56309 35.9444 6.56309 31.1088 6.59262C26.2732 6.62215 21.5115 6.59262 16.6833 6.50403L9.47056 6.3933C7.07124 6.32686 4.66452 6.28257 2.25781 6.19398Z" fill="#9686D9"/>
<path d="M2.25781 8.74097C4.66452 8.65238 7.07124 8.61546 9.47056 8.54902L16.6833 8.43829C21.4967 8.37184 26.2806 8.37184 31.1088 8.34231C35.937 8.31278 40.7061 8.34233 45.5417 8.43092L52.7545 8.54165C55.1538 8.60809 57.5605 8.65238 59.9672 8.74097C57.5605 8.82956 55.1538 8.87385 52.7545 8.94029L45.5417 9.05105C40.7283 9.11011 35.9444 9.11011 31.1088 9.13964C26.2732 9.16917 21.5115 9.13964 16.6833 9.05105L9.47056 8.94029C7.07124 8.85909 4.66452 8.85909 2.25781 8.74097Z" fill="#9686D9"/>
<path d="M2.25781 11.288C4.66452 11.1994 7.07124 11.1625 9.47056 11.096L16.6833 10.9853C21.4967 10.9188 26.2806 10.9188 31.1088 10.8893C35.937 10.8598 40.7061 10.8893 45.5417 10.9779L52.7249 11.0739C55.1243 11.1403 57.531 11.1846 59.9377 11.2732C57.531 11.3618 55.1243 11.4061 52.7249 11.4725L45.5122 11.5833C40.6988 11.6423 35.9149 11.6423 31.0793 11.6719C26.2437 11.7014 21.482 11.6719 16.6538 11.5833L9.44103 11.4725C7.07123 11.4209 4.66452 11.3766 2.25781 11.288Z" fill="#9686D9"/>
<path d="M2.25781 13.8349C4.66452 13.7464 7.07124 13.7095 9.47056 13.643L16.6833 13.5323C21.4967 13.4658 26.2806 13.4658 31.1088 13.4363C35.937 13.4068 40.7061 13.4363 45.5417 13.5249L52.7545 13.6356C55.1538 13.7021 57.5605 13.7464 59.9672 13.8349C57.5605 13.9235 55.1538 13.9678 52.7545 14.0343L45.5417 14.145C40.7283 14.2041 35.9444 14.2041 31.1088 14.2336C26.2732 14.2631 21.5115 14.2336 16.6833 14.145L9.47056 14.0269C7.07124 13.9678 4.66452 13.9235 2.25781 13.8349Z" fill="#9686D9"/>
<path d="M2.25781 16.3819C4.66452 16.2933 7.07124 16.2564 9.47056 16.19L16.6833 16.0792C21.4967 16.0128 26.2806 16.0128 31.1088 15.9832C35.937 15.9537 40.7061 15.9832 45.5417 16.0718L52.7545 16.1826C55.1538 16.249 57.5605 16.2933 59.9672 16.3819C57.5605 16.4705 55.1538 16.5148 52.7545 16.5812L45.5417 16.692C40.7283 16.751 35.9444 16.751 31.1088 16.7806C26.2732 16.8101 21.5115 16.7806 16.6833 16.692L9.47056 16.5812C7.07124 16.5148 4.66452 16.4705 2.25781 16.3819Z" fill="#9686D9"/>
<path d="M2.25781 18.9289C4.66452 18.8403 7.07124 18.8034 9.47056 18.7369L16.6833 18.6262C21.4967 18.5598 26.2806 18.5598 31.1088 18.5302C35.937 18.5007 40.7061 18.5302 45.5417 18.6188L52.7545 18.7296C55.1538 18.796 57.5605 18.8403 59.9672 18.9289C57.5605 19.0175 55.1538 19.0618 52.7545 19.1282L45.5417 19.239C40.7283 19.298 35.9444 19.298 31.1088 19.3275C26.2732 19.3571 21.5115 19.3275 16.6833 19.239L9.47056 19.1282C7.07124 19.0618 4.66452 19.0175 2.25781 18.9289Z" fill="#9686D9"/>
<path d="M2.25781 21.4758C4.66452 21.3872 7.07124 21.3503 9.47056 21.2839L16.6833 21.1731C21.4967 21.1067 26.2806 21.1067 31.1088 21.0772C35.937 21.0476 40.7061 21.0772 45.5417 21.1658L52.7545 21.2765C55.1538 21.343 57.5605 21.3872 59.9672 21.4758C57.5605 21.5644 55.1538 21.6087 52.7545 21.6752L45.5417 21.7859C40.7283 21.845 35.9444 21.845 31.1088 21.8745C26.2732 21.904 21.5115 21.8745 16.6833 21.7859L9.47056 21.6752C7.07124 21.6087 4.66452 21.5644 2.25781 21.4758Z" fill="#9686D9"/>
<path d="M2.25781 24.0229C4.66452 23.9343 7.07124 23.8974 9.47056 23.8309L16.6833 23.7202C21.4967 23.6538 26.2806 23.6538 31.1088 23.6242C35.937 23.5947 40.7061 23.6242 45.5417 23.7128L52.7545 23.8236C55.1538 23.89 57.5605 23.9343 59.9672 24.0229C57.5605 24.1115 55.1538 24.1558 52.7545 24.2222L45.5417 24.333C40.7283 24.392 35.9444 24.392 31.1088 24.4215C26.2732 24.4511 21.5115 24.4215 16.6833 24.333L9.47056 24.2222C7.07124 24.1558 4.66452 24.1115 2.25781 24.0229Z" fill="#9686D9"/>
<path d="M2.25781 26.5772C4.66452 26.4886 7.07124 26.4517 9.47056 26.3853L16.6833 26.2745C21.4967 26.2081 26.2806 26.2081 31.1088 26.1786C35.937 26.149 40.7061 26.1786 45.5417 26.2671L52.7545 26.3779C55.1538 26.4443 57.5605 26.4886 59.9672 26.5772C57.5605 26.6658 55.1538 26.7101 52.7545 26.7765L45.5417 26.8873C40.7283 26.9464 35.9444 26.9464 31.1088 26.9759C26.2732 27.0054 21.5115 26.9759 16.6833 26.8873L9.47056 26.7765C7.07124 26.7027 4.66452 26.6584 2.25781 26.5772Z" fill="#9686D9"/>
<path d="M2.25781 29.1168C4.66452 29.0282 7.07124 28.9913 9.47056 28.9249L16.6833 28.8141C21.4967 28.7477 26.2806 28.7477 31.1088 28.7182C35.937 28.6886 40.7061 28.7182 45.5417 28.8068L52.7545 28.9175C55.1538 28.984 57.5605 29.0282 59.9672 29.1168C57.5605 29.2054 55.1538 29.2497 52.7545 29.3162L45.5417 29.4269C40.7283 29.4859 35.9444 29.486 31.1088 29.5155C26.2732 29.545 21.5115 29.5155 16.6833 29.4269L9.47056 29.3162C7.07124 29.2497 4.66452 29.2054 2.25781 29.1168Z" fill="#9686D9"/>
<path d="M2.25781 31.6638C4.66452 31.5752 7.07124 31.5383 9.47056 31.4718L16.6833 31.3611C21.4967 31.2946 26.2806 31.2946 31.1088 31.2651C35.937 31.2356 40.7061 31.2651 45.5417 31.3537L52.7545 31.4644C55.1538 31.5309 57.5605 31.5752 59.9672 31.6638C57.5605 31.7524 55.1538 31.7966 52.7545 31.8631L45.5417 31.9738C40.7283 32.0329 35.9444 32.0329 31.1088 32.0624C26.2732 32.0919 21.5115 32.0624 16.6833 31.9738L9.47056 31.8631C7.07124 31.7966 4.66452 31.745 2.25781 31.6638Z" fill="#9686D9"/>
<path d="M2.25781 34.2108C4.66452 34.1222 7.07124 34.0852 9.47056 34.0188L16.6833 33.9081C21.4967 33.8416 26.2806 33.8416 31.1088 33.8121C35.937 33.7826 40.7061 33.8121 45.5417 33.9007L52.7545 34.0114C55.1538 34.0779 57.5605 34.1222 59.9672 34.2108C57.5605 34.2994 55.1538 34.3436 52.7545 34.4101L45.5417 34.5208C40.7283 34.5799 35.9444 34.5799 31.1088 34.6094C26.2732 34.639 21.5115 34.6094 16.6833 34.5208L9.47056 34.4101C7.07124 34.3436 4.66452 34.2994 2.25781 34.2108Z" fill="#9686D9"/>
<path d="M2.25781 36.7578C4.66452 36.6692 7.07124 36.6323 9.47056 36.5658L16.6833 36.4551C21.4967 36.3886 26.2806 36.3886 31.1088 36.3591C35.937 36.3296 40.7061 36.3591 45.5417 36.4477L52.7545 36.5584C55.1538 36.6249 57.5605 36.6692 59.9672 36.7578C57.5605 36.8464 55.1538 36.8906 52.7545 36.9571L45.5417 37.0678C40.7283 37.1269 35.9444 37.1269 31.1088 37.1564C26.2732 37.1859 21.5115 37.1564 16.6833 37.0678L9.47056 36.9571C7.07124 36.9128 4.66452 36.8464 2.25781 36.7578Z" fill="#9686D9"/>
<path d="M2.25781 39.3047C4.66452 39.2161 7.07124 39.1792 9.47056 39.1128L16.6833 39.002C21.4967 38.9356 26.2806 38.9356 31.1088 38.9061C35.937 38.8766 40.7061 38.9061 45.5417 38.9947L52.7249 39.1276C55.1243 39.194 57.531 39.2383 59.9377 39.3269C57.531 39.4155 55.1243 39.4598 52.7249 39.5262L45.5122 39.637C40.6988 39.696 35.9149 39.696 31.0793 39.7255C26.2437 39.7551 21.482 39.7255 16.6538 39.637L9.44103 39.5262C7.07123 39.4376 4.66452 39.3933 2.25781 39.3047Z" fill="#9686D9"/>
<path d="M2.25781 41.8517C4.66452 41.7631 7.07124 41.7262 9.47056 41.6597L16.6833 41.549C21.4967 41.4826 26.2806 41.4826 31.1088 41.453C35.937 41.4235 40.7061 41.453 45.5417 41.5416L52.7545 41.6524C55.1538 41.7188 57.5605 41.7631 59.9672 41.8517C57.5605 41.9403 55.1538 41.9846 52.7545 42.051L45.5417 42.1617C40.7283 42.2208 35.9444 42.2208 31.1088 42.2504C26.2732 42.2799 21.5115 42.2503 16.6833 42.1617L9.47056 42.0806C7.07124 41.9846 4.66452 41.9403 2.25781 41.8517Z" fill="#9686D9"/>
<path d="M2.25781 44.3987C4.66452 44.3101 7.07124 44.2732 9.47056 44.2067L16.6833 44.096C21.4967 44.0296 26.2806 44.0296 31.1088 44C35.937 43.9705 40.7061 44 45.5417 44.0886L52.7545 44.1993C55.1538 44.2658 57.5605 44.3101 59.9672 44.3987C57.5605 44.4873 55.1538 44.5316 52.7545 44.598L45.5417 44.7087C40.7283 44.7678 35.9444 44.7678 31.1088 44.7973C26.2732 44.8269 21.5115 44.7973 16.6833 44.7087L9.47056 44.598C7.07124 44.5316 4.66452 44.4873 2.25781 44.3987Z" fill="#9686D9"/>
<path d="M2.25781 46.9457C4.66452 46.8571 7.07124 46.8202 9.47056 46.7537L16.6833 46.643C21.4967 46.5766 26.2806 46.5766 31.1088 46.547C35.937 46.5175 40.7061 46.547 45.5417 46.6356L52.7545 46.7464C55.1538 46.8128 57.5605 46.8571 59.9672 46.9457C57.5605 47.0343 55.1538 47.0786 52.7545 47.145L45.5417 47.2558C40.7283 47.3148 35.9444 47.3148 31.1088 47.3443C26.2732 47.3739 21.5115 47.3444 16.6833 47.2558L9.47056 47.145C7.07124 47.0786 4.66452 47.0343 2.25781 46.9457Z" fill="#9686D9"/>
<path d="M2.25781 49.4631C4.66452 49.3745 7.07124 49.3376 9.47056 49.2711L16.6833 49.1604C21.4967 49.094 26.2806 49.0939 31.1088 49.0644C35.937 49.0349 40.7061 49.0644 45.5417 49.153L52.7545 49.2638C55.1538 49.3302 57.5605 49.3745 59.9672 49.4631C57.5605 49.5517 55.1538 49.596 52.7545 49.6624L45.5417 49.7732C40.7283 49.8322 35.9444 49.8322 31.1088 49.8617C26.2732 49.8913 21.5115 49.8618 16.6833 49.7732L9.47056 49.6624C7.07124 49.6255 4.66452 49.5812 2.25781 49.4631Z" fill="#9686D9"/>
<path d="M2.25781 52.0396C4.66452 51.951 7.07124 51.9141 9.47056 51.8477L16.6833 51.7369C21.4967 51.6705 26.2806 51.6705 31.1088 51.641C35.937 51.6114 40.7061 51.641 45.5417 51.7295L52.7545 51.8403C55.1538 51.9067 57.5605 51.951 59.9672 52.0396C57.5605 52.1282 55.1538 52.1725 52.7545 52.2389L45.5417 52.3497C40.7283 52.4087 35.9444 52.4087 31.1088 52.4383C26.2732 52.4678 21.5115 52.4383 16.6833 52.3497L9.47056 52.2389C7.07124 52.1725 4.66452 52.1282 2.25781 52.0396Z" fill="#9686D9"/>
<path d="M2.25781 54.5866C4.66452 54.498 7.07124 54.4611 9.47056 54.3947L16.6833 54.2839C21.4967 54.2175 26.2806 54.2175 31.1088 54.188C35.937 54.1584 40.7061 54.188 45.5417 54.2765L52.7545 54.3873C55.1538 54.4537 57.5605 54.498 59.9672 54.5866C57.5605 54.6752 55.1538 54.7195 52.7545 54.7859L45.5417 54.8967C40.7283 54.9557 35.9444 54.9558 31.1088 54.9853C26.2732 55.0148 21.5115 54.9853 16.6833 54.8967L9.47056 54.7859C7.07124 54.7195 4.66452 54.6752 2.25781 54.5866Z" fill="#9686D9"/>
<path d="M2.25781 57.1336C4.66452 57.045 7.07124 57.0081 9.47056 56.9417L16.6833 56.8309C21.4967 56.7645 26.2806 56.7645 31.1088 56.735C35.937 56.7054 40.7061 56.7349 45.5417 56.8235L52.7545 56.9343C55.1538 57.0007 57.5605 57.045 59.9672 57.1336C57.5605 57.2222 55.1538 57.2665 52.7545 57.3329L45.5417 57.4437C40.7283 57.5027 35.9444 57.5027 31.1088 57.5323C26.2732 57.5618 21.5115 57.5323 16.6833 57.4437L9.47056 57.3329C7.07124 57.2665 4.66452 57.2222 2.25781 57.1336Z" fill="#9686D9"/>
<path d="M2.25781 59.6805C4.66452 59.592 7.07124 59.555 9.47056 59.4886L16.6833 59.3779C21.4967 59.3114 26.2806 59.3114 31.1088 59.2819C35.937 59.2524 40.7061 59.2819 45.5417 59.3705L52.7545 59.4812C55.1538 59.5477 57.5605 59.592 59.9672 59.6805C57.5605 59.7691 55.1538 59.8134 52.7545 59.8799L45.5417 59.9906C40.7283 60.0497 35.9444 60.0497 31.1088 60.0792C26.2732 60.1087 21.5115 60.0792 16.6833 59.9906L9.47056 59.8799C7.07124 59.7987 4.66452 59.7987 2.25781 59.6805Z" fill="#9686D9"/>
<path d="M2.25781 62.2275C4.66452 62.1389 7.07124 62.102 9.47056 62.0355L16.6833 61.9248C21.4967 61.8584 26.2806 61.8584 31.1088 61.8288C35.937 61.7993 40.7061 61.8288 45.5417 61.9174L52.7249 62.0134C55.1243 62.0798 57.531 62.1241 59.9377 62.2127C57.531 62.3013 55.1243 62.3456 52.7249 62.4121L45.5122 62.5228C40.6988 62.5818 35.9149 62.5818 31.0793 62.6114C26.2437 62.6409 21.482 62.6114 16.6538 62.5228L9.44103 62.4121C7.07123 62.3604 4.66452 62.3161 2.25781 62.2275Z" fill="#9686D9"/>
<path d="M2.25781 64.7745C4.66452 64.6859 7.07124 64.649 9.47056 64.5826L16.6833 64.4718C21.4967 64.4054 26.2806 64.4054 31.1088 64.3759C35.937 64.3464 40.7061 64.3759 45.5417 64.4645L52.7545 64.5752C55.1538 64.6416 57.5605 64.6859 59.9672 64.7745C57.5605 64.8631 55.1538 64.9074 52.7545 64.9739L45.5417 65.0846C40.7283 65.1437 35.9444 65.1437 31.1088 65.1732C26.2732 65.2027 21.5115 65.1732 16.6833 65.0846L9.47056 64.9665C7.07124 64.9074 4.66452 64.8631 2.25781 64.7745Z" fill="#9686D9"/>
<path d="M2.25781 67.3215C4.66452 67.233 7.07124 67.196 9.47056 67.1296L16.6833 67.0189C21.4967 66.9524 26.2806 66.9524 31.1088 66.9229C35.937 66.8933 40.7061 66.9229 45.5417 67.0115L52.7545 67.1222C55.1538 67.1887 57.5605 67.233 59.9672 67.3215C57.5605 67.4101 55.1538 67.4544 52.7545 67.5209L45.5417 67.6316C40.7283 67.6907 35.9444 67.6907 31.1088 67.7202C26.2732 67.7497 21.5115 67.7202 16.6833 67.6316L9.47056 67.5209C7.07124 67.4544 4.66452 67.4101 2.25781 67.3215Z" fill="#9686D9"/>
<path d="M2.25781 69.8685C4.66452 69.7799 7.07124 69.743 9.47056 69.6765L16.6833 69.5658C21.4967 69.4993 26.2806 69.4993 31.1088 69.4698C35.937 69.4403 40.7061 69.4698 45.5417 69.5584L52.7545 69.6691C55.1538 69.7356 57.5605 69.7799 59.9672 69.8685C57.5605 69.9571 55.1538 70.0014 52.7545 70.0678L45.5417 70.1785C40.7283 70.2376 35.9444 70.2376 31.1088 70.2671C26.2732 70.2967 21.5115 70.2671 16.6833 70.1785L9.47056 70.0678C7.07124 70.0014 4.66452 69.9571 2.25781 69.8685Z" fill="#9686D9"/>
<path d="M2.25781 72.4155C4.66452 72.3269 7.07124 72.29 9.47056 72.2235L16.6833 72.1128C21.4967 72.0463 26.2806 72.0463 31.1088 72.0168C35.937 71.9873 40.7061 72.0168 45.5417 72.1054L52.7545 72.2162C55.1538 72.2826 57.5605 72.3269 59.9672 72.4155C57.5605 72.5041 55.1538 72.5483 52.7545 72.6148L45.5417 72.7255C40.7283 72.7846 35.9444 72.7846 31.1088 72.8141C26.2732 72.8437 21.5115 72.8141 16.6833 72.7255L9.47056 72.6148C7.07124 72.5483 4.66452 72.5041 2.25781 72.4155Z" fill="#9686D9"/>
<path d="M2.25781 74.9625C4.66452 74.8739 7.07124 74.837 9.47056 74.7705L16.6833 74.6598C21.4967 74.5933 26.2806 74.5933 31.1088 74.5638C35.937 74.5343 40.7061 74.5638 45.5417 74.6524L52.7545 74.7631C55.1538 74.8296 57.5605 74.8739 59.9672 74.9625C57.5605 75.0511 55.1538 75.0954 52.7545 75.1618L45.5417 75.2725C40.7283 75.3316 35.9444 75.3316 31.1088 75.3611C26.2732 75.3906 21.5115 75.3611 16.6833 75.2725L9.47056 75.1618C7.07124 75.0954 4.66452 75.0511 2.25781 74.9625Z" fill="#9686D9"/>
<path d="M2.25781 77.5168C4.66452 77.4282 7.07124 77.3913 9.47056 77.3248L16.6833 77.2141C21.4967 77.1477 26.2806 77.1477 31.1088 77.1181C35.937 77.0886 40.7061 77.1181 45.5417 77.2067L52.7545 77.3175C55.1538 77.3839 57.5605 77.4282 59.9672 77.5168C57.5605 77.6054 55.1538 77.6497 52.7545 77.7161L45.5417 77.8269C40.7283 77.8859 35.9444 77.8859 31.1088 77.9155C26.2732 77.945 21.5115 77.9155 16.6833 77.8269L9.47056 77.7161C7.07124 77.6423 4.66452 77.598 2.25781 77.5168Z" fill="#9686D9"/>
<path d="M2.25781 80.0564C4.66452 79.9678 7.07124 79.9309 9.47056 79.8645L16.6833 79.7537C21.4967 79.6873 26.2806 79.6873 31.1088 79.6577C35.937 79.6282 40.7061 79.6577 45.5417 79.7463L52.7545 79.8571C55.1538 79.9235 57.5605 79.9678 59.9672 80.0564C57.5605 80.145 55.1538 80.1893 52.7545 80.2557L45.5417 80.3665C40.7283 80.4255 35.9444 80.4255 31.1088 80.4551C26.2732 80.4846 21.5115 80.4551 16.6833 80.3665L9.47056 80.2557C7.07124 80.1893 4.66452 80.145 2.25781 80.0564Z" fill="#9686D9"/>
<path d="M2.25781 82.6034C4.66452 82.5148 7.07124 82.4779 9.47056 82.4114L16.6833 82.3007C21.4967 82.2343 26.2806 82.2343 31.1088 82.2047C35.937 82.1752 40.7061 82.2047 45.5417 82.2933L52.7545 82.4041C55.1538 82.4705 57.5605 82.5148 59.9672 82.6034C57.5605 82.692 55.1538 82.7363 52.7545 82.8027L45.5417 82.9135C40.7283 82.9725 35.9444 82.9725 31.1088 83.002C26.2732 83.0316 21.5115 83.002 16.6833 82.9135L9.47056 82.8027C7.07124 82.7363 4.66452 82.6846 2.25781 82.6034Z" fill="#9686D9"/>
</g>
<path d="M46.4424 4.90205L45.1873 18.8477H41.4222C40.2853 9.59734 39.1927 8.85909 38.0779 8.85909H34.7853C25.8746 8.85909 21.3122 15.053 21.231 27.2712V37.0235L22.6484 35.7463C25.6014 33.0812 29.4182 31.7302 33.9585 31.7302C39.2188 31.7122 44.2899 33.691 48.1477 37.2671C49.9961 39.0246 51.4985 41.113 52.5773 43.4242C53.71 45.8291 54.2853 48.4586 54.2605 51.1168V64.7671C54.2605 70.8282 52.3484 75.4718 48.5685 78.5873C44.7887 81.7027 39.0672 83.3343 31.6994 83.3343C23.6598 83.3343 17.7464 81.4738 14.1216 77.8195C10.4967 74.1651 8.69538 68.3329 8.69538 60.5369V23.4765C8.69538 10.9853 17.2296 4.91681 34.7853 4.91681H46.4424M31.7289 79.3772C33.3372 79.411 34.9323 79.0804 36.3947 78.4101C37.8501 77.6596 39.0177 76.4505 39.7169 74.9698C40.6054 73.0851 41.1909 71.072 41.4518 69.0047C41.8447 66.0388 42.0248 63.0487 41.9907 60.0571V58.5215C41.9095 44.0665 38.4544 36.7356 31.7289 36.7356C28.2148 36.7356 24.7672 38.3967 21.482 41.6893L21.231 41.9329V59.7987C21.231 72.7698 24.7598 79.355 31.7289 79.355M47.3726 4.05304H34.8222C16.858 4.05304 7.87838 10.5226 7.8833 23.4618V60.5369C7.8833 68.6184 9.78308 74.581 13.5826 78.4249C17.3822 82.2687 23.431 84.1808 31.7289 84.1611C39.333 84.1611 45.1356 82.5123 49.137 79.2148C53.1383 75.9172 55.139 71.094 55.139 64.745V51.1094C55.1676 48.3257 54.5643 45.5719 53.3746 43.0551C52.2429 40.6442 50.6676 38.4678 48.7309 36.6396C44.7177 32.9161 39.4404 30.8553 33.9659 30.8739C29.182 30.8739 25.2225 32.2864 22.0873 35.1114V27.2638C22.1612 15.5551 26.3963 9.70071 34.7927 9.70071H38.0853C39.0303 9.70071 39.894 13.0327 40.6766 19.6967H45.9699L47.3799 4.05304H47.3726ZM31.7289 78.5282C25.2914 78.5282 22.075 72.2924 22.0799 59.8208V42.2873C25.22 39.1521 28.4363 37.5846 31.7289 37.5846C37.9254 37.5846 41.0629 44.5636 41.1417 58.5215V60.0571C41.1785 63.0068 41.0009 65.9553 40.6101 68.8792C40.3659 70.8493 39.8102 72.7681 38.9638 74.5638C38.3486 75.8838 37.3089 76.9599 36.0108 77.6202C34.6674 78.2388 33.2002 78.5419 31.7216 78.5061L31.7289 78.5282Z" fill="#161548"/>
<path d="M22.0796 59.7987V42.2873C24.6265 39.7403 27.2474 38.2416 29.8903 37.7618C29.3785 37.6494 28.8565 37.59 28.3326 37.5846C25.035 37.5846 21.8187 39.1522 18.6836 42.2873V59.7987C18.6836 72.2703 21.8999 78.5061 28.3326 78.5061C28.9486 78.5049 29.5634 78.4531 30.1708 78.351C24.7816 77.4011 22.0845 71.217 22.0796 59.7987Z" fill="#161548"/>
<path d="M47.1542 19.6967L48.7723 4.05304H44.8754L43.2573 19.6967H47.1542Z" fill="#161548"/>
<path d="M53.3747 43.0551C52.2431 40.6442 50.6678 38.4679 48.7311 36.6397C44.7178 32.9162 39.4405 30.8554 33.966 30.8739C33.3533 30.8739 32.7479 30.8739 32.1573 30.9477C37.0766 31.2704 41.7339 33.2809 45.3425 36.6397C47.2792 38.4679 48.8545 40.6442 49.9861 43.0551C51.1724 45.5731 51.7756 48.3262 51.7506 51.1095V64.7598C51.7506 71.1137 49.7499 75.937 45.7486 79.2296C42.013 82.3081 36.6828 83.9323 29.8022 84.1316C30.4298 84.1316 31.072 84.1759 31.7365 84.1759C39.3405 84.1759 45.1432 82.5271 49.1445 79.2296C53.1459 75.9321 55.1465 71.1088 55.1465 64.7598V51.1095C55.1728 48.3252 54.567 45.5713 53.3747 43.0551Z" fill="#161548"/>
<path d="M18.6836 27.2638V39.3047L22.0796 36.2484V27.2638C22.1386 18.1537 23.4749 12.1886 32.3487 9.05841C29.6032 9.3586 26.9466 10.2098 24.538 11.5611C20.6892 14.1253 18.7377 19.3595 18.6836 27.2638Z" fill="#161548"/>
</svg>
