<svg width="63" height="88" viewBox="0 0 63 88" fill="none" xmlns="http://www.w3.org/2000/svg">
<path d="M7.40336 88L31.5627 14.7899H20.7513C20.2326 16.9035 19.8814 19.0547 19.7012 21.2235L19.3019 24.4034H7.01883L5 0H59.0571L28.8857 88H7.40336Z" fill="white"/>
<path d="M26.1492 83.9919H12.7125L36.8719 11.2773H18.488C17.5414 11.2773 16.6762 14.6173 15.8924 21.2975H10.5902L9.17773 3.26117H53.725L26.1492 83.9919Z" fill="#6362D1"/>
<mask id="mask0_728_19876" style="mask-type:luminance" maskUnits="userSpaceOnUse" x="9" y="3" width="45" height="81">
<path d="M26.1492 83.9919H12.7125L36.8719 11.2773H18.488C17.5414 11.2773 16.6762 14.6173 15.8924 21.2975H10.5902L9.17773 3.26117H53.725L26.1492 83.9919Z" fill="white"/>
</mask>
<g mask="url(#mask0_728_19876)">
<path d="M4.31299 5.24307L6.66459 5.16911C8.14358 5.16911 10.3029 5.0582 12.869 5.02123C15.435 4.98425 18.43 4.9177 21.6394 4.90291L31.7039 4.85114L41.7611 4.90291C44.9705 4.90291 47.9654 4.99165 50.5315 5.02123C53.0975 5.05081 55.2421 5.13953 56.7358 5.16911L59.0874 5.24307L56.7358 5.31702C55.2569 5.354 53.0975 5.42795 50.5315 5.46493C47.9654 5.5019 44.9705 5.56844 41.7611 5.58323L31.7039 5.635L21.6394 5.58323C18.43 5.58323 15.435 5.49451 12.869 5.46493C10.3029 5.43535 8.15837 5.354 6.66459 5.31702L4.31299 5.24307Z" fill="#9686D9"/>
<path d="M4.31299 7.79434L6.66459 7.72038C8.14358 7.72038 10.3029 7.60945 12.869 7.57247C15.435 7.5355 18.43 7.46894 21.6394 7.45415L31.7039 7.4024L41.7611 7.45415C44.9705 7.45415 47.9654 7.54289 50.5315 7.57247C53.0975 7.60205 55.2421 7.6908 56.7358 7.72038L59.0874 7.79434L56.7358 7.86829C55.2569 7.90527 53.0975 7.9792 50.5315 8.01618C47.9654 8.05315 44.9705 8.11971 41.7611 8.1345L31.7039 8.18627L21.6394 8.1345C18.43 8.1345 15.435 8.04576 12.869 8.01618C10.3029 7.9866 8.15837 7.90527 6.66459 7.86829L4.31299 7.79434Z" fill="#9686D9"/>
<path d="M4.31299 10.3529L6.66459 10.279C8.14358 10.279 10.3029 10.1681 12.869 10.1311C15.435 10.0941 18.43 10.0276 21.6394 10.0128L31.7039 9.961L41.7611 10.0128C44.9705 10.0128 47.9654 10.1015 50.5315 10.1311C53.0975 10.1607 55.2421 10.2494 56.7358 10.279L59.0874 10.3529L56.7358 10.4269C55.2569 10.4639 53.0975 10.5378 50.5315 10.5748C47.9654 10.6117 44.9705 10.6783 41.7611 10.6931L31.7039 10.7449L21.6394 10.6931C18.43 10.6931 15.435 10.6043 12.869 10.5748C10.3029 10.5452 8.15837 10.4639 6.66459 10.4269L4.31299 10.3529Z" fill="#9686D9"/>
<path d="M4.31299 12.8968L6.66459 12.8229C8.14358 12.8229 10.3029 12.7119 12.869 12.675C15.435 12.638 18.43 12.5714 21.6394 12.5567L31.7039 12.5049L41.7758 12.5714C44.9853 12.5714 47.9802 12.6602 50.5463 12.6898C53.1123 12.7193 55.2569 12.8081 56.7506 12.8376L59.1022 12.9116L56.7506 12.9856C55.2716 12.9856 53.1123 13.0965 50.5463 13.1335C47.9802 13.1704 44.9853 13.237 41.7758 13.2518L31.7187 13.3035L21.6542 13.2518C18.4448 13.2518 15.4498 13.163 12.8837 13.1335C10.3177 13.1039 8.17316 13.0225 6.67938 12.9856L4.31299 12.8968Z" fill="#9686D9"/>
<path d="M4.31299 15.4481L6.66459 15.3742C8.14358 15.3742 10.3029 15.2632 12.869 15.2262C15.435 15.1893 18.43 15.1227 21.6394 15.1079L31.7039 15.0562L41.7611 15.1079C44.9705 15.1079 47.9654 15.1967 50.5315 15.2262C53.0975 15.2558 55.2421 15.3446 56.7358 15.3742L59.0874 15.4481L56.7358 15.522C55.2569 15.559 53.0975 15.633 50.5315 15.6699C47.9654 15.7069 44.9705 15.7735 41.7611 15.7883L31.7039 15.84L21.6394 15.7883C18.43 15.7883 15.435 15.6995 12.869 15.6699C10.3029 15.6404 8.15837 15.559 6.66459 15.522L4.31299 15.4481Z" fill="#9686D9"/>
<path d="M4.31299 17.9994L6.66459 17.9254C8.14358 17.9254 10.3029 17.8145 12.869 17.7775C15.435 17.7405 18.43 17.674 21.6394 17.6592L31.7039 17.6074L41.7611 17.6592C44.9705 17.6592 47.9654 17.7479 50.5315 17.7775C53.0975 17.8071 55.2421 17.8958 56.7358 17.9254L59.0874 17.9994L56.7358 18.0733C55.2569 18.1103 53.0975 18.1842 50.5315 18.2212C47.9654 18.2582 44.9705 18.3247 41.7611 18.3395L31.7039 18.3913L21.6394 18.3395C18.43 18.3395 15.435 18.2508 12.869 18.2212C10.3029 18.1916 8.15837 18.1103 6.66459 18.0733L4.31299 17.9994Z" fill="#9686D9"/>
<path d="M4.31299 20.5506L6.66459 20.4767C8.14358 20.4767 10.3029 20.3657 12.869 20.3288C15.435 20.2918 18.43 20.2252 21.6394 20.2104L31.7039 20.1587L41.7611 20.2104C44.9705 20.2104 47.9654 20.2992 50.5315 20.3288C53.0975 20.3583 55.2421 20.4471 56.7358 20.4767L59.0874 20.5506L56.7358 20.6246C55.2569 20.6616 53.0975 20.7355 50.5315 20.7725C47.9654 20.8094 44.9705 20.876 41.7611 20.8908L31.7039 20.9426L21.6394 20.8908C18.43 20.8908 15.435 20.802 12.869 20.7725C10.3029 20.7429 8.15837 20.6616 6.66459 20.6246L4.31299 20.5506Z" fill="#9686D9"/>
<path d="M4.31299 23.1018L6.66459 23.0279C8.14358 23.0279 10.3029 22.917 12.869 22.88C15.435 22.843 18.43 22.7765 21.6394 22.7617L31.7039 22.7099L41.7611 22.7617C44.9705 22.7617 47.9654 22.8504 50.5315 22.88C53.0975 22.9096 55.2421 22.9983 56.7358 23.0279L59.0874 23.1018L56.7358 23.1758C55.2569 23.2128 53.0975 23.2867 50.5315 23.3237C47.9654 23.3607 44.9705 23.4272 41.7611 23.442L31.7039 23.4938L21.6394 23.442C18.43 23.442 15.435 23.3533 12.869 23.3237C10.3029 23.2941 8.15837 23.2128 6.66459 23.1758L4.31299 23.1018Z" fill="#9686D9"/>
<path d="M4.31299 25.6532L6.66459 25.5792C8.14358 25.5792 10.3029 25.4683 12.869 25.4313C15.435 25.3943 18.43 25.3278 21.6394 25.313L31.7039 25.2612L41.7611 25.313C44.9705 25.313 47.9654 25.4017 50.5315 25.4313C53.0975 25.4609 55.2421 25.5496 56.7358 25.5792L59.0874 25.6532L56.7358 25.7271C55.2569 25.7271 53.0975 25.838 50.5315 25.875C47.9654 25.912 44.9705 25.9785 41.7611 25.9933L31.7039 26.0451L21.6394 25.9933C18.43 25.9933 15.435 25.9046 12.869 25.875C10.3029 25.8454 8.15837 25.7641 6.66459 25.7271L4.31299 25.6532Z" fill="#9686D9"/>
<path d="M4.31299 28.2044L6.66459 28.1304C8.14358 28.1304 10.3029 28.0195 12.869 27.9825C15.435 27.9456 18.43 27.879 21.6394 27.8642L31.7039 27.8124L41.7611 27.8642C44.9705 27.8642 47.9654 27.953 50.5315 27.9825C53.0975 28.0121 55.2421 28.1009 56.7358 28.1304L59.0874 28.2044L56.7358 28.2783C55.2569 28.3153 53.0975 28.3893 50.5315 28.4262C47.9654 28.4632 44.9705 28.5298 41.7611 28.5446L31.7039 28.5963L21.6394 28.5446C18.43 28.5446 15.435 28.4558 12.869 28.4262C10.3029 28.3967 8.15837 28.3153 6.66459 28.2783L4.31299 28.2044Z" fill="#9686D9"/>
<path d="M4.31299 30.7556L6.66459 30.6817C8.14358 30.6817 10.3029 30.5708 12.869 30.5338C15.435 30.4968 18.43 30.4303 21.6394 30.4155L31.7039 30.3637L41.7611 30.4155C44.9705 30.4155 47.9654 30.5042 50.5315 30.5338C53.0975 30.5634 55.2421 30.6521 56.7358 30.6817L59.0874 30.7556L56.7358 30.8296C55.2569 30.8666 53.0975 30.9405 50.5315 30.9775C47.9654 31.0145 44.9705 31.081 41.7611 31.0958L31.7039 31.1476L21.6394 31.0958C18.43 31.0958 15.435 31.0071 12.869 30.9775C10.3029 30.9479 8.15837 30.8666 6.66459 30.8296L4.31299 30.7556Z" fill="#9686D9"/>
<path d="M4.31299 33.2774L6.66459 33.2034C8.14358 33.2034 10.3029 33.0925 12.869 33.0555C15.435 33.0186 18.43 32.952 21.6394 32.9372L31.7039 32.8854L41.7611 32.9372C44.9705 32.9372 47.9654 33.0259 50.5315 33.0555C53.0975 33.0851 55.2421 33.1738 56.7358 33.2034L59.0874 33.2774L56.7358 33.3513C55.2569 33.3883 53.0975 33.4622 50.5315 33.4992C47.9654 33.5362 44.9705 33.6027 41.7611 33.6175L31.7039 33.6693L21.6394 33.6175C18.43 33.6175 15.435 33.5288 12.869 33.4992C10.3029 33.4696 8.15837 33.3883 6.66459 33.3513L4.31299 33.2774Z" fill="#9686D9"/>
<path d="M4.31299 35.8582L6.66459 35.7842C8.14358 35.7842 10.3029 35.6733 12.869 35.6363C15.435 35.5994 18.43 35.5328 21.6394 35.518L31.7039 35.4662L41.7758 35.4958C44.9853 35.4958 47.9802 35.5846 50.5463 35.6142C53.1123 35.6437 55.2569 35.7325 56.7506 35.762L59.1022 35.836L56.7506 35.9099C55.2716 35.9469 53.1123 36.0209 50.5463 36.0579C47.9802 36.0948 44.9853 36.1614 41.7758 36.1762L31.7187 36.2279L21.6394 36.2353C18.43 36.2353 15.435 36.1466 12.869 36.117C10.3029 36.0874 8.15837 36.0061 6.66459 35.9691L4.31299 35.8582Z" fill="#9686D9"/>
<path d="M4.31299 38.4094L6.66459 38.3355C8.14358 38.3355 10.3029 38.2246 12.869 38.1876C15.435 38.1506 18.43 38.0841 21.6394 38.0693L31.7039 38.0175L41.7611 38.0693C44.9705 38.0693 47.9654 38.158 50.5315 38.1876C53.0975 38.2172 55.2421 38.3059 56.7358 38.3355L59.0874 38.4094L56.7358 38.4834C55.2569 38.4834 53.0975 38.5943 50.5315 38.6313C47.9654 38.6683 44.9705 38.7348 41.7611 38.7496L31.7039 38.8014L21.6394 38.7496C18.43 38.7496 15.435 38.6609 12.869 38.6313C10.3029 38.6017 8.15837 38.5204 6.66459 38.4834L4.31299 38.4094Z" fill="#9686D9"/>
<path d="M4.31299 40.9607L6.66459 40.8867C8.14358 40.8867 10.3029 40.7758 12.869 40.7388C15.435 40.7018 18.43 40.6353 21.6394 40.6205L31.7039 40.5687L41.7611 40.6205C44.9705 40.6205 47.9654 40.7092 50.5315 40.7388C53.0975 40.7684 55.2421 40.8571 56.7358 40.8867L59.0874 40.9607L56.7358 41.0346C55.2569 41.0716 53.0975 41.1455 50.5315 41.1825C47.9654 41.2195 44.9705 41.2861 41.7611 41.3008L31.7039 41.3526L21.6394 41.3008C18.43 41.3008 15.435 41.2121 12.869 41.1825C10.3029 41.1529 8.15837 41.0716 6.66459 41.0346L4.31299 40.9607Z" fill="#9686D9"/>
<path d="M4.31299 43.5119L6.66459 43.438C8.14358 43.438 10.3029 43.3271 12.869 43.2901C15.435 43.2531 18.43 43.1866 21.6394 43.1718L31.7039 43.12L41.7611 43.1718C44.9705 43.1718 47.9654 43.2605 50.5315 43.2901C53.0975 43.3197 55.2421 43.4084 56.7358 43.438L59.0874 43.5119L56.7358 43.5859C55.2569 43.6229 53.0975 43.6968 50.5315 43.7338C47.9654 43.7708 44.9705 43.8373 41.7611 43.8521L31.7039 43.9039L21.6394 43.8521C18.43 43.8521 15.435 43.7634 12.869 43.7338C10.3029 43.7042 8.15837 43.6229 6.66459 43.5859L4.31299 43.5119Z" fill="#9686D9"/>
<path d="M4.31299 46.0632L6.66459 45.9892C8.14358 45.9892 10.3029 45.8783 12.869 45.8413C15.435 45.8044 18.43 45.7378 21.6394 45.723L31.7039 45.6713L41.7611 45.723C44.9705 45.723 47.9654 45.8118 50.5315 45.8413C53.0975 45.8709 55.2421 45.9597 56.7358 45.9892L59.0874 46.0632L56.7358 46.1372C55.2569 46.1741 53.0975 46.2481 50.5315 46.285C47.9654 46.322 44.9705 46.3886 41.7611 46.4034L31.7039 46.4551L21.6394 46.4034C18.43 46.4034 15.435 46.3146 12.869 46.285C10.3029 46.2555 8.15837 46.1741 6.66459 46.1372L4.31299 46.0632Z" fill="#9686D9"/>
<path d="M4.31299 48.6145L6.66459 48.5405C8.14358 48.5405 10.3029 48.4296 12.869 48.3926C15.435 48.3557 18.43 48.2891 21.6394 48.2743L31.7039 48.2225L41.7611 48.2743C44.9705 48.2743 47.9654 48.363 50.5315 48.3926C53.0975 48.4222 55.2421 48.511 56.7358 48.5405L59.0874 48.6145L56.7358 48.6884C55.2569 48.7254 53.0975 48.7994 50.5315 48.8363C47.9654 48.8733 44.9705 48.9399 41.7611 48.9547L31.7039 49.0064L21.6394 48.9547C18.43 48.9547 15.435 48.8659 12.869 48.8363C10.3029 48.8067 8.15837 48.7254 6.66459 48.6884L4.31299 48.6145Z" fill="#9686D9"/>
<path d="M4.31299 51.1657L6.66459 51.0918C8.14358 51.0918 10.3029 50.9809 12.869 50.9439C15.435 50.9069 18.43 50.8404 21.6394 50.8256L31.7039 50.7738L41.7611 50.8256C44.9705 50.8256 47.9654 50.9143 50.5315 50.9439C53.0975 50.9735 55.2421 51.0622 56.7358 51.0918L59.0874 51.1657L56.7358 51.2397C55.2569 51.2397 53.0975 51.3506 50.5315 51.3876C47.9654 51.4246 44.9705 51.4911 41.7611 51.5059L31.7039 51.5577L21.6394 51.5059C18.43 51.5059 15.435 51.4172 12.869 51.3876C10.3029 51.358 8.15837 51.2767 6.66459 51.2397L4.31299 51.1657Z" fill="#9686D9"/>
<path d="M4.31299 53.717L6.66459 53.6431C8.14358 53.6431 10.3029 53.5321 12.869 53.4952C15.435 53.4582 18.43 53.3916 21.6394 53.3768L31.7039 53.3251L41.7611 53.3768C44.9705 53.3768 47.9654 53.4656 50.5315 53.4952C53.0975 53.5247 55.2421 53.6135 56.7358 53.6431L59.0874 53.717L56.7358 53.791C55.2569 53.8279 53.0975 53.9019 50.5315 53.9389C47.9654 53.9758 44.9705 54.0424 41.7611 54.0572L31.7039 54.109L21.6394 54.0572C18.43 54.0572 15.435 53.9684 12.869 53.9389C10.3029 53.9093 8.15837 53.8279 6.66459 53.791L4.31299 53.717Z" fill="#9686D9"/>
<path d="M4.31299 56.2683L6.66459 56.1943C8.14358 56.1943 10.3029 56.0834 12.869 56.0464C15.435 56.0095 18.43 55.9429 21.6394 55.9281L31.7039 55.8763L41.7611 55.9281C44.9705 55.9281 47.9654 56.0169 50.5315 56.0464C53.0975 56.076 55.2421 56.1647 56.7358 56.1943L59.0874 56.2683L56.7358 56.3422C55.2569 56.3792 53.0975 56.4532 50.5315 56.4901C47.9654 56.5271 44.9705 56.5936 41.7611 56.6084L31.7039 56.6602L21.6394 56.6084C18.43 56.6084 15.435 56.5197 12.869 56.4901C10.3029 56.4606 8.15837 56.3792 6.66459 56.3422L4.31299 56.2683Z" fill="#9686D9"/>
<path d="M4.31299 58.8195L6.66459 58.7456C8.14358 58.7456 10.3029 58.6347 12.869 58.5977C15.435 58.5607 18.43 58.4941 21.6394 58.4794L31.7039 58.4276L41.7611 58.4794C44.9705 58.4794 47.9654 58.5681 50.5315 58.5977C53.0975 58.6273 55.2421 58.716 56.7358 58.7456L59.0874 58.8195L56.7358 58.8935C55.2569 58.9305 53.0975 59.0044 50.5315 59.0414C47.9654 59.0784 44.9705 59.1449 41.7611 59.1597L31.7039 59.2115L21.6394 59.1597C18.43 59.1597 15.435 59.071 12.869 59.0414C10.3029 59.0118 8.15837 58.9305 6.66459 58.8935L4.31299 58.8195Z" fill="#9686D9"/>
<path d="M4.31299 61.3782L6.66459 61.3042C8.14358 61.3042 10.3029 61.1933 12.869 61.1564C15.435 61.1194 18.43 61.0528 21.6394 61.038L31.7039 60.9863L41.7611 61.038C44.9705 61.038 47.9654 61.1268 50.5315 61.1564C53.0975 61.1859 55.2421 61.2747 56.7358 61.3042L59.0874 61.3782L56.7358 61.4522C55.2569 61.4891 53.0975 61.5631 50.5315 61.6C47.9654 61.637 44.9705 61.7036 41.7611 61.7184L31.7039 61.7701L21.6394 61.7184C18.43 61.7184 15.435 61.6296 12.869 61.6C10.3029 61.5705 8.15837 61.4891 6.66459 61.4522L4.31299 61.3782Z" fill="#9686D9"/>
<path d="M4.31299 63.9221L6.66459 63.8481C8.14358 63.8481 10.3029 63.7372 12.869 63.7002C15.435 63.6633 18.43 63.5967 21.6394 63.5819L31.7039 63.5302L41.7758 63.5967C44.9853 63.5967 47.9802 63.6854 50.5463 63.715C53.1123 63.7446 55.2569 63.8333 56.7506 63.8629L59.1022 63.9369L56.7506 64.0108C55.2716 64.0108 53.1123 64.1218 50.5463 64.1587C47.9802 64.1957 44.9853 64.2623 41.7758 64.277L31.7187 64.3288L21.6542 64.277C18.4448 64.277 15.4498 64.1883 12.8837 64.1587C10.3177 64.1291 8.17316 64.0478 6.67938 64.0108L4.31299 63.9221Z" fill="#9686D9"/>
<path d="M4.31299 66.4734L6.66459 66.3994C8.14358 66.3994 10.3029 66.2885 12.869 66.2515C15.435 66.2145 18.43 66.148 21.6394 66.1332L31.7039 66.0814L41.7611 66.1332C44.9705 66.1332 47.9654 66.2219 50.5315 66.2515C53.0975 66.2811 55.2421 66.3698 56.7358 66.3994L59.0874 66.4734L56.7358 66.5473C55.2569 66.5843 53.0975 66.6582 50.5315 66.6952C47.9654 66.7322 44.9705 66.7987 41.7611 66.8135L31.7039 66.8653L21.6394 66.8135C18.43 66.8135 15.435 66.7248 12.869 66.6952C10.3029 66.6656 8.15837 66.5843 6.66459 66.5473L4.31299 66.4734Z" fill="#9686D9"/>
<path d="M4.31299 69.0246L6.66459 68.9507C8.14358 68.9507 10.3029 68.8398 12.869 68.8028C15.435 68.7658 18.43 68.6993 21.6394 68.6845L31.7039 68.6327L41.7611 68.6845C44.9705 68.6845 47.9654 68.7732 50.5315 68.8028C53.0975 68.8324 55.2421 68.9211 56.7358 68.9507L59.0874 69.0246L56.7358 69.0986C55.2569 69.1356 53.0975 69.2095 50.5315 69.2465C47.9654 69.2835 44.9705 69.35 41.7611 69.3648L31.7039 69.4166L21.6394 69.3648C18.43 69.3648 15.435 69.2761 12.869 69.2465C10.3029 69.2169 8.15837 69.1356 6.66459 69.0986L4.31299 69.0246Z" fill="#9686D9"/>
<path d="M4.31299 71.5759L6.66459 71.5019C8.14358 71.5019 10.3029 71.391 12.869 71.354C15.435 71.3171 18.43 71.2505 21.6394 71.2357L31.7039 71.184L41.7611 71.2357C44.9705 71.2357 47.9654 71.3244 50.5315 71.354C53.0975 71.3836 55.2421 71.4724 56.7358 71.5019L59.0874 71.5759L56.7358 71.6498C55.2569 71.6868 53.0975 71.7608 50.5315 71.7977C47.9654 71.8347 44.9705 71.9013 41.7611 71.9161L31.7039 71.9678L21.6394 71.9161C18.43 71.9161 15.435 71.8273 12.869 71.7977C10.3029 71.7682 8.15837 71.6868 6.66459 71.6498L4.31299 71.5759Z" fill="#9686D9"/>
<path d="M4.31299 74.1272L6.66459 74.0532C8.14358 74.0532 10.3029 73.9423 12.869 73.9053C15.435 73.8683 18.43 73.8018 21.6394 73.787L31.7039 73.7352L41.7611 73.787C44.9705 73.787 47.9654 73.8757 50.5315 73.9053C53.0975 73.9349 55.2421 74.0236 56.7358 74.0532L59.0874 74.1272L56.7358 74.2011C55.2569 74.2381 53.0975 74.312 50.5315 74.349C47.9654 74.386 44.9705 74.4526 41.7611 74.4673L31.7039 74.5191L21.6394 74.4673C18.43 74.4673 15.435 74.3786 12.869 74.349C10.3029 74.3194 8.15837 74.2381 6.66459 74.2011L4.31299 74.1272Z" fill="#9686D9"/>
<path d="M4.31299 76.6784L6.66459 76.6045C8.14358 76.6045 10.3029 76.4936 12.869 76.4566C15.435 76.4196 18.43 76.3531 21.6394 76.3383L31.7039 76.2865L41.7611 76.3383C44.9705 76.3383 47.9654 76.427 50.5315 76.4566C53.0975 76.4862 55.2421 76.5749 56.7358 76.6045L59.0874 76.6784L56.7358 76.7524C55.2569 76.7524 53.0975 76.8633 50.5315 76.9003C47.9654 76.9372 44.9705 77.0038 41.7611 77.0186L31.7039 77.0704L21.6394 77.0186C18.43 77.0186 15.435 76.9299 12.869 76.9003C10.3029 76.8707 8.15837 76.7894 6.66459 76.7524L4.31299 76.6784Z" fill="#9686D9"/>
<path d="M4.31299 79.2296L6.66459 79.1556C8.14358 79.1556 10.3029 79.0447 12.869 79.0077C15.435 78.9708 18.43 78.9042 21.6394 78.8894L31.7039 78.8376L41.7611 78.8894C44.9705 78.8894 47.9654 78.9782 50.5315 79.0077C53.0975 79.0373 55.2421 79.1261 56.7358 79.1556L59.0874 79.2296L56.7358 79.3035C55.2569 79.3405 53.0975 79.4145 50.5315 79.4514C47.9654 79.4884 44.9705 79.555 41.7611 79.5698L31.7039 79.6215L21.6394 79.5698C18.43 79.5698 15.435 79.481 12.869 79.4514C10.3029 79.4219 8.15837 79.3405 6.66459 79.3035L4.31299 79.2296Z" fill="#9686D9"/>
<path d="M4.31299 81.7808L6.66459 81.7069C8.14358 81.7069 10.3029 81.596 12.869 81.559C15.435 81.522 18.43 81.4555 21.6394 81.4407L31.7039 81.3889L41.7611 81.4407C44.9705 81.4407 47.9654 81.5294 50.5315 81.559C53.0975 81.5886 55.2421 81.6773 56.7358 81.7069L59.0874 81.7808L56.7358 81.8548C55.2569 81.8918 53.0975 81.9657 50.5315 82.0027C47.9654 82.0397 44.9705 82.1062 41.7611 82.121L31.7039 82.1728L21.6394 82.121C18.43 82.121 15.435 82.0323 12.869 82.0027C10.3029 81.9731 8.15837 81.8918 6.66459 81.8548L4.31299 81.7808Z" fill="#9686D9"/>
<path d="M4.31299 84.3026L6.66459 84.2286C8.14358 84.2286 10.3029 84.1177 12.869 84.0807C15.435 84.0438 18.43 83.9772 21.6394 83.9624L31.7039 83.9106L41.7611 83.9624C44.9705 83.9624 47.9654 84.0512 50.5315 84.0807C53.0975 84.1103 55.2421 84.199 56.7358 84.2286L59.0874 84.3026L56.7358 84.3765C55.2569 84.4135 53.0975 84.4874 50.5315 84.5244C47.9654 84.5614 44.9705 84.6279 41.7611 84.6427L31.7039 84.6945L21.6394 84.6427C18.43 84.6427 15.435 84.554 12.869 84.5244C10.3029 84.4948 8.15837 84.4135 6.66459 84.3765L4.31299 84.3026Z" fill="#9686D9"/>
</g>
<path d="M52.5344 4.11159L25.5058 83.1415H13.8883L37.6779 11.5435L38.0477 10.4269H18.488C17.3713 10.4269 16.2695 11.2107 15.1381 20.447H11.374L10.0947 4.11159H52.5344ZM53.725 3.26117H9.17773L10.5902 21.2975H15.8924C16.6762 14.6173 17.5414 11.2773 18.488 11.2773H36.8719L12.7125 83.9919H26.1492L53.725 3.26117Z" fill="#161548"/>
<path d="M15.9373 20.9204C16.7064 13.9593 17.5568 10.4787 18.4886 10.4787H15.0869C14.1551 10.4787 13.3047 13.9593 12.5356 20.9204H15.9373Z" fill="#161548"/>
<path d="M50.2203 3.55695L22.748 83.9919H26.1497L53.622 3.55695H50.2203Z" fill="#161548"/>
</svg>
