<svg width="63" height="88" viewBox="0 0 63 88" fill="none" xmlns="http://www.w3.org/2000/svg">
<path d="M32.5569 88C23.5674 88 16.2634 86.0748 10.8322 82.2842C4.9965 78.1865 2 72.171 2 64.4175V60.1175C2 53.4802 4.32229 48.0041 8.78709 43.9963C4.29233 39.9959 2 34.5198 2 27.8825V23.5825C2 15.8291 4.99651 9.81357 10.8472 5.71585C16.2634 1.92526 23.5824 0 32.5719 0C41.8011 0 48.6557 1.94026 53.922 5.75332C59.5854 9.85853 61.9527 15.8515 61.9527 23.5825V27.8825C61.9527 34.5198 59.6454 39.9959 55.2105 43.9963C59.6454 48.0041 61.9527 53.4802 61.9527 60.1175V64.4175C61.9527 72.1485 59.5929 78.1415 53.9295 82.2467C48.6332 86.0598 41.7937 88 32.5569 88ZM32.6168 52.4164C29.9724 52.4164 28.0696 53.2255 26.6238 54.956C24.9766 57.0272 24.1333 59.6237 24.2491 62.2675C24.1333 64.9113 24.9766 67.5078 26.6238 69.579C28.0547 71.3094 29.9574 72.111 32.6168 72.111C33.7296 72.1592 34.8388 71.9559 35.8622 71.5162C36.8855 71.0766 37.7965 70.4118 38.5275 69.5715C40.1755 67.7511 40.9771 65.3614 40.9771 62.2675C41.0929 59.6237 40.2496 57.0272 38.6024 54.956C37.164 53.2255 35.2613 52.4164 32.6168 52.4164ZM32.6168 15.889C29.9724 15.889 28.0696 16.6906 26.6238 18.4211C24.9766 20.4922 24.1333 23.0888 24.2491 25.7325C24.1333 28.3763 24.9766 30.9729 26.6238 33.044C28.0547 34.7745 29.9574 35.5836 32.6168 35.5836C33.7293 35.6296 34.8379 35.4253 35.8609 34.9858C36.8838 34.5462 37.7951 33.8827 38.5275 33.044C40.1755 31.2162 40.9771 28.8264 40.9771 25.7325C41.0929 23.0888 40.2496 20.4922 38.6024 18.4211C37.164 16.6906 35.2613 15.889 32.6168 15.889Z" fill="white"/>
<path d="M59.0613 64.4175C59.0613 70.86 56.754 75.7543 52.1393 79.1004C47.5247 82.4465 40.9973 84.1171 32.5571 84.1121C24.3617 84.1121 17.8692 82.4415 13.0798 79.1004C8.2904 75.7593 5.90069 70.865 5.91068 64.4175V60.1175C5.91068 52.7161 9.15689 47.3424 15.6493 43.9963C9.15689 40.6552 5.91068 35.2839 5.91068 27.8826V23.5826C5.91068 17.1401 8.30039 12.2458 13.0798 8.89968C17.8593 5.55357 24.3517 3.88302 32.5571 3.88801C40.9923 3.88801 47.5197 5.55857 52.1393 8.89968C56.7589 12.2408 59.0663 17.1351 59.0613 23.5826V27.8826C59.0613 35.2839 55.8375 40.6552 49.39 43.9963C55.8425 47.3474 59.0663 52.7211 59.0613 60.1175V64.4175ZM44.8278 25.7326C44.943 22.1836 43.7845 18.7105 41.5616 15.9415C39.3842 13.3195 36.3877 12.0061 32.5721 12.0011C28.7566 11.9961 25.7601 13.3095 23.5826 15.9415C21.3568 18.7089 20.1979 22.1831 20.3164 25.7326C20.1965 29.2822 21.3556 32.7569 23.5826 35.5237C25.7601 38.1506 28.7566 39.4641 32.5721 39.4641C34.2283 39.5097 35.8744 39.1912 37.394 38.5311C38.9137 37.8709 40.2699 36.8852 41.3669 35.6435C43.6892 33.0965 44.8528 29.7928 44.8578 25.7326H44.8278ZM44.8278 62.2675C44.9444 58.7184 43.7857 55.2448 41.5616 52.4764C39.3842 49.8445 36.3877 48.531 32.5721 48.536C28.7566 48.541 25.7601 49.8545 23.5826 52.4764C21.3556 55.2432 20.1965 58.7179 20.3164 62.2675C20.1979 65.817 21.3568 69.2912 23.5826 72.0586C25.7601 74.6806 28.7566 75.994 32.5721 75.999C34.2283 76.0447 35.8744 75.7262 37.394 75.066C38.9137 74.4059 40.2699 73.4201 41.3669 72.1785C43.6892 69.6314 44.8528 66.3278 44.8578 62.2675H44.8278Z" fill="#6362D1"/>
<mask id="mask0_728_20602" style="mask-type:luminance" maskUnits="userSpaceOnUse" x="5" y="3" width="55" height="82">
<mask id="mask1_728_20602" style="mask-type:luminance" maskUnits="userSpaceOnUse" x="5" y="3" width="55" height="82">
<path d="M59.0613 64.4175C59.0613 70.86 56.754 75.7543 52.1393 79.1004C47.5247 82.4465 40.9973 84.1171 32.5571 84.1121C24.3617 84.1121 17.8692 82.4415 13.0798 79.1004C8.2904 75.7593 5.90069 70.865 5.91068 64.4175V60.1175C5.91068 52.7161 9.15689 47.3424 15.6493 43.9963C9.15689 40.6552 5.91068 35.2839 5.91068 27.8826V23.5826C5.91068 17.1401 8.30039 12.2458 13.0798 8.89968C17.8593 5.55357 24.3517 3.88302 32.5571 3.88801C40.9923 3.88801 47.5197 5.55857 52.1393 8.89968C56.7589 12.2408 59.0663 17.1351 59.0613 23.5826V27.8826C59.0613 35.2839 55.8375 40.6552 49.39 43.9963C55.8425 47.3474 59.0663 52.7211 59.0613 60.1175V64.4175ZM44.8278 25.7326C44.943 22.1836 43.7845 18.7105 41.5616 15.9415C39.3842 13.3195 36.3877 12.0061 32.5721 12.0011C28.7566 11.9961 25.7601 13.3095 23.5826 15.9415C21.3568 18.7089 20.1979 22.1831 20.3164 25.7326C20.1965 29.2822 21.3556 32.7569 23.5826 35.5237C25.7601 38.1506 28.7566 39.4641 32.5721 39.4641C34.2283 39.5097 35.8744 39.1912 37.394 38.5311C38.9137 37.8709 40.2699 36.8852 41.3669 35.6435C43.6892 33.0965 44.8528 29.7928 44.8578 25.7326H44.8278ZM44.8278 62.2675C44.9444 58.7184 43.7857 55.2448 41.5616 52.4764C39.3842 49.8445 36.3877 48.531 32.5721 48.536C28.7566 48.541 25.7601 49.8545 23.5826 52.4764C21.3556 55.2432 20.1965 58.7179 20.3164 62.2675C20.1979 65.817 21.3568 69.2912 23.5826 72.0586C25.7601 74.6806 28.7566 75.994 32.5721 75.999C34.2283 76.0447 35.8744 75.7262 37.394 75.066C38.9137 74.4059 40.2699 73.4201 41.3669 72.1785C43.6892 69.6314 44.8528 66.3278 44.8578 62.2675H44.8278Z" fill="white"/>
</mask>
<g mask="url(#mask1_728_20602)">
<path d="M59.0613 64.4175C59.0613 70.86 56.754 75.7543 52.1393 79.1004C47.5247 82.4465 40.9973 84.1171 32.5571 84.1121C24.3617 84.1121 17.8692 82.4415 13.0798 79.1004C8.2904 75.7593 5.90069 70.865 5.91068 64.4175V60.1175C5.91068 52.7161 9.15689 47.3424 15.6493 43.9963C9.15689 40.6552 5.91068 35.2839 5.91068 27.8826V23.5826C5.91068 17.1401 8.30039 12.2458 13.0798 8.89968C17.8593 5.55357 24.3517 3.88302 32.5571 3.88801C40.9923 3.88801 47.5197 5.55857 52.1393 8.89968C56.7589 12.2408 59.0663 17.1351 59.0613 23.5826V27.8826C59.0613 35.2839 55.8375 40.6552 49.39 43.9963C55.8425 47.3474 59.0663 52.7211 59.0613 60.1175V64.4175ZM44.8278 25.7326C44.943 22.1836 43.7845 18.7105 41.5616 15.9415C39.3842 13.3195 36.3877 12.0061 32.5721 12.0011C28.7566 11.9961 25.7601 13.3095 23.5826 15.9415C21.3568 18.7089 20.1979 22.1831 20.3164 25.7326C20.1965 29.2822 21.3556 32.7569 23.5826 35.5237C25.7601 38.1506 28.7566 39.4641 32.5721 39.4641C34.2283 39.5097 35.8744 39.1912 37.394 38.5311C38.9137 37.8709 40.2699 36.8852 41.3669 35.6435C43.6892 33.0965 44.8528 29.7928 44.8578 25.7326H44.8278ZM44.8278 62.2675C44.9444 58.7184 43.7857 55.2448 41.5616 52.4764C39.3842 49.8445 36.3877 48.531 32.5721 48.536C28.7566 48.541 25.7601 49.8545 23.5826 52.4764C21.3556 55.2432 20.1965 58.7179 20.3164 62.2675C20.1979 65.817 21.3568 69.2912 23.5826 72.0586C25.7601 74.6806 28.7566 75.994 32.5721 75.999C34.2283 76.0447 35.8744 75.7262 37.394 75.066C38.9137 74.4059 40.2699 73.4201 41.3669 72.1785C43.6892 69.6314 44.8528 66.3278 44.8578 62.2675H44.8278Z" fill="white"/>
</g>
</mask>
<g mask="url(#mask0_728_20602)">
<path d="M3.01123 5.199C5.49084 5.10911 7.96296 5.06417 10.4426 4.99675L17.8739 4.88438C22.8256 4.81696 27.7774 4.82445 32.7366 4.78699C37.6958 4.74954 42.6401 4.787 47.5918 4.88438L55.0231 4.99675C57.5028 5.06417 59.9749 5.10911 62.4545 5.199C59.9749 5.2889 57.5028 5.33386 55.0231 5.40128L47.5918 5.51365C42.6401 5.58107 37.6883 5.57358 32.7366 5.61104C27.7849 5.6485 22.8256 5.61104 17.8739 5.51365L10.4426 5.40128C7.99293 5.33386 5.49084 5.2889 3.01123 5.199Z" fill="#9686D9"/>
<path d="M3.01123 7.78354C5.49084 7.69365 7.96296 7.64871 10.4426 7.58129L17.8739 7.4689C22.8256 7.40148 27.7774 7.40899 32.7366 7.37153C37.6958 7.33408 42.6401 7.37151 47.5918 7.4689L55.0231 7.58129C57.5028 7.64871 59.9749 7.69365 62.4545 7.78354C59.9749 7.87344 57.5028 7.91838 55.0231 7.9858L47.5918 8.09816C42.6401 8.16558 37.6883 8.1581 32.7366 8.19555C27.7849 8.23301 22.8256 8.19555 17.8739 8.09816L10.4426 7.9858C7.99293 7.91838 5.49084 7.87344 3.01123 7.78354Z" fill="#9686D9"/>
<path d="M3.01123 10.368C5.49084 10.2781 7.96296 10.2331 10.4426 10.1657L17.8739 10.0533C22.8256 9.98591 27.7774 9.9934 32.7366 9.95594C37.6958 9.91848 42.6401 9.95594 47.5918 10.0533L55.0231 10.1657C57.5028 10.2331 59.9749 10.2781 62.4545 10.368C59.9749 10.4579 57.5028 10.5028 55.0231 10.5702L47.5918 10.6826C42.6401 10.75 37.6883 10.7425 32.7366 10.78C27.7849 10.8174 22.8256 10.78 17.8739 10.6826L10.4426 10.5702C7.99293 10.5028 5.49084 10.4579 3.01123 10.368Z" fill="#9686D9"/>
<path d="M3.01123 12.9524C5.49084 12.8625 7.96296 12.8176 10.4426 12.7502L17.8739 12.6378C22.8256 12.5704 27.7774 12.5779 32.7366 12.5404C37.6958 12.503 42.6401 12.5404 47.5918 12.6378L55.0231 12.7502C57.5028 12.8176 59.9749 12.8625 62.4545 12.9524C59.9749 13.0423 57.5028 13.0873 55.0231 13.1547L47.5918 13.2671C42.6401 13.3345 37.6883 13.327 32.7366 13.3645C27.7849 13.4019 22.8256 13.3645 17.8739 13.2671L10.4426 13.1547C7.99293 13.0873 5.49084 13.0423 3.01123 12.9524Z" fill="#9686D9"/>
<path d="M3.01123 15.507C5.49084 15.4171 7.96296 15.3722 10.4426 15.3047L17.8739 15.1923C22.8256 15.1249 27.7774 15.1324 32.7366 15.095C37.6958 15.0575 42.6401 15.095 47.5918 15.1923L55.0231 15.3047C57.5028 15.3722 59.9749 15.4171 62.4545 15.507C59.9749 15.5969 57.5028 15.6418 55.0231 15.7092L47.5918 15.8216C42.6401 15.8891 37.6883 15.8815 32.7366 15.919C27.7849 15.9565 22.8256 15.919 17.8739 15.8216L10.4426 15.7092C7.99293 15.6718 5.49084 15.6269 3.01123 15.507Z" fill="#9686D9"/>
<path d="M3.01123 18.1214C5.49084 18.0315 7.96296 17.9866 10.4426 17.9192L17.8739 17.8068C22.8256 17.7394 27.7774 17.7469 32.7366 17.7094C37.6958 17.672 42.6401 17.7094 47.5918 17.8068L55.0231 17.9192C57.5028 17.9866 59.9749 18.0315 62.4545 18.1214C59.9749 18.2113 57.5028 18.2563 55.0231 18.3237L47.5918 18.4361C42.6401 18.5035 37.6883 18.496 32.7366 18.5335C27.7849 18.5709 22.8256 18.5335 17.8739 18.4361L10.4426 18.3237C7.99293 18.2563 5.49084 18.2113 3.01123 18.1214Z" fill="#9686D9"/>
<path d="M3.01123 20.7059C5.49084 20.616 7.96296 20.5711 10.4426 20.5036L17.8739 20.3913C22.8256 20.3238 27.7774 20.3314 32.7366 20.2939C37.6958 20.2564 42.6401 20.2939 47.5918 20.3913L55.0231 20.5036C57.5028 20.5711 59.9749 20.616 62.4545 20.7059C59.9749 20.7958 57.5028 20.8407 55.0231 20.9082L47.5918 21.0205C42.6401 21.0879 37.6883 21.0805 32.7366 21.1179C27.7849 21.1554 22.8256 21.1179 17.8739 21.0205L10.4426 20.9082C7.99293 20.8407 5.49084 20.7958 3.01123 20.7059Z" fill="#9686D9"/>
<path d="M3.01123 23.2904C5.49084 23.2005 7.96296 23.1555 10.4426 23.0881L17.8739 22.9758C22.8256 22.9083 27.7774 22.9158 32.7366 22.8784C37.6958 22.8409 42.6401 22.8784 47.5918 22.9758L55.0231 23.0881C57.5028 23.1555 59.9749 23.2005 62.4545 23.2904C59.9749 23.3803 57.5028 23.4252 55.0231 23.4927L47.5918 23.605C42.6401 23.6724 37.6883 23.665 32.7366 23.7024C27.7849 23.7399 22.8256 23.7024 17.8739 23.605L10.4426 23.4927C7.99293 23.4252 5.49084 23.3803 3.01123 23.2904Z" fill="#9686D9"/>
<path d="M3.01123 25.8749C5.49084 25.785 7.96296 25.7401 10.4426 25.6727L17.8739 25.5603C22.8256 25.4929 27.7774 25.5004 32.7366 25.4629C37.6958 25.4254 42.6401 25.4629 47.5918 25.5603L55.0231 25.6727C57.5028 25.7401 59.9749 25.785 62.4545 25.8749C59.9749 25.9648 57.5028 26.0097 55.0231 26.0772L47.5918 26.1896C42.6401 26.257 37.6883 26.2495 32.7366 26.2869C27.7849 26.3244 22.8256 26.2869 17.8739 26.1896L10.4426 26.0772C7.99293 25.9948 5.49084 25.9948 3.01123 25.8749Z" fill="#9686D9"/>
<path d="M3.01123 28.4594C5.49084 28.3695 7.96296 28.3245 10.4426 28.2571L17.8739 28.1448C22.8256 28.0773 27.7774 28.0848 32.7366 28.0474C37.6958 28.0099 42.6401 28.0474 47.5918 28.1448L55.0231 28.2571C57.5028 28.3245 59.9749 28.3695 62.4545 28.4594C59.9749 28.5493 57.5028 28.5942 55.0231 28.6617L47.5918 28.774C42.6401 28.8414 37.6883 28.834 32.7366 28.8714C27.7849 28.9089 22.8256 28.8714 17.8739 28.774L10.4426 28.6617C7.99293 28.5942 5.49084 28.5493 3.01123 28.4594Z" fill="#9686D9"/>
<path d="M3.01123 31.0439C5.49084 30.954 7.96296 30.9091 10.4426 30.8417L17.8739 30.7293C22.8256 30.6619 27.7774 30.6694 32.7366 30.6319C37.6958 30.5944 42.6401 30.6319 47.5918 30.7293L55.0231 30.8417C57.5028 30.9091 59.9749 30.954 62.4545 31.0439C59.9749 31.1338 57.5028 31.1788 55.0231 31.2462L47.5918 31.3586C42.6401 31.426 37.6883 31.4185 32.7366 31.4559C27.7849 31.4934 22.8256 31.4559 17.8739 31.3586L10.4426 31.2462C7.99293 31.1788 5.49084 31.1338 3.01123 31.0439Z" fill="#9686D9"/>
<path d="M3.01123 33.6284C5.49084 33.5385 7.96296 33.4936 10.4426 33.4261L17.8739 33.3137C22.8256 33.2463 27.7774 33.2538 32.7366 33.2164C37.6958 33.1789 42.6401 33.2164 47.5918 33.3137L55.0231 33.4261C57.5028 33.4936 59.9749 33.5385 62.4545 33.6284C59.9749 33.7183 57.5028 33.7632 55.0231 33.8306L47.5918 33.943C42.6401 34.0104 37.6883 34.0029 32.7366 34.0404C27.7849 34.0779 22.8256 34.0404 17.8739 33.943L10.4426 33.8306C7.99293 33.7632 5.49084 33.7183 3.01123 33.6284Z" fill="#9686D9"/>
<path d="M3.01123 36.2129C5.49084 36.123 7.96296 36.078 10.4426 36.0106L17.8739 35.8982C22.8256 35.8308 27.7774 35.8383 32.7366 35.8008C37.6958 35.7634 42.6401 35.8009 47.5918 35.8982L55.0231 36.0106C57.5028 36.078 59.9749 36.123 62.4545 36.2129C59.9749 36.3028 57.5028 36.3477 55.0231 36.4151L47.5918 36.5275C42.6401 36.5949 37.6883 36.5874 32.7366 36.6249C27.7849 36.6624 22.8256 36.6249 17.8739 36.5275L10.4426 36.4151C7.99293 36.3477 5.49084 36.3028 3.01123 36.2129Z" fill="#9686D9"/>
<path d="M3.01123 38.7974C5.49084 38.7075 7.96296 38.6626 10.4426 38.5951L17.8739 38.4828C22.8256 38.4154 27.7774 38.4228 32.7366 38.3854C37.6958 38.3479 42.6401 38.3854 47.5918 38.4828L55.0231 38.5951C57.5028 38.6626 59.9749 38.7075 62.4545 38.7974C59.9749 38.8873 57.5028 38.9322 55.0231 38.9996L47.5918 39.112C42.6401 39.1795 37.6883 39.172 32.7366 39.2094C27.7849 39.2469 22.8256 39.2094 17.8739 39.112L10.4426 38.9996C7.99293 38.9322 5.49084 38.8873 3.01123 38.7974Z" fill="#9686D9"/>
<path d="M3.01123 41.3819C5.49084 41.292 7.96296 41.247 10.4426 41.1796L17.8739 41.0672C22.8256 40.9998 27.7774 41.0073 32.7366 40.9699C37.6958 40.9324 42.6401 40.9699 47.5918 41.0672L55.0231 41.1796C57.5028 41.247 59.9749 41.292 62.4545 41.3819C59.9749 41.4718 57.5028 41.5167 55.0231 41.5841L47.5918 41.6965C42.6401 41.7639 37.6883 41.7564 32.7366 41.7939C27.7849 41.8314 22.8256 41.7939 17.8739 41.6965L10.4426 41.5841C7.99293 41.5167 5.49084 41.4718 3.01123 41.3819Z" fill="#9686D9"/>
<path d="M3.01123 43.9738C5.49084 43.884 7.96296 43.839 10.4426 43.7716L17.8739 43.6592C22.8256 43.5918 27.7774 43.5993 32.7366 43.5618C37.6958 43.5244 42.6401 43.5618 47.5918 43.6592L55.0231 43.7716C57.5028 43.839 59.9749 43.884 62.4545 43.9738C59.9749 44.0637 57.5028 44.1087 55.0231 44.1761L47.5918 44.2885C42.6401 44.3559 37.6883 44.3484 32.7366 44.3859C27.7849 44.4233 22.8256 44.3859 17.8739 44.2885L10.4426 44.1761C7.99293 44.1012 5.49084 44.0563 3.01123 43.9738Z" fill="#9686D9"/>
<path d="M3.01123 46.5508C5.49084 46.4609 7.96296 46.416 10.4426 46.3486L17.8739 46.2362C22.8256 46.1688 27.7774 46.1763 32.7366 46.1388C37.6958 46.1013 42.6401 46.1388 47.5918 46.2362L55.0231 46.3486C57.5028 46.416 59.9749 46.4609 62.4545 46.5508C59.9749 46.6407 57.5028 46.6857 55.0231 46.7531L47.5918 46.8654C42.6401 46.9329 37.6883 46.9254 32.7366 46.9628C27.7849 47.0003 22.8256 46.9628 17.8739 46.8654L10.4426 46.7531C7.99293 46.6857 5.49084 46.6407 3.01123 46.5508Z" fill="#9686D9"/>
<path d="M3.01123 49.1353C5.49084 49.0454 7.96296 49.0004 10.4426 48.933L17.8739 48.8207C22.8256 48.7532 27.7774 48.7607 32.7366 48.7233C37.6958 48.6858 42.6401 48.7233 47.5918 48.8207L55.0231 48.933C57.5028 49.0004 59.9749 49.0454 62.4545 49.1353C59.9749 49.2252 57.5028 49.2701 55.0231 49.3376L47.5918 49.4499C42.6401 49.5173 37.6883 49.5099 32.7366 49.5473C27.7849 49.5848 22.8256 49.5473 17.8739 49.4499L10.4426 49.3376C7.99293 49.2701 5.49084 49.2177 3.01123 49.1353Z" fill="#9686D9"/>
<path d="M3.01123 51.7198C5.49084 51.6299 7.96296 51.585 10.4426 51.5176L17.8739 51.4052C22.8256 51.3378 27.7774 51.3453 32.7366 51.3078C37.6958 51.2704 42.6401 51.3078 47.5918 51.4052L55.0231 51.5176C57.5028 51.585 59.9749 51.6299 62.4545 51.7198C59.9749 51.8097 57.5028 51.8547 55.0231 51.9221L47.5918 52.0345C42.6401 52.1019 37.6883 52.0944 32.7366 52.1319C27.7849 52.1693 22.8256 52.1318 17.8739 52.0345L10.4426 51.9221C7.99293 51.8547 5.49084 51.8097 3.01123 51.7198Z" fill="#9686D9"/>
<path d="M3.01123 54.3043C5.49084 54.2144 7.96296 54.1695 10.4426 54.102L17.8739 53.9897C22.8256 53.9222 27.7774 53.9297 32.7366 53.8923C37.6958 53.8548 42.6401 53.8923 47.5918 53.9897L55.0231 54.102C57.5028 54.1695 59.9749 54.2144 62.4545 54.3043C59.9749 54.3942 57.5028 54.4391 55.0231 54.5066L47.5918 54.6189C42.6401 54.6864 37.6883 54.6789 32.7366 54.7163C27.7849 54.7538 22.8256 54.7163 17.8739 54.6189L10.4426 54.5066C7.99293 54.4616 5.49084 54.3942 3.01123 54.3043Z" fill="#9686D9"/>
<path d="M3.01123 56.8888C5.49084 56.7989 7.96296 56.7539 10.4426 56.6865L17.8739 56.5741C22.8256 56.5067 27.7774 56.5142 32.7366 56.4768C37.6958 56.4393 42.6401 56.4768 47.5918 56.5741L55.0231 56.6865C57.5028 56.7539 59.9749 56.7989 62.4545 56.8888C59.9749 56.9787 57.5028 57.0236 55.0231 57.091L47.5918 57.2034C42.6401 57.2708 37.6883 57.2633 32.7366 57.3008C27.7849 57.3383 22.8256 57.3008 17.8739 57.2034L10.4426 57.091C7.99293 57.0236 5.49084 56.9787 3.01123 56.8888Z" fill="#9686D9"/>
<path d="M3.01123 59.4733C5.49084 59.3834 7.96296 59.3385 10.4426 59.271L17.8739 59.1587C22.8256 59.0912 27.7774 59.0987 32.7366 59.0613C37.6958 59.0238 42.6401 59.0613 47.5918 59.1587L55.0231 59.271C57.5028 59.3385 59.9749 59.3834 62.4545 59.4733C59.9749 59.5632 57.5028 59.6081 55.0231 59.6756L47.5918 59.7879C42.6401 59.8553 37.6883 59.8479 32.7366 59.8853C27.7849 59.9228 22.8256 59.8853 17.8739 59.7879L10.4426 59.6756C7.99293 59.6081 5.49084 59.5632 3.01123 59.4733Z" fill="#9686D9"/>
<path d="M3.01123 62.0578C5.49084 61.9679 7.96296 61.9229 10.4426 61.8555L17.8739 61.7431C22.8256 61.6757 27.7774 61.6832 32.7366 61.6458C37.6958 61.6083 42.6401 61.6458 47.5918 61.7431L55.0231 61.8555C57.5028 61.9229 59.9749 61.9679 62.4545 62.0578C59.9749 62.1477 57.5028 62.1926 55.0231 62.26L47.5918 62.3724C42.6401 62.4398 37.6883 62.4323 32.7366 62.4698C27.7849 62.5073 22.8256 62.4698 17.8739 62.3724L10.4426 62.26C7.99293 62.1926 5.49084 62.1477 3.01123 62.0578Z" fill="#9686D9"/>
<path d="M3.01123 64.6422C5.49084 64.5523 7.96296 64.5074 10.4426 64.44L17.8739 64.3276C22.8256 64.2602 27.7774 64.2677 32.7366 64.2302C37.6958 64.1928 42.6401 64.2302 47.5918 64.3276L55.0231 64.44C57.5028 64.5074 59.9749 64.5523 62.4545 64.6422C59.9749 64.7321 57.5028 64.7771 55.0231 64.8445L47.5918 64.9569C42.6401 65.0243 37.6883 65.0168 32.7366 65.0543C27.7849 65.0917 22.8256 65.0543 17.8739 64.9569L10.4426 64.8445C7.99293 64.7771 5.49084 64.7321 3.01123 64.6422Z" fill="#9686D9"/>
<path d="M3.01123 67.1968C5.49084 67.1069 7.96296 67.0619 10.4426 66.9945L17.8739 66.8821C22.8256 66.8147 27.7774 66.8222 32.7366 66.7847C37.6958 66.7473 42.6401 66.7847 47.5918 66.8821L55.0231 66.9945C57.5028 67.0619 59.9749 67.1069 62.4545 67.1968C59.9749 67.2866 57.5028 67.3316 55.0231 67.399L47.5918 67.5114C42.6401 67.5788 37.6883 67.5713 32.7366 67.6088C27.7849 67.6462 22.8256 67.6088 17.8739 67.5114L10.4426 67.399C7.99293 67.3616 5.49084 67.3166 3.01123 67.1968Z" fill="#9686D9"/>
<path d="M3.01123 69.8112C5.49084 69.7214 7.96296 69.6764 10.4426 69.609L17.8739 69.4966C22.8256 69.4292 27.7774 69.4367 32.7366 69.3992C37.6958 69.3618 42.6401 69.3992 47.5918 69.4966L55.0231 69.609C57.5028 69.6764 59.9749 69.7214 62.4545 69.8112C59.9749 69.9011 57.5028 69.9461 55.0231 70.0135L47.5918 70.1259C42.6401 70.1933 37.6883 70.1858 32.7366 70.2233C27.7849 70.2607 22.8256 70.2233 17.8739 70.1259L10.4426 70.0135C7.99293 69.9461 5.49084 69.9011 3.01123 69.8112Z" fill="#9686D9"/>
<path d="M3.01123 72.3957C5.49084 72.3058 7.96296 72.2609 10.4426 72.1935L17.8739 72.0811C22.8256 72.0137 27.7774 72.0212 32.7366 71.9837C37.6958 71.9463 42.6401 71.9837 47.5918 72.0811L55.0231 72.1935C57.5028 72.2609 59.9749 72.3058 62.4545 72.3957C59.9749 72.4856 57.5028 72.5306 55.0231 72.598L47.5918 72.7103C42.6401 72.7778 37.6883 72.7703 32.7366 72.8077C27.7849 72.8452 22.8256 72.8077 17.8739 72.7103L10.4426 72.598C7.99293 72.5306 5.49084 72.4856 3.01123 72.3957Z" fill="#9686D9"/>
<path d="M3.01123 74.9803C5.49084 74.8904 7.96296 74.8454 10.4426 74.778L17.8739 74.6656C22.8256 74.5982 27.7774 74.6057 32.7366 74.5682C37.6958 74.5308 42.6401 74.5682 47.5918 74.6656L55.0231 74.778C57.5028 74.8454 59.9749 74.8904 62.4545 74.9803C59.9749 75.0702 57.5028 75.1151 55.0231 75.1825L47.5918 75.2949C42.6401 75.3623 37.6883 75.3548 32.7366 75.3923C27.7849 75.4297 22.8256 75.3923 17.8739 75.2949L10.4426 75.1825C7.99293 75.1151 5.49084 75.0702 3.01123 74.9803Z" fill="#9686D9"/>
<path d="M3.01123 77.5647C5.49084 77.4748 7.96296 77.4299 10.4426 77.3625L17.8739 77.2501C22.8256 77.1827 27.7774 77.1902 32.7366 77.1527C37.6958 77.1153 42.6401 77.1527 47.5918 77.2501L55.0231 77.3625C57.5028 77.4299 59.9749 77.4748 62.4545 77.5647C59.9749 77.6546 57.5028 77.6996 55.0231 77.767L47.5918 77.8794C42.6401 77.9468 37.6883 77.9393 32.7366 77.9768C27.7849 78.0142 22.8256 77.9768 17.8739 77.8794L10.4426 77.767C7.99293 77.6846 5.49084 77.6846 3.01123 77.5647Z" fill="#9686D9"/>
<path d="M3.01123 80.1492C5.49084 80.0593 7.96296 80.0144 10.4426 79.9469L17.8739 79.8346C22.8256 79.7672 27.7774 79.7746 32.7366 79.7372C37.6958 79.6997 42.6401 79.7372 47.5918 79.8346L55.0231 79.9469C57.5028 80.0144 59.9749 80.0593 62.4545 80.1492C59.9749 80.2391 57.5028 80.2841 55.0231 80.3515L47.5918 80.4638C42.6401 80.5313 37.6883 80.5238 32.7366 80.5612C27.7849 80.5987 22.8256 80.5612 17.8739 80.4638L10.4426 80.3515C7.99293 80.2841 5.49084 80.2391 3.01123 80.1492Z" fill="#9686D9"/>
<path d="M3.01123 82.7337C5.49084 82.6438 7.96296 82.5988 10.4426 82.5314L17.8739 82.4191C22.8256 82.3516 27.7774 82.3591 32.7366 82.3217C37.6958 82.2842 42.6401 82.3217 47.5918 82.4191L55.0231 82.5314C57.5028 82.5988 59.9749 82.6438 62.4545 82.7337C59.9749 82.8236 57.5028 82.8685 55.0231 82.936L47.5918 83.0483C42.6401 83.1157 37.6883 83.1083 32.7366 83.1457C27.7849 83.1832 22.8256 83.1457 17.8739 83.0483L10.4426 82.936C7.99293 82.8685 5.49084 82.8236 3.01123 82.7337Z" fill="#9686D9"/>
</g>
<path d="M32.557 4.74947C40.7974 4.74947 47.1875 6.37506 51.6373 9.5963C56.0871 12.8176 58.1846 17.3723 58.1846 23.5825V27.8825C58.1846 34.9992 55.1881 40.0259 48.9779 43.2321L47.4796 43.9813L48.9779 44.7304C55.1881 47.9741 58.1846 53.0008 58.1846 60.1175V64.4175C58.1846 70.6277 56.0421 75.1974 51.6223 78.4037C47.2024 81.6099 40.7524 83.2505 32.542 83.2505C24.5638 83.2505 18.1812 81.6174 13.5816 78.3962C8.98195 75.1749 6.77952 70.6202 6.77952 64.4175V60.1175C6.77952 53.0008 9.82097 47.9741 16.0687 44.7678L17.5669 44.0187L16.0687 43.2696C9.82097 40.0558 6.77952 35.0292 6.77952 27.92V23.62C6.77952 17.4172 9.0269 12.8475 13.5816 9.64127C18.1363 6.43501 24.5638 4.78692 32.542 4.78692M32.6019 40.363C34.3784 40.4086 36.1432 40.0647 37.7726 39.3555C39.402 38.6463 40.8563 37.589 42.0335 36.2578C44.4681 33.5609 45.7042 30.0325 45.7042 25.77C45.8175 22.0207 44.5874 18.3543 42.2357 15.432C39.8984 12.6078 36.6547 11.177 32.6019 11.177C28.5492 11.177 25.3129 12.6078 22.9682 15.432C20.6192 18.3553 19.3918 22.0216 19.5072 25.77C19.3918 29.5183 20.6192 33.1846 22.9682 36.1079C25.3129 38.9321 28.5492 40.363 32.6019 40.363ZM32.6019 76.8979C34.3781 76.9415 36.1423 76.5967 37.7714 75.8876C39.4004 75.1785 40.855 74.1223 42.0335 72.7927C44.4681 70.0884 45.7042 66.56 45.7042 62.3049C45.8175 58.5556 44.5874 54.8893 42.2357 51.967C39.8984 49.1428 36.6547 47.7119 32.6019 47.7119C28.5492 47.7119 25.3129 49.1428 22.9682 51.967C20.6192 54.8903 19.3918 58.5566 19.5072 62.3049C19.3918 66.0533 20.6192 69.7195 22.9682 72.6429C25.3129 75.4671 28.5492 76.8979 32.6019 76.8979ZM32.542 3.92543C24.3465 3.92543 17.8541 5.59598 13.0647 8.93709C8.27527 12.2782 5.88555 17.1725 5.89554 23.62V27.92C5.89554 35.3214 9.14176 40.6926 15.6342 44.0337C9.14176 47.3848 5.89554 52.7585 5.89554 60.1549V64.4549C5.89554 70.8974 8.28526 75.7917 13.0647 79.1378C17.8441 82.4839 24.3366 84.1545 32.542 84.1495C40.9772 84.1495 47.5046 82.4789 52.1242 79.1378C56.7438 75.7967 59.0511 70.9024 59.0461 64.4549V60.1549C59.0461 52.7536 55.8224 47.3798 49.3749 44.0337C55.8274 40.6926 59.0511 35.3214 59.0461 27.92V23.62C59.0461 17.1775 56.7388 12.2832 52.1242 8.93709C47.5096 5.59099 40.9822 3.92043 32.542 3.92543ZM32.6019 39.5015C28.8014 39.5015 25.8049 38.188 23.6124 35.5611C21.3854 32.7943 20.2263 29.3197 20.3462 25.77C20.2277 22.2205 21.3866 18.7463 23.6124 15.9789C25.7899 13.3569 28.7864 12.0435 32.6019 12.0385C36.4175 12.0335 39.414 13.3469 41.5915 15.9789C43.8143 18.7479 44.9729 22.221 44.8577 25.77C44.8577 29.8303 43.709 33.1339 41.4117 35.6809C40.3147 36.9226 38.9585 37.9083 37.4388 38.5685C35.9192 39.2286 34.2731 39.5471 32.6169 39.5015H32.6019ZM32.6019 76.0364C28.8014 76.0364 25.8049 74.723 23.6124 72.096C21.3866 69.3286 20.2277 65.8544 20.3462 62.3049C20.2263 58.7553 21.3854 55.2806 23.6124 52.5138C25.7899 49.8819 28.7864 48.5684 32.6019 48.5734C36.4175 48.5784 39.414 49.8919 41.5915 52.5138C43.8155 55.2822 44.9742 58.7557 44.8577 62.3049C44.8577 66.3652 43.709 69.6689 41.4117 72.2159C40.3147 73.4576 38.9585 74.4433 37.4388 75.1034C35.9192 75.7636 34.2731 76.0821 32.6169 76.0364H32.6019Z" fill="#161548"/>
<path d="M23.6494 72.0585C21.4236 69.2911 20.2646 65.8169 20.3832 62.2675C20.2633 58.7178 21.4224 55.2432 23.6494 52.4764C24.5427 51.3899 25.6432 50.4919 26.8869 49.8347C28.1305 49.1775 29.4924 48.7742 30.8934 48.6483C30.3219 48.5759 29.7465 48.5383 29.1704 48.5359C25.3748 48.5359 22.3783 49.8494 20.1809 52.4764C17.9539 55.2432 16.7948 58.7178 16.9147 62.2675C16.7962 65.8169 17.9551 69.2911 20.1809 72.0585C22.3584 74.6805 25.3549 75.994 29.1704 75.999C29.7342 75.9939 30.2971 75.9539 30.856 75.8791C29.4623 75.7481 28.1083 75.3432 26.8716 74.6876C25.6349 74.0319 24.5399 73.1385 23.6494 72.0585Z" fill="#161548"/>
<path d="M30.8934 12.1134C30.3219 12.0409 29.7465 12.0034 29.1704 12.001C25.3748 12.001 22.3783 13.3145 20.1809 15.9414C17.9551 18.7089 16.7962 22.1831 16.9147 25.7325C16.7948 29.2822 17.9539 32.7568 20.1809 35.5236C22.3584 38.1506 25.3549 39.4641 29.1704 39.4641C29.734 39.4615 30.297 39.4239 30.856 39.3517C28.0416 39.0804 25.4498 37.7037 23.6494 35.5236C21.4224 32.7568 20.2633 29.2822 20.3832 25.7325C20.2646 22.1831 21.4236 18.7089 23.6494 15.9414C24.5438 14.8562 25.6446 13.9591 26.888 13.302C28.1315 12.6449 29.4928 12.2409 30.8934 12.1134Z" fill="#161548"/>
<path d="M59.0611 27.8826V23.5826C59.0611 17.1401 56.7538 12.2458 52.1392 8.89968C47.5245 5.55357 40.9971 3.88302 32.557 3.88801C31.9801 3.88801 31.4258 3.88801 30.8564 3.93296C38.4451 4.1502 44.4007 5.7908 48.6932 8.89968C53.3078 12.2408 55.6151 17.1351 55.6151 23.5826V27.8826C55.6151 35.2839 52.3914 40.6552 45.9439 43.9963C52.3914 47.3474 55.6151 52.7211 55.6151 60.1175V64.4175C55.6151 70.86 53.3078 75.7543 48.6932 79.1004C44.3982 82.2018 38.4526 83.8574 30.8564 84.0671C31.4258 84.0671 31.9801 84.1121 32.557 84.1121C40.9921 84.1121 47.5195 82.4415 52.1392 79.1004C56.7588 75.7593 59.0661 70.865 59.0611 64.4175V60.1175C59.0611 52.7161 55.8374 47.3424 49.3899 43.9963C55.8423 40.6552 59.0661 35.2839 59.0611 27.8826Z" fill="#161548"/>
</svg>
