<svg width="63" height="88" viewBox="0 0 63 88" fill="none" xmlns="http://www.w3.org/2000/svg">
<path d="M31.8184 87.9997C27.6841 88.0187 23.5899 87.1884 19.7896 85.5603C15.8984 83.8624 12.437 81.3144 9.65963 78.1035L7.46858 75.6057L16.6856 65.1033L19.5339 68.3168C20.6457 69.6851 22.0155 70.8216 23.5655 71.6618C24.6884 72.2138 25.9221 72.5035 27.1734 72.509C28.5106 72.5109 29.8329 72.2271 31.0515 71.6764C32.393 71.0864 33.6175 70.2601 34.6668 69.237C35.7231 68.2088 36.5668 66.9829 37.1499 65.6291C37.7629 64.2069 38.069 62.6714 38.0483 61.1229V59.7498C35.4905 60.6672 32.79 61.1222 30.0729 61.0936C26.8618 61.1049 23.6783 60.4999 20.6952 59.3116C17.8011 58.1681 15.1477 56.4908 12.8732 54.3671C10.5602 52.2431 8.66306 49.707 7.27868 46.8884C5.81295 43.9046 5.03432 40.6304 5 37.3062V22.9914C5 15.5491 7.62925 9.75015 12.4861 5.74784C17.1165 1.93542 23.8065 0 32.2055 0C41.459 0 48.5142 2.36632 52.9985 7.04055C57.4828 11.7148 59.7761 18.6823 59.7761 27.8774V64.9864L59.7323 65.0741C59.6036 68.652 58.5845 72.1412 56.7671 75.2259C55.0885 78.0246 52.8658 80.4583 50.2305 82.3833C47.573 84.3174 44.5932 85.764 41.4298 86.6558C38.3049 87.5523 35.0694 88.0047 31.8184 87.9997ZM32.1398 15.4834C29.5981 15.4834 28.5391 16.3963 28.0352 17.3823C27.3049 18.843 26.1801 22.0054 26.1801 29.0679V29.8858C26.1801 35.6264 27.1734 45.3035 31.8476 45.3035C33.5566 45.3035 34.9443 44.4563 37.8657 42.7838V28.5785C37.8657 15.4834 33.5785 15.4834 32.1398 15.4834Z" fill="white"/>
<path d="M55.9128 64.8915C55.8261 67.841 54.9999 70.7215 53.51 73.2686C52.0968 75.6386 50.2187 77.6982 47.9885 79.3232C45.6913 80.9824 43.1167 82.2189 40.3856 82.9749C37.6016 83.7824 34.7175 84.193 31.8186 84.1946C28.1995 84.2163 24.6145 83.4929 21.287 82.0693C17.9159 80.5926 14.9204 78.376 12.5228 75.5838L16.7077 70.8146C18.1574 72.5624 19.9398 74.0048 21.9516 75.0579C23.5814 75.8591 25.3722 76.2787 27.1882 76.2849C29.0539 76.2843 30.8984 75.8885 32.6001 75.1237C34.3483 74.3526 35.9438 73.2741 37.3108 71.9394C38.7211 70.5708 39.8478 68.9378 40.6266 67.1336C41.4547 65.2338 41.8728 63.1807 41.8536 61.1083L41.9705 53.1183C38.6638 55.9312 34.4348 57.4241 30.095 57.3105C27.3642 57.3223 24.6566 56.8091 22.1196 55.7986C19.6638 54.8333 17.4135 53.4107 15.488 51.6065C13.5723 49.7988 12.0117 47.6486 10.8868 45.267C9.71384 42.7732 9.11726 40.0474 9.14132 37.2916V22.9768C9.14132 16.6909 11.1206 11.9169 15.079 8.65466C19.0375 5.39244 24.7805 3.76376 32.308 3.76863C40.5317 3.76863 46.5254 5.72839 50.2892 9.64792C54.0529 13.5675 55.9347 19.6391 55.9347 27.8628L55.9128 64.8915ZM22.9741 29.8348C23.0471 42.6353 26.1317 49.0356 32.2276 49.0356C35.2367 49.0356 38.438 47.5238 41.8317 44.5002V28.5786C41.8317 17.3215 38.6304 11.6953 32.2276 11.7002C28.7609 11.7002 26.3508 13.0197 24.9972 15.6587C23.6436 18.2977 22.9692 22.7577 22.9741 29.0387V29.8348Z" fill="#6362D1"/>
<mask id="mask0_728_20869" style="mask-type:luminance" maskUnits="userSpaceOnUse" x="9" y="3" width="47" height="82">
<mask id="mask1_728_20869" style="mask-type:luminance" maskUnits="userSpaceOnUse" x="9" y="3" width="47" height="82">
<path d="M55.9128 64.8915C55.8261 67.841 54.9999 70.7215 53.51 73.2686C52.0968 75.6386 50.2187 77.6982 47.9885 79.3232C45.6913 80.9824 43.1167 82.2189 40.3856 82.9749C37.6016 83.7824 34.7175 84.193 31.8186 84.1946C28.1995 84.2163 24.6145 83.4929 21.287 82.0693C17.9159 80.5926 14.9204 78.376 12.5228 75.5838L16.7077 70.8146C18.1574 72.5624 19.9398 74.0048 21.9516 75.0579C23.5814 75.8591 25.3722 76.2787 27.1882 76.2849C29.0539 76.2843 30.8984 75.8885 32.6001 75.1237C34.3483 74.3526 35.9438 73.2741 37.3108 71.9394C38.7211 70.5708 39.8478 68.9378 40.6266 67.1336C41.4547 65.2338 41.8728 63.1807 41.8536 61.1083L41.9705 53.1183C38.6638 55.9312 34.4348 57.4241 30.095 57.3105C27.3642 57.3223 24.6566 56.8091 22.1196 55.7986C19.6638 54.8333 17.4135 53.4107 15.488 51.6065C13.5723 49.7988 12.0117 47.6486 10.8868 45.267C9.71384 42.7732 9.11726 40.0474 9.14132 37.2916V22.9768C9.14132 16.6909 11.1206 11.9169 15.079 8.65466C19.0375 5.39244 24.7805 3.76376 32.308 3.76863C40.5317 3.76863 46.5254 5.72839 50.2892 9.64792C54.0529 13.5675 55.9347 19.6391 55.9347 27.8628L55.9128 64.8915ZM22.9741 29.8348C23.0471 42.6353 26.1317 49.0356 32.2276 49.0356C35.2367 49.0356 38.438 47.5238 41.8317 44.5002V28.5786C41.8317 17.3215 38.6304 11.6953 32.2276 11.7002C28.7609 11.7002 26.3508 13.0197 24.9972 15.6587C23.6436 18.2977 22.9692 22.7577 22.9741 29.0387V29.8348Z" fill="white"/>
</mask>
<g mask="url(#mask1_728_20869)">
<path d="M55.9128 64.8915C55.8261 67.841 54.9999 70.7215 53.51 73.2686C52.0968 75.6386 50.2187 77.6982 47.9885 79.3232C45.6913 80.9824 43.1167 82.2189 40.3856 82.9749C37.6016 83.7824 34.7175 84.193 31.8186 84.1946C28.1995 84.2163 24.6145 83.4929 21.287 82.0693C17.9159 80.5926 14.9204 78.376 12.5228 75.5838L16.7077 70.8146C18.1574 72.5624 19.9398 74.0048 21.9516 75.0579C23.5814 75.8591 25.3722 76.2787 27.1882 76.2849C29.0539 76.2843 30.8984 75.8885 32.6001 75.1237C34.3483 74.3526 35.9438 73.2741 37.3108 71.9394C38.7211 70.5708 39.8478 68.9378 40.6266 67.1336C41.4547 65.2338 41.8728 63.1807 41.8536 61.1083L41.9705 53.1183C38.6638 55.9312 34.4348 57.4241 30.095 57.3105C27.3642 57.3223 24.6566 56.8091 22.1196 55.7986C19.6638 54.8333 17.4135 53.4107 15.488 51.6065C13.5723 49.7988 12.0117 47.6486 10.8868 45.267C9.71384 42.7732 9.11726 40.0474 9.14132 37.2916V22.9768C9.14132 16.6909 11.1206 11.9169 15.079 8.65466C19.0375 5.39244 24.7805 3.76376 32.308 3.76863C40.5317 3.76863 46.5254 5.72839 50.2892 9.64792C54.0529 13.5675 55.9347 19.6391 55.9347 27.8628L55.9128 64.8915ZM22.9741 29.8348C23.0471 42.6353 26.1317 49.0356 32.2276 49.0356C35.2367 49.0356 38.438 47.5238 41.8317 44.5002V28.5786C41.8317 17.3215 38.6304 11.6953 32.2276 11.7002C28.7609 11.7002 26.3508 13.0197 24.9972 15.6587C23.6436 18.2977 22.9692 22.7577 22.9741 29.0387V29.8348Z" fill="white"/>
</g>
</mask>
<g mask="url(#mask0_728_20869)">
<path d="M5.25586 4.08266C7.52724 3.99502 9.80593 3.95849 12.0773 3.89276L18.9061 3.78321C23.4561 3.72479 28.0062 3.73209 32.5563 3.69558C37.1064 3.65906 41.6491 3.69557 46.1992 3.78321L53.028 3.89276C55.2993 3.95849 57.578 3.99502 59.8494 4.08266C57.578 4.1703 55.2993 4.20683 53.028 4.27256L46.1992 4.38211C41.6491 4.44053 37.0991 4.44053 32.5563 4.46974C28.0135 4.49896 23.4561 4.46975 18.9061 4.38211L12.0773 4.27256C9.80593 4.20683 7.52724 4.1703 5.25586 4.08266Z" fill="#9686D9"/>
<path d="M5.25586 6.60237C7.52724 6.51473 9.80593 6.47821 12.0773 6.41248L18.8769 6.31753C23.4269 6.2591 27.977 6.2591 32.5271 6.22989C37.0771 6.20067 41.6199 6.22989 46.17 6.31753L52.9987 6.42707C55.2701 6.49281 57.5488 6.52933 59.8202 6.61697C57.5488 6.70461 55.2701 6.74114 52.9987 6.80687L46.17 6.91642C41.6199 6.97485 37.0698 6.97484 32.5271 7.00406C27.9843 7.03327 23.4269 7.00406 18.8769 6.91642L12.0481 6.80687C9.80592 6.72653 7.52724 6.69002 5.25586 6.60237Z" fill="#9686D9"/>
<path d="M5.25586 9.12209C7.52724 9.03445 9.80593 8.99792 12.0773 8.93219L18.9061 8.82264C23.4561 8.76422 28.0062 8.77152 32.5563 8.73501C37.1064 8.69849 41.6491 8.735 46.1992 8.82264L53.028 8.93219C55.2993 8.99792 57.578 9.03445 59.8494 9.12209C57.578 9.20973 55.2993 9.24626 53.028 9.31199L46.1992 9.42153C41.6491 9.47996 37.0991 9.47996 32.5563 9.50917C28.0135 9.53839 23.4561 9.50918 18.9061 9.42153L12.0773 9.31199C9.80593 9.23895 7.52724 9.23894 5.25586 9.12209Z" fill="#9686D9"/>
<path d="M5.25586 11.6418C7.52724 11.5542 9.80593 11.5176 12.0773 11.4519L18.9061 11.3424C23.4561 11.2839 28.0062 11.2912 32.5563 11.2547C37.1064 11.2182 41.6491 11.2547 46.1992 11.3424L53.028 11.4519C55.2993 11.5176 57.578 11.5542 59.8494 11.6418C57.578 11.7294 55.2993 11.7659 53.028 11.8317L46.1992 11.9412C41.6491 11.9997 37.0991 11.9997 32.5563 12.0289C28.0135 12.0581 23.4561 12.0289 18.9061 11.9412L12.0773 11.8317C9.80593 11.7659 7.52724 11.7294 5.25586 11.6418Z" fill="#9686D9"/>
<path d="M5.25586 14.1614C7.52724 14.0738 9.80593 14.0373 12.0773 13.9715L18.9061 13.8619C23.4561 13.8035 28.0062 13.8108 32.5563 13.7743C37.1064 13.7378 41.6491 13.7743 46.1992 13.8619L53.028 13.9715C55.2993 14.0373 57.578 14.0738 59.8494 14.1614C57.578 14.249 55.2993 14.2856 53.028 14.3513L46.1992 14.4608C41.6491 14.5193 37.0991 14.5193 32.5563 14.5485C28.0135 14.5777 23.4561 14.5485 18.9061 14.4608L12.0773 14.3513C9.80593 14.2856 7.52724 14.249 5.25586 14.1614Z" fill="#9686D9"/>
<path d="M5.25586 16.6811C7.52724 16.5935 9.80593 16.5569 12.0773 16.4912L18.9061 16.3817C23.4561 16.3232 28.0062 16.3305 32.5563 16.294C37.1064 16.2575 41.6491 16.294 46.1992 16.3817L53.028 16.4912C55.2993 16.5569 57.578 16.5935 59.8494 16.6811C57.578 16.7688 55.2993 16.8053 53.028 16.871L46.1992 16.9806C41.6491 17.039 37.0991 17.039 32.5563 17.0682C28.0135 17.0974 23.4561 17.0682 18.9061 16.9806L12.0773 16.871C9.80593 16.8053 7.52724 16.7688 5.25586 16.6811Z" fill="#9686D9"/>
<path d="M5.25586 19.2009C7.52724 19.1132 9.80593 19.0767 12.0773 19.011L18.9061 18.9014C23.4561 18.843 28.0062 18.843 32.5563 18.8137C37.1064 18.7845 41.6491 18.8138 46.1992 18.9014L53.028 19.011C55.2993 19.0767 57.578 19.1132 59.8494 19.2009C57.578 19.2885 55.2993 19.325 53.028 19.3907L46.1992 19.5003C41.6491 19.5587 37.0991 19.5587 32.5563 19.5879C28.0135 19.6172 23.4561 19.5879 18.9061 19.5003L12.0773 19.3907C9.80593 19.325 7.52724 19.2885 5.25586 19.2009Z" fill="#9686D9"/>
<path d="M5.25586 21.7205C7.52724 21.6329 9.80593 21.5964 12.0773 21.5306L18.9061 21.4211C23.4561 21.3627 28.0062 21.37 32.5563 21.3335C37.1064 21.2969 41.6491 21.3335 46.1992 21.4211L53.028 21.5306C55.2993 21.5964 57.578 21.6329 59.8494 21.7205C57.578 21.8082 55.2993 21.8447 53.028 21.9104L46.1992 22.02C41.6491 22.0784 37.0991 22.0784 32.5563 22.1076C28.0135 22.1368 23.4561 22.1076 18.9061 22.02L12.0773 21.9104C9.80593 21.8447 7.52724 21.8082 5.25586 21.7205Z" fill="#9686D9"/>
<path d="M5.25586 24.2403C7.52724 24.1526 9.80593 24.1161 12.0773 24.0504L18.9061 23.9408C23.4561 23.8824 28.0062 23.8897 32.5563 23.8532C37.1064 23.8167 41.6491 23.8532 46.1992 23.9408L53.028 24.0504C55.2993 24.1161 57.578 24.1526 59.8494 24.2403C57.578 24.3279 55.2993 24.3644 53.028 24.4301L46.1992 24.5397C41.6491 24.5981 37.0991 24.5981 32.5563 24.6273C28.0135 24.6566 23.4561 24.5762 18.8769 24.5762L12.0481 24.4667C9.80592 24.3644 7.52724 24.3279 5.25586 24.2403Z" fill="#9686D9"/>
<path d="M5.25586 26.7673C7.52724 26.6796 9.80593 26.6431 12.0773 26.5774L18.9061 26.4678C23.4561 26.4094 28.0062 26.4167 32.5563 26.3802C37.1064 26.3437 41.6491 26.3802 46.1992 26.4678L53.028 26.5774C55.2993 26.6431 57.578 26.6796 59.8494 26.7673C57.578 26.8549 55.2993 26.8915 53.028 26.9572L46.1992 27.0667C41.6491 27.1252 37.0991 27.1252 32.5563 27.1544C28.0135 27.1836 23.4561 27.1544 18.9061 27.0667L12.0773 26.9572C9.80593 26.8842 7.52724 26.8476 5.25586 26.7673Z" fill="#9686D9"/>
<path d="M5.25586 29.2796C7.52724 29.192 9.80593 29.1555 12.0773 29.0897L18.8769 28.9583C23.4269 28.8998 27.977 28.9071 32.5271 28.8706C37.0771 28.8341 41.6199 28.8706 46.17 28.9583L52.9987 29.0678C55.2701 29.1335 57.5488 29.1701 59.8202 29.2577C57.5488 29.3454 55.2701 29.3819 52.9987 29.4476L46.17 29.5572C41.6199 29.6156 37.0698 29.6156 32.5271 29.6448C27.9843 29.674 23.4269 29.6448 18.8769 29.5572L12.0481 29.4476C9.80592 29.4038 7.52724 29.3673 5.25586 29.2796Z" fill="#9686D9"/>
<path d="M5.25586 31.7994C7.52724 31.7118 9.80593 31.6753 12.0773 31.6095L18.9061 31.5C23.4561 31.4416 28.0062 31.4415 32.5563 31.4123C37.1064 31.3831 41.6491 31.4123 46.1992 31.5L53.028 31.6095C55.2993 31.6753 57.578 31.7118 59.8494 31.7994C57.578 31.8871 55.2993 31.9236 53.028 31.9893L46.1992 32.0988C41.6491 32.1573 37.0991 32.1573 32.5563 32.1865C28.0135 32.2157 23.4561 32.1865 18.9061 32.0988L12.0773 31.9893C9.80593 31.9236 7.52724 31.8798 5.25586 31.7994Z" fill="#9686D9"/>
<path d="M5.25586 34.319C7.52724 34.2314 9.80593 34.1949 12.0773 34.1292L18.9061 34.0196C23.4561 33.9612 28.0062 33.9685 32.5563 33.932C37.1064 33.8954 41.6491 33.932 46.1992 34.0196L53.028 34.1292C55.2993 34.1949 57.578 34.2314 59.8494 34.319C57.578 34.4067 55.2993 34.4432 53.028 34.5089L46.1992 34.6185C41.6491 34.6769 37.0991 34.6769 32.5563 34.7061C28.0135 34.7353 23.4561 34.7061 18.9061 34.6185L12.0773 34.5089C9.80593 34.4432 7.52724 34.4067 5.25586 34.319Z" fill="#9686D9"/>
<path d="M5.25586 36.8388C7.52724 36.7511 9.80593 36.7146 12.0773 36.6489L18.9061 36.5393C23.4561 36.4809 28.0062 36.4809 32.5563 36.4517C37.1064 36.4225 41.6491 36.4517 46.1992 36.5393L53.028 36.6489C55.2993 36.7146 57.578 36.7511 59.8494 36.8388C57.578 36.9264 55.2993 36.9629 53.028 37.0286L46.1992 37.1382C41.6491 37.1966 37.0991 37.1966 32.5563 37.2259C28.0135 37.2551 23.4561 37.2259 18.9061 37.1382L12.0773 37.0286C9.80593 36.9921 7.52724 36.9264 5.25586 36.8388Z" fill="#9686D9"/>
<path d="M5.25586 39.3585C7.52724 39.2708 9.80593 39.2343 12.0773 39.1686L18.9061 39.059C23.4561 39.0006 28.0062 39.0079 32.5563 38.9714C37.1064 38.9349 41.6491 38.9714 46.1992 39.059L53.028 39.1686C55.2993 39.2343 57.578 39.2708 59.8494 39.3585C57.578 39.4461 55.2993 39.4826 53.028 39.5484L46.1992 39.6579C41.6491 39.7164 37.0991 39.7163 32.5563 39.7456C28.0135 39.7748 23.4561 39.7456 18.9061 39.6579L12.0773 39.5484C9.80593 39.4826 7.52724 39.4461 5.25586 39.3585Z" fill="#9686D9"/>
<path d="M5.25586 41.8782C7.52724 41.7906 9.80593 41.754 12.0773 41.6883L18.9061 41.5787C23.4561 41.5203 28.0062 41.5276 32.5563 41.4911C37.1064 41.4546 41.6491 41.4911 46.1992 41.5787L53.028 41.6883C55.2993 41.754 57.578 41.7906 59.8494 41.8782C57.578 41.9658 55.2993 42.0024 53.028 42.0681L46.1992 42.1776C41.6491 42.2361 37.0991 42.2361 32.5563 42.2653C28.0135 42.2945 23.4561 42.2653 18.9061 42.1776L12.0773 42.0681C9.80593 42.0024 7.52724 41.9658 5.25586 41.8782Z" fill="#9686D9"/>
<path d="M5.25586 44.3979C7.52724 44.3103 9.80593 44.2738 12.0773 44.208L18.9061 44.0985C23.4561 44.0401 28.0062 44.0473 32.5563 44.0108C37.1064 43.9743 41.6491 44.0108 46.1992 44.0985L53.028 44.208C55.2993 44.2738 57.578 44.3103 59.8494 44.3979C57.578 44.4856 55.2993 44.5221 53.028 44.5878L46.1992 44.6973C41.6491 44.7558 37.0991 44.7558 32.5563 44.785C28.0135 44.8142 23.4561 44.785 18.9061 44.6973L12.0773 44.5878C9.80593 44.5221 7.52724 44.4856 5.25586 44.3979Z" fill="#9686D9"/>
<path d="M5.25586 46.9176C7.52724 46.83 9.80593 46.7935 12.0773 46.7277L18.9061 46.6182C23.4561 46.5597 28.0062 46.5671 32.5563 46.5305C37.1064 46.494 41.6491 46.5305 46.1992 46.6182L53.028 46.7277C55.2993 46.7935 57.578 46.83 59.8494 46.9176C57.578 47.0053 55.2993 47.0418 53.028 47.1075L46.1992 47.2171C41.6491 47.2755 37.0991 47.2755 32.5563 47.3047C28.0135 47.3339 23.4561 47.3047 18.9061 47.2171L12.0773 47.1075C9.80593 47.0418 7.52724 47.0053 5.25586 46.9176Z" fill="#9686D9"/>
<path d="M5.25586 49.408C7.52724 49.3204 9.80593 49.2839 12.0773 49.2182L18.9061 49.1086C23.4561 49.0502 28.0062 49.0502 32.5563 49.021C37.1064 48.9918 41.6491 49.021 46.1992 49.1086L53.028 49.2182C55.2993 49.2839 57.578 49.3204 59.8494 49.408C57.578 49.4957 55.2993 49.5322 53.028 49.5979L46.1992 49.7075C41.6491 49.7659 37.0991 49.7659 32.5563 49.7951C28.0135 49.8243 23.4561 49.7951 18.9061 49.7075L12.0773 49.5979C9.80593 49.5614 7.52724 49.5249 5.25586 49.408Z" fill="#9686D9"/>
<path d="M5.25586 51.957C7.52724 51.8693 9.80593 51.8328 12.0773 51.7671L18.9061 51.6575C23.4561 51.5991 28.0062 51.6064 32.5563 51.5699C37.1064 51.5334 41.6491 51.5699 46.1992 51.6575L53.028 51.7671C55.2993 51.8328 57.578 51.8693 59.8494 51.957C57.578 52.0446 55.2993 52.0812 53.028 52.1469L46.1992 52.2564C41.6491 52.3149 37.0991 52.3149 32.5563 52.3441C28.0135 52.3733 23.4561 52.3441 18.9061 52.2564L12.0773 52.1469C9.80593 52.0812 7.52724 52.0446 5.25586 51.957Z" fill="#9686D9"/>
<path d="M5.25586 54.4767C7.52724 54.3891 9.80593 54.3525 12.0773 54.2868L18.9061 54.1773C23.4561 54.1188 28.0062 54.1261 32.5563 54.0896C37.1064 54.0531 41.6491 54.0896 46.1992 54.1773L53.028 54.2868C55.2993 54.3525 57.578 54.3891 59.8494 54.4767C57.578 54.5643 55.2993 54.6009 53.028 54.6666L46.1992 54.7761C41.6491 54.8346 37.0991 54.8346 32.5563 54.8638C28.0135 54.893 23.4561 54.8638 18.9061 54.7761L12.0773 54.6666C9.80593 54.6009 7.52724 54.5643 5.25586 54.4767Z" fill="#9686D9"/>
<path d="M5.25586 56.9964C7.52724 56.9088 9.80593 56.8722 12.0773 56.8065L18.8769 56.7116C23.4269 56.6531 27.977 56.6604 32.5271 56.6239C37.0771 56.5874 41.6199 56.6239 46.17 56.7116L52.9987 56.8211C55.2701 56.8868 57.5488 56.9234 59.8202 57.011C57.5488 57.0986 55.2701 57.1352 52.9987 57.2009L46.17 57.3105C41.6199 57.3689 37.0698 57.3689 32.5271 57.3981C27.9843 57.4273 23.4269 57.3981 18.8769 57.3105L12.0481 57.2009C9.80592 57.1206 7.52724 57.084 5.25586 56.9964Z" fill="#9686D9"/>
<path d="M5.25586 59.5161C7.52724 59.4285 9.80593 59.392 12.0773 59.3262L18.9061 59.2167C23.4561 59.1583 28.0062 59.1656 32.5563 59.129C37.1064 59.0925 41.6491 59.129 46.1992 59.2167L53.028 59.3262C55.2993 59.392 57.578 59.4285 59.8494 59.5161C57.578 59.6038 55.2993 59.6403 53.028 59.706L46.1992 59.8156C41.6491 59.874 37.0991 59.874 32.5563 59.9032C28.0135 59.9324 23.4561 59.9032 18.9061 59.8156L12.0773 59.706C9.80593 59.633 7.52724 59.633 5.25586 59.5161Z" fill="#9686D9"/>
<path d="M5.25586 62.0358C7.52724 61.9482 9.80593 61.9116 12.0773 61.8459L18.9061 61.7364C23.4561 61.6779 28.0062 61.6779 32.5563 61.6487C37.1064 61.6195 41.6491 61.6487 46.1992 61.7364L53.028 61.8459C55.2993 61.9116 57.578 61.9482 59.8494 62.0358C57.578 62.1234 55.2993 62.1599 53.028 62.2257L46.1992 62.3352C41.6491 62.3937 37.0991 62.3937 32.5563 62.4229C28.0135 62.4521 23.4561 62.4229 18.9061 62.3352L12.0773 62.2257C9.80593 62.1599 7.52724 62.1234 5.25586 62.0358Z" fill="#9686D9"/>
<path d="M5.25586 64.5555C7.52724 64.4679 9.80593 64.4314 12.0773 64.3656L18.9061 64.2561C23.4561 64.1976 28.0062 64.2049 32.5563 64.1684C37.1064 64.1319 41.6491 64.1684 46.1992 64.2561L53.028 64.3656C55.2993 64.4314 57.578 64.4679 59.8494 64.5555C57.578 64.6431 55.2993 64.6797 53.028 64.7454L46.1992 64.8549C41.6491 64.9134 37.0991 64.9134 32.5563 64.9426C28.0135 64.9718 23.4561 64.9426 18.9061 64.8549L12.0773 64.7454C9.80593 64.6797 7.52724 64.6431 5.25586 64.5555Z" fill="#9686D9"/>
<path d="M5.25586 67.0752C7.52724 66.9876 9.80593 66.951 12.0773 66.8853L18.9061 66.7758C23.4561 66.7173 28.0062 66.7246 32.5563 66.6881C37.1064 66.6516 41.6491 66.6881 46.1992 66.7758L53.028 66.8853C55.2993 66.951 57.578 66.9876 59.8494 67.0752C57.578 67.1629 55.2993 67.1994 53.028 67.2651L46.1992 67.3747C41.6491 67.4331 37.0991 67.4331 32.5563 67.4623C28.0135 67.4915 23.4561 67.4623 18.9061 67.3747L12.0773 67.2651C9.80593 67.1994 7.52724 67.1629 5.25586 67.0752Z" fill="#9686D9"/>
<path d="M5.25586 69.5949C7.52724 69.5072 9.80593 69.4707 12.0773 69.405L18.9061 69.2954C23.4561 69.237 28.0062 69.2443 32.5563 69.2078C37.1064 69.1713 41.6491 69.2078 46.1992 69.2954L53.028 69.405C55.2993 69.4707 57.578 69.5072 59.8494 69.5949C57.578 69.6825 55.2993 69.719 53.028 69.7848L46.1992 69.8943C41.6491 69.9527 37.0991 69.9528 32.5563 69.982C28.0135 70.0112 23.4561 69.982 18.9061 69.8943L12.0773 69.7848C9.80593 69.719 7.52724 69.6825 5.25586 69.5949Z" fill="#9686D9"/>
<path d="M5.25586 72.1146C7.52724 72.0269 9.80593 71.9904 12.0773 71.9247L18.9061 71.8151C23.4561 71.7567 28.0062 71.764 32.5563 71.7275C37.1064 71.691 41.6491 71.7275 46.1992 71.8151L53.028 71.9247C55.2993 71.9904 57.578 72.0269 59.8494 72.1146C57.578 72.2022 55.2993 72.2387 53.028 72.3045L46.1992 72.414C41.6491 72.4725 37.0991 72.4725 32.5563 72.5017C28.0135 72.5309 23.4561 72.5017 18.9061 72.414L12.0773 72.3045C9.80593 72.2387 7.52724 72.2022 5.25586 72.1146Z" fill="#9686D9"/>
<path d="M5.25586 74.6343C7.52724 74.5467 9.80593 74.5101 12.0773 74.4444L18.9061 74.3349C23.4561 74.2764 28.0062 74.2764 32.5563 74.2472C37.1064 74.218 41.6491 74.2472 46.1992 74.3349L53.028 74.4444C55.2993 74.5101 57.578 74.5467 59.8494 74.6343C57.578 74.7219 55.2993 74.7585 53.028 74.8242L46.1992 74.9338C41.6491 74.9922 37.0991 74.9922 32.5563 75.0214C28.0135 75.0506 23.4561 74.9703 18.8769 74.9703L12.0481 74.8607C9.80592 74.7585 7.52724 74.7219 5.25586 74.6343Z" fill="#9686D9"/>
<path d="M5.25586 77.1613C7.52724 77.0737 9.80593 77.0372 12.0773 76.9714L18.9061 76.8619C23.4561 76.8035 28.0062 76.8108 32.5563 76.7743C37.1064 76.7377 41.6491 76.7742 46.1992 76.8619L53.028 76.9714C55.2993 77.0372 57.578 77.0737 59.8494 77.1613C57.578 77.249 55.2993 77.2855 53.028 77.3512L46.1992 77.4608C41.6491 77.5192 37.0991 77.5192 32.5563 77.5484C28.0135 77.5776 23.4561 77.5484 18.9061 77.4608L12.0773 77.3512C9.80593 77.2782 7.52724 77.2417 5.25586 77.1613Z" fill="#9686D9"/>
<path d="M5.25586 79.6737C7.52724 79.5861 9.80593 79.5496 12.0773 79.4838L18.8769 79.3524C23.4269 79.2939 27.977 79.3012 32.5271 79.2647C37.0771 79.2282 41.6199 79.2647 46.17 79.3524L52.9987 79.4619C55.2701 79.5276 57.5488 79.5642 59.8202 79.6518C57.5488 79.7395 55.2701 79.776 52.9987 79.8417L46.17 79.9513C41.6199 80.0097 37.0698 80.0097 32.5271 80.0389C27.9843 80.0681 23.4269 80.0389 18.8769 79.9513L12.0481 79.8417C9.80592 79.7979 7.52724 79.7614 5.25586 79.6737Z" fill="#9686D9"/>
<path d="M5.25586 82.1935C7.52724 82.1058 9.80593 82.0693 12.0773 82.0036L18.9061 81.894C23.4561 81.8356 28.0062 81.8429 32.5563 81.8064C37.1064 81.7698 41.6491 81.8064 46.1992 81.894L53.028 82.0036C55.2993 82.0693 57.578 82.1058 59.8494 82.1935C57.578 82.2811 55.2993 82.3176 53.028 82.3833L46.1992 82.4929C41.6491 82.5513 37.0991 82.5513 32.5563 82.5805C28.0135 82.6098 23.4561 82.5805 18.9061 82.4929L12.0773 82.3833C9.80593 82.3176 7.52724 82.2738 5.25586 82.1935Z" fill="#9686D9"/>
</g>
<path d="M32.286 4.62308C40.2322 4.62308 46.075 6.51469 49.661 10.2395C53.247 13.9642 55.0729 19.9166 55.0729 27.8774V64.8695C54.9833 67.674 54.1977 70.4122 52.7869 72.8376C51.4308 75.1098 49.6298 77.0847 47.4919 78.6439C45.2723 80.2467 42.7877 81.4458 40.1519 82.1861C37.4429 82.9672 34.638 83.3654 31.8186 83.3693C28.3058 83.392 24.8257 82.6934 21.5937 81.317C18.5593 79.9881 15.8373 78.0374 13.6037 75.5911L16.6785 72.0854C18.0584 73.6198 19.7068 74.8895 21.5426 75.8321C23.2873 76.6849 25.2024 77.1319 27.1444 77.1394C29.1258 77.137 31.0845 76.7164 32.8922 75.9051C34.7351 75.0933 36.4191 73.9607 37.8659 72.5601C39.3539 71.1126 40.5448 69.3883 41.3716 67.4842C42.238 65.4812 42.6783 63.3198 42.6643 61.1375L42.7812 53.1474V51.2851L41.3716 52.4974C38.2108 55.168 34.1805 56.5868 30.0439 56.4851C27.4202 56.4923 24.8195 55.9964 22.3825 55.0244C17.6239 53.1588 13.7627 49.5381 11.5953 44.9091C10.478 42.5288 9.90901 39.9282 9.93007 37.2989V22.9841C9.93007 16.9879 11.829 12.3867 15.5611 9.31193C19.2931 6.23716 24.9607 4.6158 32.2568 4.6158M32.1984 49.8974C35.4046 49.8974 38.8227 48.3052 42.3575 45.1501L42.6424 44.8945V28.5785C42.6424 16.8199 39.1294 10.8603 32.1984 10.8603C28.4079 10.8603 25.7202 12.321 24.223 15.2424C22.7988 18.0323 22.105 22.5458 22.105 29.0094V29.8347C22.1853 43.1271 25.5814 49.8682 32.1984 49.8682M32.2568 3.75397C24.7245 3.75397 18.9815 5.38265 15.0279 8.64C11.0743 11.8974 9.09505 16.6714 9.09018 22.9621V37.277C9.064 40.0432 9.66319 42.7795 10.843 45.2816C11.9679 47.6632 13.5285 49.8134 15.4442 51.621C17.3697 53.4253 19.62 54.8478 22.0758 55.8132C24.6128 56.8236 27.3204 57.3369 30.0512 57.325C34.391 57.4387 38.6199 55.9458 41.9266 53.1328L41.8317 61.0936C41.8509 63.166 41.4328 65.2192 40.6047 67.119C39.8259 68.9232 38.6991 70.5562 37.2889 71.9247C35.9219 73.2595 34.3263 74.338 32.5782 75.109C30.8765 75.8739 29.032 76.2696 27.1663 76.2703C25.3503 76.264 23.5595 75.8445 21.9297 75.0433C19.9179 73.9902 18.1354 72.5478 16.6858 70.8L12.5009 75.5691C14.8985 78.3614 17.8939 80.578 21.2651 82.0546C24.5926 83.4782 28.1775 84.2017 31.7967 84.1799C34.7008 84.1947 37.5924 83.7988 40.3856 83.0041C43.1167 82.2481 45.6912 81.0115 47.9885 79.3523C50.2186 77.7273 52.0968 75.6678 53.51 73.2977C54.9999 70.7507 55.8261 67.8702 55.9128 64.9207V27.8774C55.9128 19.6537 54.031 13.582 50.2672 9.66248C46.5035 5.74295 40.5098 3.78319 32.286 3.78319L32.2568 3.75397ZM32.1984 49.0356C26.1073 49.0356 23.0228 42.6353 22.9449 29.8347V29.0167C22.9449 22.7357 23.6192 18.2757 24.9679 15.6368C26.3167 12.9978 28.7268 11.6783 32.1984 11.6783C38.5962 11.6783 41.7976 17.3044 41.8025 28.5566V44.5001C38.3942 47.5238 35.1928 49.0356 32.1984 49.0356Z" fill="#161548"/>
<path d="M23.8068 76.2995C24.3862 76.2962 24.9646 76.2522 25.5378 76.1681C24.2852 75.9941 23.0677 75.6245 21.9298 75.0726C19.9181 74.0194 18.1356 72.577 16.6859 70.8292L15.1011 72.6405C16.1289 73.6173 17.2955 74.4368 18.5629 75.0726C20.1955 75.8731 21.9885 76.2926 23.8068 76.2995Z" fill="#161548"/>
<path d="M50.2816 9.66251C46.5178 5.7381 40.5241 3.77834 32.3004 3.78321C31.7965 3.78321 31.3217 3.78321 30.8397 3.82703C38.0994 4.1143 43.4552 6.0619 46.9074 9.66982C50.6662 13.565 52.5481 19.6366 52.5529 27.8847V64.8915C52.4662 67.841 51.64 70.7215 50.1501 73.2686C48.737 75.6386 46.8588 77.6981 44.6287 79.3232C42.3314 80.9824 39.7569 82.2189 37.0257 82.9749C34.7659 83.6201 32.4412 84.012 30.0947 84.1435C30.6644 84.1435 31.2414 84.1946 31.8184 84.1946C34.7158 84.2025 37.5999 83.8018 40.3854 83.0041C43.1165 82.2482 45.691 81.0116 47.9883 79.3524C50.2184 77.7274 52.0966 75.6678 53.5097 73.2978C54.9996 70.7507 55.8259 67.8702 55.9125 64.9207V27.8774C55.9125 19.6537 54.0356 13.582 50.2816 9.66251Z" fill="#161548"/>
<path d="M24.9969 15.6587C25.5152 14.615 26.288 13.7186 27.2441 13.0523C28.2001 12.386 29.3086 11.9712 30.4672 11.8463C29.9392 11.7519 29.4041 11.703 28.8677 11.7002C25.401 11.7002 22.9909 13.0197 21.6373 15.6587C20.2837 18.2977 19.6069 22.7577 19.6069 29.0387V29.8567C19.68 42.6572 22.7645 49.0575 28.8605 49.0575C29.4491 49.0502 30.0358 48.9891 30.6133 48.8749C25.5885 47.8038 23.0396 41.4741 22.9665 29.8859V29.0679C22.9714 22.7674 23.6482 18.2977 24.9969 15.6587Z" fill="#161548"/>
</svg>
