<svg width="261" height="64" viewBox="0 0 261 64" fill="none" xmlns="http://www.w3.org/2000/svg">
<path d="M0 63.9999L23.4666 -5.90005e-05L36.2666 0L59.7332 63.9999L46.9332 63.9999L27.7333 8.53332H31.9999L12.8 63.9999H0Z" fill="#D4C9FF"/>
<ellipse cx="29.8574" cy="59.733" rx="4.26666" ry="4.26666" fill="#D4C9FF"/>
<path fill-rule="evenodd" clip-rule="evenodd" d="M85.3401 34.2434C78.1652 34.2545 71.1476 32.8021 62.5756 30.0721L65.4241 21.1281C73.5146 23.7048 79.4987 24.8658 85.3257 24.8568C91.1585 24.8478 97.1498 23.6664 105.262 21.1219L108.071 30.0783C99.52 32.7605 92.5092 34.2324 85.3401 34.2434Z" fill="#D4C9FF"/>
<path fill-rule="evenodd" clip-rule="evenodd" d="M85.3262 50.7734C92.5011 50.7624 99.5187 52.2147 108.091 54.9447L105.242 63.8887C97.1517 61.3121 91.1676 60.1511 85.3406 60.16C79.5078 60.169 73.5165 61.3504 65.4045 63.8949L62.5952 54.9385C71.1463 52.2563 78.1571 50.7844 85.3262 50.7734Z" fill="#D4C9FF"/>
<path fill-rule="evenodd" clip-rule="evenodd" d="M89.5998 55.4667V25.6001H98.9864V55.4667H89.5998Z" fill="#D4C9FF"/>
<path fill-rule="evenodd" clip-rule="evenodd" d="M72.5332 55.4667V25.6001H81.9198V55.4667H72.5332Z" fill="#D4C9FF"/>
<path d="M167.253 12.8003H157.866V64.0002H167.253V12.8003Z" fill="#D4C9FF"/>
<path fill-rule="evenodd" clip-rule="evenodd" d="M110.933 34.3009C110.933 27.1393 116.855 21.3336 124.16 21.3336H160.426V30.5362H124.16C122.039 30.5362 120.32 32.2217 120.32 34.3009C120.32 36.3801 122.039 38.0656 124.16 38.0656H136.96C144.265 38.0656 150.186 43.8713 150.186 51.0329C150.186 58.1945 144.265 64.0002 136.96 64.0002H111.36V54.7976H136.96C139.08 54.7976 140.8 53.1121 140.8 51.0329C140.8 48.9537 139.08 47.2682 136.96 47.2682H124.16C116.855 47.2682 110.933 41.4625 110.933 34.3009Z" fill="#D4C9FF"/>
<ellipse cx="238.933" cy="42.6669" rx="4.26665" ry="4.26666" fill="#D4C9FF"/>
<path fill-rule="evenodd" clip-rule="evenodd" d="M238.933 54.6136C245.531 54.6136 250.879 49.2649 250.879 42.6669C250.879 36.069 245.531 30.7203 238.933 30.7203C232.335 30.7203 226.986 36.069 226.986 42.6669C226.986 49.2649 232.335 54.6136 238.933 54.6136ZM238.933 64.0002C250.715 64.0002 260.266 54.449 260.266 42.6669C260.266 30.8849 250.715 21.3336 238.933 21.3336C227.151 21.3336 217.6 30.8849 217.6 42.6669C217.6 54.449 227.151 64.0002 238.933 64.0002Z" fill="#D4C9FF"/>
<path fill-rule="evenodd" clip-rule="evenodd" d="M157.866 30.6274C163.043 30.6274 169.579 31.1704 174.684 33.7227C177.157 34.9588 179.183 36.6121 180.609 38.827C182.027 41.0284 183.04 44.0719 183.04 48.3964V59.7337V64.0002L192.426 63.9993V59.7335V48.3964V44.3636C192.426 35.1728 195.136 32.3313 196.621 31.4577C198.374 30.4258 200.666 30.7442 201.892 31.3891C203.623 32.2998 204.277 33.8327 204.359 35.928C204.399 36.971 204.274 37.9746 204.126 38.7391C204.054 39.1127 203.981 39.4072 203.93 39.594C203.905 39.6868 203.887 39.7507 203.877 39.7833L203.874 39.792L203.871 39.8006L203.871 39.8025C203.872 39.7983 203.874 39.7918 203.877 39.7833C203.877 39.7817 203.878 39.78 208.336 41.2325C212.794 42.6851 212.796 42.6795 212.797 42.6777L212.799 42.6694L212.806 42.65L212.822 42.5997L212.867 42.4552C212.902 42.3397 212.946 42.1862 212.997 41.9986C213.098 41.6245 213.225 41.109 213.346 40.4855C213.583 39.2562 213.814 37.5183 213.738 35.5714C213.588 31.687 212.121 26.2465 206.296 23.182C203.012 21.4543 197.124 20.3495 191.824 23.4687C189.261 24.9773 187.196 27.2499 185.714 30.3103C183.685 28.2358 181.348 26.6429 178.915 25.4264C171.754 21.8467 163.357 21.3336 157.866 21.3336V30.6274Z" fill="#D4C9FF"/>
</svg>
