<svg width="16" height="16" viewBox="0 0 16 16" fill="none" xmlns="http://www.w3.org/2000/svg">
<path d="M11.7139 8.40995C11.707 7.22961 12.2417 6.34003 13.3217 5.68409C12.7177 4.81874 11.8039 4.3428 10.5993 4.25107C9.45885 4.16107 8.21105 4.91566 7.75416 4.91566C7.27131 4.91566 6.16716 4.28222 5.29837 4.28222C3.50542 4.30991 1.59998 5.71178 1.59998 8.56398C1.59998 9.40683 1.754 10.2774 2.06206 11.1739C2.47395 12.3542 3.95885 15.2462 5.50778 15.1995C6.31772 15.1805 6.89057 14.6249 7.94453 14.6249C8.96735 14.6249 9.49693 15.1995 10.4003 15.1995C11.9631 15.177 13.3061 12.5481 13.6972 11.3643C11.6014 10.376 11.7139 8.47052 11.7139 8.40995ZM9.89498 3.1313C10.7724 2.08942 10.6928 1.141 10.6668 0.800049C9.89152 0.845047 8.99504 1.32791 8.4845 1.92154C7.92204 2.55844 7.59148 3.34591 7.66244 4.23376C8.50007 4.2978 9.26502 3.86685 9.89498 3.1313Z" fill="#25292F"/>
</svg>
