<svg width="14" height="15" viewBox="0 0 14 15" fill="none" xmlns="http://www.w3.org/2000/svg">
<path d="M7.0033 0.5C5.79477 0.499736 4.60675 0.812367 3.55489 1.40746C2.50303 2.00256 1.62316 2.85984 1.00091 3.89587C0.378671 4.93191 0.0352567 6.11139 0.00409748 7.31952C-0.0270617 8.52765 0.255096 9.72327 0.823106 10.79L0.0591633 13.0818C-0.00411626 13.2716 -0.0132996 13.4752 0.0326426 13.6699C0.0785849 13.8646 0.177837 14.0426 0.319275 14.184C0.460713 14.3255 0.638747 14.4247 0.833422 14.4707C1.0281 14.5166 1.23172 14.5074 1.42147 14.4441L3.7133 13.6802C4.65209 14.1795 5.69229 14.4584 6.75495 14.4957C7.81762 14.533 8.87481 14.3277 9.84629 13.8954C10.8178 13.4631 11.678 12.8152 12.3617 12.0008C13.0454 11.1864 13.5345 10.227 13.792 9.1953C14.0496 8.16364 14.0687 7.08687 13.8479 6.04672C13.6272 5.00657 13.1723 4.03038 12.518 3.19225C11.8636 2.35412 11.0269 1.67608 10.0714 1.20959C9.11586 0.743108 8.06662 0.500436 7.0033 0.5ZM4.04176 8.30769C3.88201 8.30769 3.72586 8.26032 3.59303 8.17157C3.46021 8.08282 3.35668 7.95668 3.29555 7.80909C3.23442 7.6615 3.21842 7.4991 3.24959 7.34243C3.28075 7.18575 3.35768 7.04183 3.47064 6.92888C3.58359 6.81592 3.72751 6.73899 3.88419 6.70783C4.04086 6.67666 4.20326 6.69266 4.35085 6.75379C4.49844 6.81492 4.62458 6.91845 4.71333 7.05127C4.80208 7.18409 4.84945 7.34025 4.84945 7.5C4.84945 7.71421 4.76436 7.91965 4.61289 8.07112C4.46141 8.2226 4.25597 8.30769 4.04176 8.30769ZM7.0033 8.30769C6.84355 8.30769 6.68739 8.26032 6.55457 8.17157C6.42175 8.08282 6.31822 7.95668 6.25709 7.80909C6.19596 7.6615 6.17996 7.4991 6.21113 7.34243C6.24229 7.18575 6.31922 7.04183 6.43217 6.92888C6.54513 6.81592 6.68905 6.73899 6.84573 6.70783C7.0024 6.67666 7.1648 6.69266 7.31239 6.75379C7.45998 6.81492 7.58612 6.91845 7.67487 7.05127C7.76362 7.18409 7.81099 7.34025 7.81099 7.5C7.81099 7.71421 7.7259 7.91965 7.57442 8.07112C7.42295 8.2226 7.21751 8.30769 7.0033 8.30769ZM9.96484 8.30769C9.80509 8.30769 9.64893 8.26032 9.51611 8.17157C9.38329 8.08282 9.27976 7.95668 9.21863 7.80909C9.1575 7.6615 9.1415 7.4991 9.17267 7.34243C9.20383 7.18575 9.28076 7.04183 9.39371 6.92888C9.50667 6.81592 9.65059 6.73899 9.80727 6.70783C9.96394 6.67666 10.1263 6.69266 10.2739 6.75379C10.4215 6.81492 10.5477 6.91845 10.6364 7.05127C10.7252 7.18409 10.7725 7.34025 10.7725 7.5C10.7725 7.71421 10.6874 7.91965 10.536 8.07112C10.3845 8.2226 10.1791 8.30769 9.96484 8.30769Z" fill="#9E5BF3"/>
</svg>
