<svg width="18" height="18" viewBox="0 0 18 18" fill="none" xmlns="http://www.w3.org/2000/svg">
<g clip-path="url(#clip0_2678_94738)">
<path d="M16.9808 7.5452L12.1951 5.80487L10.4548 1.01916C10.3462 0.720492 10.1484 0.462472 9.88813 0.28014C9.62786 0.0978076 9.31778 0 9 0C8.68222 0 8.37214 0.0978076 8.11187 0.28014C7.8516 0.462472 7.65375 0.720492 7.5452 1.01916L5.80487 5.80487L1.01916 7.5452C0.720492 7.65375 0.462472 7.8516 0.28014 8.11187C0.0978076 8.37214 0 8.68222 0 9C0 9.31778 0.0978076 9.62786 0.28014 9.88813C0.462472 10.1484 0.720492 10.3462 1.01916 10.4548L5.80487 12.1951L7.5452 16.9808C7.65375 17.2795 7.8516 17.5375 8.11187 17.7199C8.37214 17.9022 8.68222 18 9 18C9.31778 18 9.62786 17.9022 9.88813 17.7199C10.1484 17.5375 10.3462 17.2795 10.4548 16.9808L12.1951 12.1951L16.9808 10.4548C17.2795 10.3462 17.5375 10.1484 17.7199 9.88813C17.9022 9.62786 18 9.31778 18 9C18 8.68222 17.9022 8.37214 17.7199 8.11187C17.5375 7.8516 17.2795 7.65375 16.9808 7.5452ZM11.4216 10.4936C11.2087 10.5707 11.0154 10.6937 10.8553 10.8538C10.6953 11.0139 10.5723 11.2072 10.4951 11.42L9 15.5322L7.50485 11.42C7.42771 11.2072 7.30475 11.0139 7.14466 10.8538C6.98458 10.6937 6.79128 10.5707 6.57844 10.4936L2.4662 9L6.57844 7.50485C6.79128 7.42771 6.98458 7.30475 7.14466 7.14466C7.30475 6.98458 7.42771 6.79128 7.50485 6.57844L9 2.4662L10.4951 6.57844C10.5723 6.79128 10.6953 6.98458 10.8553 7.14466C11.0154 7.30475 11.2087 7.42771 11.4216 7.50485L15.5338 9L11.4216 10.4936Z" fill="#D4C9FF"/>
</g>
<defs>
<clipPath id="clip0_2678_94738">
<rect width="18" height="18" fill="white"/>
</clipPath>
</defs>
</svg>
