<svg width="14" height="15" viewBox="0 0 14 15" fill="none" xmlns="http://www.w3.org/2000/svg">
<path d="M6.99998 1.19922C5.31131 1.19922 3.93748 2.57306 3.93748 4.26172L3.93748 6.09922H3.32498C2.64939 6.09922 2.09998 6.64863 2.09998 7.32422L2.09998 12.2242C2.09998 12.8998 2.64939 13.4492 3.32498 13.4492L10.675 13.4492C11.3506 13.4492 11.9 12.8998 11.9 12.2242L11.9 7.32422C11.9 6.64863 11.3506 6.09922 10.675 6.09922H10.0625V4.26172C10.0625 2.57306 8.68864 1.19922 6.99998 1.19922ZM10.675 7.32422L10.6762 12.2242L3.32498 12.2242L3.32498 7.32422L10.675 7.32422ZM5.16248 6.09922V4.26172C5.16248 3.24864 5.9869 2.42422 6.99998 2.42422C8.01305 2.42422 8.83747 3.24864 8.83747 4.26172V6.09922L5.16248 6.09922Z" fill="white"/>
</svg>
