<svg width="125" height="28" viewBox="0 0 125 28" fill="none" xmlns="http://www.w3.org/2000/svg">
<path d="M0 28L11.2028 -2.58127e-05L17.3135 0L28.5163 27.9999L22.4057 28L13.2397 3.73333H15.2766L6.11064 28H0Z" fill="white"/>
<ellipse cx="14.2538" cy="26.1331" rx="2.03688" ry="1.86666" fill="white"/>
<path fill-rule="evenodd" clip-rule="evenodd" d="M40.7409 14.9815C37.3157 14.9863 33.9655 14.3509 29.8733 13.1566L31.2331 9.24355C35.0955 10.3708 37.9523 10.8788 40.7341 10.8748C43.5186 10.8709 46.3788 10.354 50.2514 9.24084L51.5926 13.1593C47.5103 14.3327 44.1634 14.9767 40.7409 14.9815Z" fill="white"/>
<path fill-rule="evenodd" clip-rule="evenodd" d="M40.7343 22.2133C44.1596 22.2085 47.5098 22.8439 51.602 24.0383L50.2421 27.9513C46.3797 26.824 43.523 26.3161 40.7412 26.32C37.9566 26.3239 35.0964 26.8408 31.2238 27.954L29.8826 24.0356C33.9649 22.8621 37.3118 22.2181 40.7343 22.2133Z" fill="white"/>
<path fill-rule="evenodd" clip-rule="evenodd" d="M42.7745 24.2667V11.2001H47.2556V24.2667H42.7745Z" fill="white"/>
<path fill-rule="evenodd" clip-rule="evenodd" d="M34.627 24.2667V11.2001H39.1081V24.2667H34.627Z" fill="white"/>
<path d="M79.8458 5.6001H75.3646V28.0001H79.8458V5.6001Z" fill="white"/>
<path fill-rule="evenodd" clip-rule="evenodd" d="M52.9589 15.0066C52.9589 11.8733 55.7859 9.33337 59.2733 9.33337H76.5867V13.3595H59.2733C58.2608 13.3595 57.4401 14.0969 57.4401 15.0066C57.4401 15.9162 58.2608 16.6536 59.2733 16.6536H65.3839C68.8712 16.6536 71.6982 19.1936 71.6982 22.3268C71.6982 25.46 68.8712 28 65.3839 28H53.1626V23.9739H65.3839C66.3963 23.9739 67.2171 23.2365 67.2171 22.3268C67.2171 21.4172 66.3963 20.6798 65.3839 20.6798H59.2733C55.7859 20.6798 52.9589 18.1398 52.9589 15.0066Z" fill="white"/>
<ellipse cx="114.065" cy="18.6667" rx="2.03688" ry="1.86666" fill="white"/>
<path fill-rule="evenodd" clip-rule="evenodd" d="M114.065 23.8933C117.215 23.8933 119.769 21.5533 119.769 18.6667C119.769 15.7801 117.215 13.44 114.065 13.44C110.916 13.44 108.362 15.7801 108.362 18.6667C108.362 21.5533 110.916 23.8933 114.065 23.8933ZM114.065 28C119.69 28 124.25 23.8213 124.25 18.6667C124.25 13.512 119.69 9.33337 114.065 9.33337C108.441 9.33337 103.881 13.512 103.881 18.6667C103.881 23.8213 108.441 28 114.065 28Z" fill="white"/>
<path fill-rule="evenodd" clip-rule="evenodd" d="M75.3646 13.3994C77.8358 13.3994 80.956 13.637 83.3934 14.7536C84.5739 15.2944 85.5409 16.0177 86.222 16.9867C86.8989 17.9498 87.3822 19.2814 87.3822 21.1733V28L91.8634 27.9996L91.8634 26.1333V19.409C91.8634 15.388 93.1571 14.1449 93.8657 13.7626C94.7027 13.3112 95.7971 13.4505 96.3822 13.7326C97.2086 14.1311 97.5211 14.8017 97.5599 15.7184C97.5792 16.1747 97.5193 16.6138 97.4488 16.9483C97.4143 17.1117 97.3794 17.2406 97.3553 17.3223C97.3433 17.3629 97.3345 17.3909 97.3298 17.4051L97.3284 17.4089L97.3271 17.4127L97.3259 17.4159C97.326 17.4156 97.3276 17.4118 97.3298 17.4051C97.33 17.4044 97.3303 17.4037 99.4586 18.0392C101.587 18.6746 101.588 18.6722 101.588 18.6714L101.589 18.6678L101.592 18.6593L101.6 18.6373L101.622 18.574C101.638 18.5235 101.66 18.4564 101.684 18.3743C101.732 18.2107 101.793 17.9851 101.85 17.7123C101.964 17.1745 102.074 16.4142 102.038 15.5624C101.966 13.863 101.266 11.4827 98.4849 10.142C96.9171 9.38615 94.1061 8.90284 91.576 10.2675C90.3523 10.9275 89.3666 11.9217 88.6591 13.2607C87.6902 12.3531 86.5748 11.6562 85.4131 11.124C81.9945 9.55785 77.9856 9.33337 75.3646 9.33337V13.3994Z" fill="white"/>
</svg>
