<svg width="14" height="15" viewBox="0 0 14 15" fill="none" xmlns="http://www.w3.org/2000/svg">
<path fill-rule="evenodd" clip-rule="evenodd" d="M4.9619 12.2664L9.62537 7.64271L9.63087 7.6371C9.79282 7.47287 9.8383 7.23736 9.76798 7.03312C9.76064 6.89326 9.70314 6.7556 9.59565 6.64939L4.97793 2.0718C4.74624 1.84285 4.37319 1.84285 4.14172 2.0718C4.1399 2.0734 4.13807 2.07524 4.13647 2.07707C3.91027 2.3058 3.91278 2.67448 4.14172 2.90068L8.43152 7.15425L4.11885 11.4307C4.11851 11.4311 4.11817 11.4314 4.11783 11.4318C4.11656 11.4331 4.11526 11.4344 4.11382 11.4357C3.88602 11.6664 3.88831 12.0383 4.11885 12.2664C4.3526 12.4971 4.72839 12.4971 4.9619 12.2664Z" fill="white"/>
</svg>
