<svg width="16" height="17" viewBox="0 0 16 17" fill="none" xmlns="http://www.w3.org/2000/svg">
<circle cx="8" cy="8.5" r="8" fill="white"/>
<path d="M10.8847 6.04079C11.0256 5.90668 11.213 5.83253 11.4075 5.83401C11.602 5.83548 11.7883 5.91245 11.9272 6.04868C12.066 6.1849 12.1465 6.36973 12.1516 6.56416C12.1567 6.75859 12.0861 6.94741 11.9547 7.09079L7.96471 12.0808C7.8961 12.1547 7.81329 12.214 7.72124 12.2552C7.62919 12.2963 7.52978 12.3185 7.42896 12.3204C7.32814 12.3222 7.22798 12.3037 7.13447 12.266C7.04095 12.2283 6.95601 12.1721 6.88471 12.1008L4.23871 9.45479C4.16502 9.38613 4.10592 9.30333 4.06493 9.21133C4.02394 9.11933 4.00189 9.02001 4.00012 8.91931C3.99834 8.81861 4.01686 8.71858 4.05459 8.62519C4.09231 8.5318 4.14845 8.44697 4.21967 8.37575C4.29089 8.30453 4.37572 8.24839 4.46911 8.21066C4.5625 8.17294 4.66253 8.15442 4.76323 8.1562C4.86393 8.15797 4.96325 8.18001 5.05525 8.22101C5.14725 8.262 5.23005 8.3211 5.29871 8.39479L7.39271 10.4878L10.8657 6.06279C10.872 6.05509 10.8786 6.04774 10.8857 6.04079H10.8847Z" fill="#6E25CB"/>
</svg>
