<svg width="14" height="15" viewBox="0 0 14 15" fill="none" xmlns="http://www.w3.org/2000/svg">
<g clip-path="url(#clip0_2102_41089)">
<path fill-rule="evenodd" clip-rule="evenodd" d="M2.51234 13.5023C3.1141 13.7029 3.77087 13.6561 4.33818 13.3724C4.90549 13.0887 5.33686 12.5912 5.5374 11.9895C5.68165 11.5566 5.69796 11.0953 5.59017 10.6592L8.88141 9.01357C9.107 9.28965 9.39294 9.51358 9.7199 9.66655C10.2078 9.89481 10.7585 9.95164 11.2828 9.82784C11.8071 9.70404 12.2742 9.40685 12.6084 8.98443C12.9427 8.562 13.1246 8.03908 13.1246 7.50039C13.1246 6.96169 12.9427 6.43877 12.6084 6.01635C12.2742 5.59393 11.8071 5.29674 11.2828 5.17294C10.7585 5.04913 10.2078 5.10597 9.7199 5.33423C9.39294 5.48719 9.107 5.71113 8.88141 5.98721L5.58959 4.34125C5.69745 3.90507 5.68113 3.44357 5.53679 3.01056C5.33619 2.40873 4.90473 1.91123 4.33733 1.62753C3.76994 1.34382 3.11308 1.29714 2.51127 1.49775C1.90945 1.69836 1.41198 2.12983 1.12828 2.69724C0.987805 2.9782 0.904044 3.28407 0.881778 3.5974C0.859511 3.91072 0.899174 4.22537 0.998504 4.52337C1.09783 4.82136 1.25488 5.09688 1.46069 5.33418C1.66649 5.57148 1.91702 5.76592 2.19796 5.9064C2.47891 6.04688 2.78477 6.13064 3.09809 6.15291C3.41141 6.17517 3.72604 6.13551 4.02403 6.03618C4.32202 5.93684 4.59753 5.77979 4.83482 5.57398C4.93832 5.48421 5.03366 5.38594 5.11993 5.28035L8.41189 6.92638C8.36649 7.11052 8.34238 7.30286 8.34238 7.50039C8.34238 7.69792 8.36649 7.89026 8.41189 8.0744L5.12054 9.72012C5.03424 9.61449 4.93886 9.51618 4.83532 9.42639C4.59803 9.22062 4.32255 9.06361 4.02459 8.96431C3.72663 8.86501 3.41203 8.82537 3.09875 8.84766C2.78547 8.86995 2.47965 8.95372 2.19874 9.09421C1.91784 9.23469 1.66736 9.42912 1.46159 9.66641C1.25583 9.9037 1.09882 10.1792 0.999525 10.4772C0.900229 10.7751 0.860593 11.0897 0.882881 11.403C0.905169 11.7163 0.988943 12.0222 1.12942 12.3031C1.41313 12.8704 1.91058 13.3018 2.51234 13.5023ZM9.39235 7.50039C9.39235 7.28413 9.44334 7.08063 9.53349 6.90031L9.53352 6.90024C9.66869 6.63002 9.89113 6.41334 10.1648 6.28531C10.4385 6.15727 10.7474 6.12539 11.0415 6.19483C11.3356 6.26428 11.5976 6.43098 11.7851 6.66793C11.9726 6.90489 12.0746 7.19821 12.0746 7.50039C12.0746 7.80256 11.9726 8.09589 11.7851 8.33284C11.5976 8.5698 11.3356 8.7365 11.0415 8.80594C10.7474 8.87539 10.4385 8.84351 10.1648 8.71547C9.89113 8.58744 9.66869 8.37076 9.53352 8.10053C9.44335 7.92019 9.39235 7.71667 9.39235 7.50039ZM3.86855 12.4333C3.55031 12.5925 3.18187 12.6187 2.84429 12.5062C2.50672 12.3937 2.22766 12.1517 2.06851 11.8334C1.9897 11.6758 1.94271 11.5043 1.9302 11.3285C1.9177 11.1528 1.93993 10.9763 1.99564 10.8091C2.05134 10.642 2.13942 10.4874 2.25485 10.3543C2.37028 10.2212 2.51079 10.1121 2.66837 10.0333C2.82595 9.95451 2.99751 9.90752 3.17326 9.89501C3.349 9.88251 3.52548 9.90474 3.69263 9.96045C3.85978 10.0162 4.01432 10.1042 4.14743 10.2197C4.28054 10.3351 4.38962 10.4756 4.46842 10.6332C4.62757 10.9515 4.65379 11.3199 4.54129 11.6575C4.42879 11.9951 4.1868 12.2741 3.86855 12.4333ZM3.692 5.04006C3.52482 5.09579 3.3483 5.11804 3.17252 5.10555C2.99674 5.09306 2.82514 5.04606 2.66752 4.96725C2.5099 4.88844 2.36935 4.77935 2.25389 4.64622C2.13843 4.51309 2.05032 4.35851 1.99459 4.19133C1.93886 4.02414 1.91661 3.84762 1.9291 3.67183C1.9416 3.49605 1.98859 3.32444 2.0674 3.16682C2.22656 2.84848 2.50566 2.60641 2.8433 2.49387C3.18093 2.38132 3.54945 2.40751 3.86777 2.56668C4.1861 2.72584 4.42816 3.00495 4.54071 3.3426C4.65325 3.68024 4.62706 4.04877 4.4679 4.36711C4.38909 4.52473 4.28001 4.66529 4.14688 4.78075C4.01375 4.89622 3.85918 4.98433 3.692 5.04006Z" fill="white"/>
</g>
<defs>
<clipPath id="clip0_2102_41089">
<rect width="13.9996" height="14" fill="white" transform="matrix(-1 0 0 -1 14 14.5)"/>
</clipPath>
</defs>
</svg>
