<svg width="16" height="16" viewBox="0 0 16 16" fill="none" xmlns="http://www.w3.org/2000/svg">
<path fill-rule="evenodd" clip-rule="evenodd" d="M2.87072 14.8598C3.55845 15.089 4.30905 15.0356 4.9574 14.7113C5.60575 14.3871 6.09875 13.8186 6.32793 13.1308C6.49279 12.6361 6.51143 12.1089 6.38824 11.6106L10.1497 9.72979C10.4075 10.0453 10.7343 10.3012 11.1079 10.4761C11.6656 10.7369 12.2949 10.8019 12.8941 10.6604C13.4933 10.5189 14.0271 10.1793 14.4091 9.69649C14.7912 9.21372 14.999 8.6161 14.999 8.00044C14.999 7.38479 14.7912 6.78717 14.4091 6.3044C14.0271 5.82163 13.4933 5.48199 12.8941 5.3405C12.2949 5.19901 11.6656 5.26396 11.1079 5.52484C10.7343 5.69965 10.4075 5.95558 10.1497 6.2711L6.38758 4.39C6.51085 3.89151 6.49219 3.36408 6.32724 2.86921C6.09798 2.1814 5.60488 1.61284 4.95643 1.2886C4.30798 0.964365 3.55728 0.911015 2.8695 1.14028C2.18171 1.36955 1.61316 1.86266 1.28894 2.51114C1.1284 2.83223 1.03267 3.1818 1.00722 3.53988C0.981774 3.89797 1.0271 4.25756 1.14062 4.59813C1.25414 4.9387 1.43363 5.25358 1.66883 5.52478C1.90404 5.79598 2.19035 6.0182 2.51143 6.17874C2.83252 6.33929 3.18207 6.43502 3.54015 6.46046C3.89823 6.48591 4.25781 6.44058 4.59837 6.32706C4.93893 6.21354 5.25379 6.03404 5.52498 5.79883C5.64327 5.69625 5.75223 5.58393 5.85082 5.46325L9.61307 7.34444C9.56118 7.55488 9.53363 7.77469 9.53363 8.00044C9.53363 8.22619 9.56118 8.44601 9.61307 8.65645L5.85152 10.5373C5.75289 10.4166 5.64389 10.3042 5.52555 10.2016C5.25437 9.96642 4.93953 9.78698 4.59901 9.67349C4.25848 9.56001 3.89893 9.51471 3.5409 9.54018C3.18287 9.56565 2.83336 9.6614 2.51233 9.82195C2.19129 9.9825 1.90503 10.2047 1.66987 10.4759C1.43471 10.7471 1.25527 11.0619 1.14179 11.4025C1.02831 11.743 0.983012 12.1026 1.00848 12.4606C1.03395 12.8187 1.1297 13.1682 1.29024 13.4892C1.61448 14.1376 2.183 14.6306 2.87072 14.8598ZM10.7336 8.00044C10.7336 7.75329 10.7919 7.52072 10.8949 7.31464L10.8949 7.31456C11.0494 7.00573 11.3036 6.7581 11.6164 6.61178C11.9292 6.46545 12.2822 6.42901 12.6183 6.50838C12.9544 6.58774 13.2539 6.77826 13.4682 7.04907C13.6825 7.31987 13.7991 7.6551 13.7991 8.00044C13.7991 8.34579 13.6825 8.68102 13.4682 8.95182C13.2539 9.22262 12.9544 9.41314 12.6183 9.49251C12.2822 9.57187 11.9292 9.53544 11.6164 9.38911C11.3036 9.24278 11.0494 8.99515 10.8949 8.68632C10.7919 8.48022 10.7336 8.24763 10.7336 8.00044ZM4.42068 13.6381C4.05697 13.82 3.6359 13.8499 3.2501 13.7213C2.8643 13.5928 2.54537 13.3162 2.36348 12.9525C2.27342 12.7724 2.21971 12.5763 2.20542 12.3755C2.19113 12.1746 2.21654 11.9729 2.2802 11.7819C2.34387 11.5908 2.44453 11.4142 2.57645 11.2621C2.70836 11.1099 2.86895 10.9853 3.04905 10.8952C3.22914 10.8052 3.42521 10.7514 3.62605 10.7372C3.8269 10.7229 4.0286 10.7483 4.21963 10.8119C4.41066 10.8756 4.58728 10.9763 4.7394 11.1082C4.89153 11.2401 5.01618 11.4007 5.10624 11.5808C5.28813 11.9445 5.31809 12.3656 5.18952 12.7514C5.06095 13.1372 4.78439 13.4562 4.42068 13.6381ZM4.21891 5.18864C4.02784 5.25233 3.82611 5.27776 3.62522 5.26348C3.42432 5.24921 3.22821 5.1955 3.04807 5.10543C2.86794 5.01536 2.70731 4.89069 2.57535 4.73853C2.44339 4.58638 2.3427 4.40973 2.27901 4.21866C2.21532 4.02759 2.18989 3.82585 2.20417 3.62495C2.21844 3.42405 2.27215 3.22793 2.36222 3.04779C2.54412 2.68398 2.86309 2.40733 3.24896 2.2787C3.63483 2.15008 4.05599 2.18001 4.41979 2.36191C4.78359 2.54382 5.06023 2.8628 5.18886 3.24868C5.31748 3.63456 5.28755 4.05574 5.10565 4.41955C5.01558 4.59969 4.89091 4.76033 4.73877 4.89229C4.58662 5.02425 4.40997 5.12495 4.21891 5.18864Z" fill="#25292F"/>
</svg>
