<svg width="18" height="18" viewBox="0 0 18 18" fill="none" xmlns="http://www.w3.org/2000/svg">
<g clip-path="url(#clip0_2678_94746)">
<path d="M11.4545 9.62093C14.5112 9.62093 16.9892 8.5196 16.9892 7.16105C16.9892 5.8025 14.5112 4.70117 11.4545 4.70117C8.39772 4.70117 5.91974 5.8025 5.91974 7.16105C5.91974 8.5196 8.39772 9.62093 11.4545 9.62093Z" stroke="#D4C9FF" stroke-width="1.4" stroke-linecap="round" stroke-linejoin="round"/>
<path d="M5.91974 7.16016V14.5398C5.91974 15.8927 8.37962 16.9997 11.4545 16.9997C14.5293 16.9997 16.9892 15.8927 16.9892 14.5398V7.16016" stroke="#D4C9FF" stroke-width="1.4" stroke-linecap="round" stroke-linejoin="round"/>
<path d="M16.9892 10.8503C16.9892 12.2032 14.5293 13.3102 11.4545 13.3102C8.37963 13.3102 5.91975 12.2032 5.91975 10.8503M11.3315 2.24073C9.89429 1.35379 8.22138 0.924841 6.53472 1.01079C3.47218 1.01079 1 2.11774 1 3.47067C1 4.19634 1.71336 4.8482 2.84491 5.31558" stroke="#D4C9FF" stroke-width="1.4" stroke-linecap="round" stroke-linejoin="round"/>
<path d="M2.84491 12.6952C1.71336 12.2279 1 11.576 1 10.8503V3.4707" stroke="#D4C9FF" stroke-width="1.4" stroke-linecap="round" stroke-linejoin="round"/>
<path d="M2.84491 9.00506C1.71336 8.53769 1 7.88582 1 7.16016" stroke="#D4C9FF" stroke-width="1.4" stroke-linecap="round" stroke-linejoin="round"/>
</g>
<defs>
<clipPath id="clip0_2678_94746">
<rect width="18" height="18" fill="white"/>
</clipPath>
</defs>
</svg>
