<svg width="16" height="16" viewBox="0 0 16 16" fill="none" xmlns="http://www.w3.org/2000/svg">
<path d="M13.154 15.532V11.44H2.11V10.032H3.166C4.10467 10.032 4.94067 9.9 5.674 9.636C6.422 9.372 7.06 9.00533 7.588 8.536C8.116 8.06667 8.51933 7.50933 8.798 6.864C9.07667 6.21867 9.216 5.522 9.216 4.774C9.216 3.674 8.94467 2.838 8.402 2.266C7.874 1.694 7.19933 1.408 6.378 1.408C5.57133 1.408 4.89667 1.68667 4.354 2.244C3.81133 2.78667 3.54 3.542 3.54 4.51H2C2 3.63 2.176 2.85267 2.528 2.178C2.88 1.50333 3.386 0.975333 4.046 0.594C4.706 0.198 5.48333 0 6.378 0C7.302 0 8.08667 0.198 8.732 0.594C9.392 0.975333 9.89067 1.518 10.228 2.222C10.58 2.91133 10.756 3.718 10.756 4.642C10.756 5.27267 10.6607 5.92533 10.47 6.6C10.2793 7.26 9.964 7.89067 9.524 8.492C9.09867 9.07867 8.50467 9.592 7.742 10.032H13.154V0.264001H14.694V15.532H13.154Z" fill="#D4C9FF"/>
</svg>
