<svg width="16" height="16" viewBox="0 0 16 16" fill="none" xmlns="http://www.w3.org/2000/svg">
<g clip-path="url(#clip0_2043_82015)">
<path d="M15.092 0L14.828 7.26L13.706 7.238L13.53 2.596L8.228 7.898C8.778 8.646 9.064 9.526 9.064 10.538C9.064 11.77 8.624 12.848 7.744 13.75C6.842 14.63 5.764 15.07 4.532 15.07C3.278 15.07 2.222 14.63 1.342 13.75C0.44 12.848 0 11.77 0 10.538C0 9.284 0.44 8.206 1.342 7.326C2.222 6.446 3.278 6.006 4.532 6.006C5.522 6.006 6.402 6.27 7.194 6.842L12.496 1.562L7.876 1.386L7.854 0.263999L15.092 0ZM4.532 7.48C3.696 7.48 2.97 7.766 2.398 8.382C1.782 8.976 1.496 9.702 1.496 10.538C1.496 11.374 1.782 12.078 2.398 12.694C2.97 13.288 3.696 13.596 4.532 13.596C5.368 13.596 6.072 13.288 6.688 12.694C7.282 12.078 7.59 11.374 7.59 10.538C7.59 9.702 7.282 8.976 6.688 8.382C6.072 7.766 5.368 7.48 4.532 7.48Z" fill="#D4C9FF"/>
</g>
<defs>
<clipPath id="clip0_2043_82015">
<rect width="16" height="16" fill="white"/>
</clipPath>
</defs>
</svg>
