<svg width="16" height="16" viewBox="0 0 16 16" fill="none" xmlns="http://www.w3.org/2000/svg">
<g clip-path="url(#clip0_2043_82011)">
<path d="M7.56212 16V13.8745H5.23985V12.9496H7.56212V11.2177C6.89299 11.1259 6.28946 10.8897 5.75154 10.5092C5.21361 10.1287 4.78721 9.64986 4.47232 9.07257C4.15744 8.48217 4 7.83928 4 7.14391C4 6.40918 4.1968 5.72694 4.59041 5.09717C4.98401 4.45429 5.50226 3.95572 6.14514 3.60148C5.48914 3.23411 4.96433 2.72899 4.57073 2.0861C4.19024 1.44321 4 0.747847 4 0H4.98401C4.98401 0.564165 5.12177 1.08241 5.39729 1.55474C5.68594 2.02706 6.06642 2.40754 6.53875 2.69619C7.01107 2.97171 7.52932 3.10947 8.09348 3.10947C8.67077 3.10947 9.19557 2.97171 9.6679 2.69619C10.1402 2.40754 10.5141 2.02706 10.7897 1.55474C11.0652 1.08241 11.203 0.564165 11.203 0H12.187C12.187 0.760968 11.9902 1.4629 11.5966 2.10578C11.2161 2.74867 10.6978 3.24723 10.0418 3.60148C10.6978 3.95572 11.2161 4.44773 11.5966 5.07749C11.9902 5.70726 12.187 6.39606 12.187 7.14391C12.187 7.82616 12.0295 8.46249 11.7146 9.05289C11.3998 9.63018 10.9734 10.1156 10.4354 10.5092C9.91062 10.8897 9.30709 11.1259 8.62485 11.2177V12.9496H10.9471V13.8745H8.62485V16H7.56212ZM8.09348 10.2534C8.65765 10.2534 9.17589 10.1156 9.64822 9.8401C10.1205 9.55146 10.4945 9.17097 10.77 8.69865C11.0586 8.22632 11.203 7.70808 11.203 7.14391C11.203 6.59287 11.0586 6.08774 10.77 5.62854C10.4945 5.16933 10.1205 4.80197 9.64822 4.52645C9.17589 4.2378 8.65765 4.09348 8.09348 4.09348C7.52932 4.09348 7.01107 4.23124 6.53875 4.50677C6.06642 4.78229 5.68594 5.14965 5.39729 5.60886C5.12177 6.06806 4.98401 6.57975 4.98401 7.14391C4.98401 7.69496 5.12177 8.20664 5.39729 8.67897C5.68594 9.15129 6.06642 9.53178 6.53875 9.82042C7.01107 10.1091 7.52932 10.2534 8.09348 10.2534Z" fill="#D4C9FF"/>
</g>
<defs>
<clipPath id="clip0_2043_82011">
<rect width="16" height="16" fill="white"/>
</clipPath>
</defs>
</svg>
