<svg width="16" height="16" viewBox="0 0 16 16" fill="none" xmlns="http://www.w3.org/2000/svg">
<path d="M5.266 15.268C4.85533 15.268 4.45933 15.246 4.078 15.202C3.71133 15.158 3.352 15.0847 3 14.982V14.256C4.29067 14.256 5.41267 13.9773 6.366 13.42C7.334 12.8627 8.082 12.0853 8.61 11.088C9.138 10.0907 9.402 8.93933 9.402 7.634C9.402 6.32867 9.138 5.17733 8.61 4.18C8.082 3.18267 7.34133 2.40533 6.388 1.848C5.43467 1.29067 4.30533 1.012 3 1.012V0.286C3.67467 0.0953334 4.43 0 5.266 0C6.41 0 7.45867 0.183333 8.412 0.549999C9.38 0.916667 10.2087 1.43733 10.898 2.112C11.602 2.772 12.1447 3.57133 12.526 4.51C12.9073 5.44867 13.098 6.49 13.098 7.634C13.098 9.13 12.7607 10.4573 12.086 11.616C11.426 12.76 10.5093 13.6547 9.336 14.3C8.16267 14.9453 6.806 15.268 5.266 15.268ZM5.288 14.608C6.256 14.608 7.158 14.4247 7.994 14.058C8.83 13.6913 9.556 13.1927 10.172 12.562C10.788 11.9167 11.2647 11.176 11.602 10.34C11.954 9.48933 12.13 8.58733 12.13 7.634C12.13 6.666 11.954 5.764 11.602 4.928C11.2647 4.07733 10.788 3.33667 10.172 2.706C9.556 2.06067 8.83 1.562 7.994 1.21C7.158 0.843334 6.256 0.660001 5.288 0.660001C6.31467 0.88 7.20933 1.32733 7.972 2.002C8.73467 2.662 9.32133 3.476 9.732 4.444C10.1573 5.412 10.37 6.47533 10.37 7.634C10.37 8.778 10.1573 9.84133 9.732 10.824C9.32133 11.792 8.73467 12.606 7.972 13.266C7.20933 13.926 6.31467 14.3733 5.288 14.608Z" fill="#D4C9FF"/>
</svg>
