<svg width="16" height="16" viewBox="0 0 16 16" fill="none" xmlns="http://www.w3.org/2000/svg">
<g clip-path="url(#clip0_2043_82023)">
<path d="M6.92958 15.993V13.7113H4.43662V12.7183H6.92958V11.0282C5.23944 10.9296 3.94366 10.338 3.04225 9.25352C2.15493 8.15493 1.71127 6.61268 1.71127 4.62676V3.57042L0 3.84507L2.23944 1.35211L4.47887 3.84507L2.76761 3.57042V4.62676C2.76761 6.24648 3.12676 7.51408 3.84507 8.42958C4.57747 9.34507 5.60563 9.85915 6.92958 9.97183V2.21831L5.21831 2.49296L7.5 0L9.78169 2.49296L8.07042 2.21831V9.97183C9.39437 9.85915 10.4155 9.34507 11.1338 8.42958C11.8662 7.51408 12.2324 6.24648 12.2324 4.62676V3.57042L10.5211 3.84507L12.7606 1.35211L15 3.84507L13.2887 3.57042V4.62676C13.2887 6.61268 12.838 8.15493 11.9366 9.25352C11.0493 10.338 9.76056 10.9296 8.07042 11.0282V12.7183H10.5634V13.7113H8.07042V15.993H6.92958Z" fill="#D4C9FF"/>
</g>
<defs>
<clipPath id="clip0_2043_82023">
<rect width="16" height="16" fill="white"/>
</clipPath>
</defs>
</svg>
