<svg width="16" height="16" viewBox="0 0 16 16" fill="none" xmlns="http://www.w3.org/2000/svg">
<path d="M4.6 16V3.2H3V2.06316H4.6V0H6.07368V2.06316H9.96842V3.2H6.07368V5.11579C6.07368 5.42456 6.05965 5.70526 6.03158 5.9579C6.01754 6.21053 5.99649 6.44912 5.96842 6.67368H6.09474C6.44561 6.11228 6.92982 5.68421 7.54737 5.38947C8.16491 5.0807 8.85965 4.92632 9.63158 4.92632C10.993 4.92632 11.9825 5.27018 12.6 5.9579C13.2175 6.63158 13.5263 7.60702 13.5263 8.88421C13.5263 9.20702 13.4702 9.57193 13.3579 9.97895C13.2596 10.386 13.1053 10.8351 12.8947 11.3263C12.6702 11.8175 12.5018 12.2386 12.3895 12.5895C12.2912 12.9404 12.2421 13.2211 12.2421 13.4316C12.2421 13.8667 12.3263 14.3298 12.4947 14.8211C12.6632 15.2982 12.8456 15.6912 13.0421 16H11.4421C11.2456 15.6912 11.0702 15.2842 10.9158 14.7789C10.7754 14.2737 10.7053 13.7965 10.7053 13.3474C10.7053 13.0667 10.7544 12.7368 10.8526 12.3579C10.9649 11.9789 11.1263 11.5509 11.3368 11.0737C11.5614 10.5544 11.7228 10.1193 11.8211 9.76842C11.9333 9.40351 11.9895 9.10877 11.9895 8.88421C11.9895 7.92982 11.7719 7.24912 11.3368 6.84211C10.9018 6.42105 10.2491 6.21053 9.37895 6.21053C8.64912 6.21053 8.0386 6.36491 7.54737 6.67368C7.05614 6.98246 6.68421 7.45965 6.43158 8.10526C6.19298 8.73684 6.07368 9.55789 6.07368 10.5684V16H4.6Z" fill="#D4C9FF"/>
</svg>
