<svg width="16" height="16" viewBox="0 0 16 16" fill="none" xmlns="http://www.w3.org/2000/svg">
<g clip-path="url(#clip0_2043_82005)">
<path d="M7.744 0C9.9 0 11.748 0.748 13.244 2.244C14.74 3.74 15.488 5.566 15.488 7.744C15.488 9.9 14.74 11.748 13.244 13.266C11.748 14.762 9.9 15.51 7.744 15.51C5.544 15.51 3.718 14.762 2.244 13.266C0.748 11.748 0 9.9 0 7.744C0 5.566 0.748 3.74 2.244 2.244C3.74 0.748 5.566 0 7.744 0ZM7.744 1.54C5.984 1.54 4.51 2.134 3.322 3.344C2.112 4.532 1.518 5.984 1.518 7.744C1.518 9.482 2.112 10.956 3.322 12.166C4.51 13.354 5.984 13.97 7.744 13.97C9.46 13.97 10.912 13.354 12.122 12.144C13.332 10.912 13.948 9.46 13.948 7.744C13.948 6.028 13.332 4.554 12.122 3.344C10.912 2.134 9.46 1.54 7.744 1.54ZM7.744 6.05C8.184 6.05 8.58 6.204 8.932 6.556C9.262 6.886 9.438 7.282 9.438 7.744C9.438 8.184 9.262 8.58 8.932 8.932C8.58 9.262 8.184 9.438 7.744 9.438C7.282 9.438 6.886 9.262 6.556 8.932C6.204 8.58 6.05 8.184 6.05 7.744C6.05 7.282 6.204 6.886 6.556 6.556C6.886 6.204 7.282 6.05 7.744 6.05Z" fill="#D4C9FF"/>
</g>
<defs>
<clipPath id="clip0_2043_82005">
<rect width="16" height="16" fill="white"/>
</clipPath>
</defs>
</svg>
