<svg width="16" height="16" viewBox="0 0 16 16" fill="none" xmlns="http://www.w3.org/2000/svg">
<path d="M8.37 15.95C7.85667 15.95 7.38733 15.8253 6.962 15.576C6.55133 15.3267 6.22133 14.9967 5.972 14.586C5.72267 14.1607 5.598 13.6913 5.598 13.178C5.598 12.5473 5.78867 11.9827 6.17 11.484C6.55133 10.9853 7.03533 10.6627 7.622 10.516V6.248H4.586V11.286H1V9.834H3.046V1.452H1V0H4.586V4.862H7.622V0H9.052V4.862H12.088V0H15.674V1.452H13.628V9.834H15.674V11.286H12.088V6.248H9.052V10.494C9.668 10.6553 10.1667 10.9927 10.548 11.506C10.944 12.0047 11.142 12.562 11.142 13.178C11.142 13.6767 11.0173 14.1387 10.768 14.564C10.5333 14.9747 10.2033 15.312 9.778 15.576C9.36733 15.8253 8.898 15.95 8.37 15.95ZM8.37 14.608C8.78067 14.608 9.118 14.476 9.382 14.212C9.66067 13.9333 9.8 13.5887 9.8 13.178C9.8 12.782 9.66067 12.4447 9.382 12.166C9.10333 11.8873 8.766 11.748 8.37 11.748C7.95933 11.748 7.61467 11.8873 7.336 12.166C7.072 12.43 6.94 12.7673 6.94 13.178C6.94 13.5887 7.072 13.9333 7.336 14.212C7.61467 14.476 7.95933 14.608 8.37 14.608Z" fill="#D4C9FF"/>
</svg>
