<svg width="16" height="16" viewBox="0 0 16 16" fill="none" xmlns="http://www.w3.org/2000/svg">
<g clip-path="url(#clip0_2043_82013)">
<path d="M7.83178 0C8.8785 0 9.79439 0.373831 10.5607 1.1215C11.3084 1.86916 11.6822 2.78505 11.6822 3.85047C11.6822 4.8972 11.3084 5.81308 10.5607 6.56075C9.96262 7.15888 9.25234 7.51402 8.46729 7.64486V9.71963H13.6822V10.972H8.46729V16H7.19626V10.972H2V9.71963H7.19626V7.64486C6.39252 7.51402 5.70093 7.15888 5.1028 6.56075C4.35514 5.81308 3.98131 4.8972 3.98131 3.85047C3.98131 2.78505 4.35514 1.86916 5.1028 1.1215C5.85047 0.373831 6.76636 0 7.83178 0ZM7.83178 1.25234C7.12149 1.25234 6.50467 1.49533 6 2.01869C5.47664 2.52336 5.23365 3.14019 5.23365 3.85047C5.23365 4.56075 5.47664 5.15888 6 5.68224C6.50467 6.16822 7.12149 6.42991 7.83178 6.42991C8.54206 6.42991 9.14019 6.16822 9.66355 5.68224C10.1682 5.15888 10.4299 4.56075 10.4299 3.85047C10.4299 3.14019 10.1682 2.52336 9.66355 2.01869C9.14019 1.49533 8.54206 1.25234 7.83178 1.25234Z" fill="#D4C9FF"/>
</g>
<defs>
<clipPath id="clip0_2043_82013">
<rect width="16" height="16" fill="white"/>
</clipPath>
</defs>
</svg>
